<svg width="227" height="72" viewBox="0 0 227 72" fill="none" xmlns="http://www.w3.org/2000/svg">
<path d="M86.6068 49.1466H84.4079V34.2899C84.4079 32.5445 83.707 30.8678 82.47 29.6309L68.7403 15.9012C67.5034 14.6643 65.8267 13.9634 64.0813 13.9634H58.0204V7.36651C58.0204 3.7245 55.0656 0.769653 51.4236 0.769653H16.2403C12.5983 0.769653 9.64347 3.7245 9.64347 7.36651V13.9634H1.94713C1.34242 13.9634 0.847656 14.4581 0.847656 15.0628V17.2618C0.847656 17.8665 1.34242 18.3613 1.94713 18.3613H39.3293C39.934 18.3613 40.4288 18.856 40.4288 19.4608V21.6597C40.4288 22.2644 39.934 22.7592 39.3293 22.7592H6.34504C5.74033 22.7592 5.24556 23.2539 5.24556 23.8587V26.0576C5.24556 26.6623 5.74033 27.1571 6.34504 27.1571H34.9314C35.5361 27.1571 36.0309 27.6519 36.0309 28.2566V30.4555C36.0309 31.0602 35.5361 31.555 34.9314 31.555H1.94713C1.34242 31.555 0.847656 32.0498 0.847656 32.6545V34.8534C0.847656 35.4581 1.34242 35.9529 1.94713 35.9529H30.5335C31.1382 35.9529 31.633 36.4477 31.633 37.0524V39.2513C31.633 39.856 31.1382 40.3508 30.5335 40.3508H9.64347V57.9424C9.64347 65.2265 15.5532 71.1361 22.8372 71.1361C30.1212 71.1361 36.0309 65.2265 36.0309 57.9424H53.6225C53.6225 65.2265 59.5322 71.1361 66.8162 71.1361C74.1003 71.1361 80.01 65.2265 80.01 57.9424H86.6068C87.8162 57.9424 88.8058 56.9529 88.8058 55.7435V51.3456C88.8058 50.1361 87.8162 49.1466 86.6068 49.1466ZM22.8372 64.5393C19.1952 64.5393 16.2403 61.5844 16.2403 57.9424C16.2403 54.3004 19.1952 51.3456 22.8372 51.3456C26.4792 51.3456 29.434 54.3004 29.434 57.9424C29.434 61.5844 26.4792 64.5393 22.8372 64.5393ZM66.8162 64.5393C63.1742 64.5393 60.2194 61.5844 60.2194 57.9424C60.2194 54.3004 63.1742 51.3456 66.8162 51.3456C70.4583 51.3456 73.4131 54.3004 73.4131 57.9424C73.4131 61.5844 70.4583 64.5393 66.8162 64.5393ZM77.811 35.9529H58.0204V20.5602H64.0813L77.811 34.2899V35.9529Z" fill="#77BE1D"/>
<path d="M118.02 9.12903V11.6534H110.983V24.7697H107.771V9.12903H118.02ZM109.877 14.8331H113.529C114.761 14.8331 115.821 15.0372 116.709 15.4454C117.597 15.8536 118.281 16.4266 118.761 17.1642C119.241 17.9018 119.48 18.7612 119.48 19.7423C119.48 20.4871 119.344 21.1674 119.072 21.7833C118.8 22.392 118.403 22.922 117.88 23.3732C117.364 23.8172 116.741 24.1609 116.011 24.4044C115.28 24.6479 114.453 24.7697 113.529 24.7697H107.771V9.12903H111.005V22.256H113.529C114.145 22.256 114.654 22.1414 115.055 21.9122C115.456 21.6831 115.757 21.3787 115.957 20.9991C116.165 20.6124 116.269 20.1863 116.269 19.7208C116.269 19.2768 116.165 18.8758 115.957 18.5177C115.757 18.1525 115.456 17.866 115.055 17.6583C114.654 17.4506 114.145 17.3468 113.529 17.3468H109.877V14.8331ZM123.53 16.5948H126.903C127.963 16.5948 128.866 16.7703 129.61 17.1212C130.362 17.465 130.935 17.9448 131.329 18.5607C131.73 19.1766 131.931 19.8891 131.931 20.6984C131.931 21.2856 131.816 21.8299 131.587 22.3312C131.365 22.8253 131.039 23.255 130.609 23.6202C130.18 23.9855 129.653 24.2684 129.03 24.4689C128.407 24.6694 127.698 24.7697 126.903 24.7697H121.597V13.1466H124.701V22.3634H126.903C127.369 22.3634 127.741 22.2882 128.021 22.1378C128.307 21.9803 128.515 21.7762 128.644 21.5255C128.78 21.2749 128.848 21.0027 128.848 20.7091C128.848 20.4012 128.78 20.1219 128.644 19.8712C128.515 19.6134 128.307 19.4057 128.021 19.2482C127.741 19.0906 127.369 19.0118 126.903 19.0118H123.53V16.5948ZM136.894 13.1466V24.7697H133.8V13.1466H136.894ZM144.413 22.5675C144.793 22.5675 145.129 22.4959 145.423 22.3527C145.716 22.2023 145.946 21.9946 146.11 21.7296C146.282 21.4575 146.372 21.1388 146.379 20.7736H149.29C149.283 21.59 149.064 22.3169 148.635 22.9542C148.205 23.5844 147.629 24.0822 146.905 24.4474C146.182 24.8055 145.373 24.9845 144.478 24.9845C143.575 24.9845 142.787 24.8341 142.114 24.5333C141.448 24.2325 140.893 23.8172 140.449 23.2872C140.005 22.7501 139.672 22.1271 139.45 21.4181C139.228 20.7019 139.117 19.9357 139.117 19.1193V18.8077C139.117 17.9842 139.228 17.2179 139.45 16.5089C139.672 15.7928 140.005 15.1697 140.449 14.6398C140.893 14.1027 141.448 13.6837 142.114 13.3829C142.78 13.0822 143.561 12.9318 144.456 12.9318C145.409 12.9318 146.243 13.1144 146.959 13.4796C147.682 13.8448 148.248 14.3676 148.656 15.048C149.072 15.7212 149.283 16.5197 149.29 17.4435H146.379C146.372 17.0568 146.289 16.7059 146.132 16.3907C145.981 16.0756 145.759 15.825 145.466 15.6388C145.179 15.4454 144.825 15.3488 144.402 15.3488C143.951 15.3488 143.582 15.4454 143.296 15.6388C143.009 15.825 142.787 16.0828 142.63 16.4122C142.472 16.7345 142.361 17.1033 142.297 17.5187C142.24 17.9269 142.211 18.3566 142.211 18.8077V19.1193C142.211 19.5704 142.24 20.0037 142.297 20.4191C142.354 20.8344 142.462 21.2032 142.619 21.5255C142.784 21.8478 143.009 22.102 143.296 22.2882C143.582 22.4744 143.955 22.5675 144.413 22.5675ZM157.003 13.1466V24.7697H153.898V13.1466H157.003ZM160.741 13.1466V15.5421H150.214V13.1466H160.741ZM165.414 15.381V29.2384H162.32V13.1466H165.188L165.414 15.381ZM172.772 18.8292V19.0548C172.772 19.8999 172.672 20.684 172.472 21.4073C172.278 22.1307 171.992 22.7609 171.612 23.298C171.233 23.8279 170.76 24.2433 170.194 24.5441C169.636 24.8377 168.991 24.9845 168.261 24.9845C167.552 24.9845 166.936 24.8413 166.413 24.5548C165.89 24.2684 165.45 23.8673 165.092 23.3517C164.741 22.8289 164.458 22.2238 164.243 21.5363C164.028 20.8488 163.864 20.1111 163.749 19.3234V18.7325C163.864 17.8875 164.028 17.1141 164.243 16.4122C164.458 15.7032 164.741 15.0909 165.092 14.5753C165.45 14.0525 165.887 13.6479 166.402 13.3615C166.925 13.075 167.537 12.9318 168.239 12.9318C168.977 12.9318 169.625 13.0714 170.184 13.3507C170.749 13.63 171.222 14.031 171.602 14.5538C171.988 15.0766 172.278 15.6997 172.472 16.423C172.672 17.1463 172.772 17.9484 172.772 18.8292ZM169.668 19.0548V18.8292C169.668 18.3351 169.625 17.8803 169.539 17.465C169.46 17.0424 169.331 16.6736 169.152 16.3585C168.98 16.0434 168.751 15.7999 168.465 15.6281C168.186 15.449 167.845 15.3595 167.444 15.3595C167.022 15.3595 166.66 15.4275 166.359 15.5636C166.066 15.6997 165.826 15.8966 165.64 16.1544C165.453 16.4122 165.314 16.7202 165.221 17.0782C165.128 17.4363 165.07 17.8409 165.049 18.2921V19.7853C165.085 20.3152 165.185 20.7915 165.35 21.214C165.514 21.6294 165.769 21.9588 166.112 22.2023C166.456 22.4458 166.907 22.5675 167.466 22.5675C167.874 22.5675 168.218 22.478 168.497 22.299C168.776 22.1128 169.002 21.8585 169.174 21.5363C169.353 21.214 169.478 20.8416 169.55 20.4191C169.629 19.9965 169.668 19.5418 169.668 19.0548ZM180.969 22.1486V16.9708C180.969 16.5984 180.908 16.2797 180.786 16.0148C180.664 15.7426 180.475 15.5314 180.217 15.381C179.966 15.2306 179.64 15.1554 179.239 15.1554C178.896 15.1554 178.598 15.2163 178.348 15.338C178.097 15.4526 177.904 15.6209 177.768 15.8429C177.632 16.0577 177.563 16.312 177.563 16.6056H174.47C174.47 16.1115 174.584 15.6424 174.813 15.1984C175.043 14.7544 175.376 14.3641 175.812 14.0275C176.249 13.6837 176.769 13.4152 177.37 13.2218C177.979 13.0284 178.659 12.9318 179.411 12.9318C180.313 12.9318 181.116 13.0822 181.817 13.3829C182.519 13.6837 183.071 14.1349 183.472 14.7365C183.88 15.338 184.084 16.09 184.084 16.9923V21.9659C184.084 22.6033 184.123 23.1261 184.202 23.5343C184.281 23.9353 184.396 24.2863 184.546 24.587V24.7697H181.42C181.27 24.4545 181.155 24.0607 181.076 23.588C181.005 23.1082 180.969 22.6284 180.969 22.1486ZM181.377 17.6906L181.398 19.4415H179.669C179.261 19.4415 178.906 19.4881 178.605 19.5812C178.305 19.6743 178.058 19.8068 177.864 19.9786C177.671 20.1434 177.528 20.3367 177.435 20.5587C177.349 20.7807 177.306 21.0242 177.306 21.2892C177.306 21.5542 177.367 21.7941 177.488 22.0089C177.61 22.2166 177.785 22.3813 178.015 22.5031C178.244 22.6176 178.512 22.6749 178.82 22.6749C179.286 22.6749 179.69 22.5818 180.034 22.3956C180.378 22.2094 180.643 21.9803 180.829 21.7081C181.022 21.436 181.123 21.1782 181.13 20.9347L181.946 22.2452C181.832 22.5389 181.674 22.8432 181.474 23.1583C181.28 23.4734 181.033 23.7706 180.732 24.0499C180.432 24.3221 180.07 24.5476 179.647 24.7267C179.225 24.8986 178.724 24.9845 178.144 24.9845C177.406 24.9845 176.736 24.8377 176.135 24.5441C175.54 24.2433 175.068 23.8315 174.717 23.3087C174.373 22.7788 174.201 22.1772 174.201 21.504C174.201 20.8953 174.316 20.3546 174.545 19.882C174.774 19.4093 175.111 19.0118 175.555 18.6896C176.006 18.3601 176.568 18.1131 177.241 17.9484C177.914 17.7765 178.695 17.6906 179.583 17.6906H181.377ZM188.972 18.9689H192.108L188.875 24.7697H185.749L188.972 18.9689ZM191.056 13.1466H196.158V24.7697H193.064V15.5421H191.056C190.633 15.5421 190.282 15.6209 190.003 15.7784C189.724 15.9288 189.516 16.1258 189.38 16.3693C189.251 16.6056 189.187 16.8491 189.187 17.0997C189.187 17.3432 189.251 17.5795 189.38 17.8087C189.509 18.0379 189.709 18.2277 189.981 18.3781C190.254 18.5284 190.594 18.6036 191.002 18.6036H194.214V20.7091H191.002C190.236 20.7091 189.548 20.616 188.939 20.4298C188.338 20.2436 187.822 19.9858 187.393 19.6564C186.97 19.3198 186.644 18.9295 186.415 18.4855C186.193 18.0343 186.082 17.5402 186.082 17.0031C186.082 16.4445 186.197 15.9324 186.426 15.4669C186.655 15.0014 186.984 14.5932 187.414 14.2423C187.844 13.8914 188.363 13.6228 188.972 13.4366C189.588 13.2433 190.282 13.1466 191.056 13.1466ZM109.694 39.1466H112.788L112.691 43.0353C112.663 44.2814 112.52 45.352 112.262 46.2472C112.004 47.1424 111.66 47.8943 111.23 48.5031C110.801 49.1118 110.31 49.5988 109.759 49.964C109.215 50.3221 108.642 50.5906 108.04 50.7697H107.46L107.428 48.3849L107.75 48.3527C108.115 47.9731 108.416 47.6043 108.652 47.2462C108.889 46.881 109.071 46.4978 109.2 46.0968C109.329 45.6958 109.422 45.2482 109.479 44.754C109.544 44.2599 109.583 43.687 109.598 43.0353L109.694 39.1466ZM110.532 39.1466H118.234V50.7697H115.151V41.6281H110.532V39.1466ZM106.751 48.3527H119.899V54.2609H116.806V50.7697H109.92V54.2609H106.751V48.3527ZM120.984 45.0763V44.8507C120.984 43.9985 121.106 43.2143 121.35 42.4982C121.593 41.7749 121.948 41.1482 122.413 40.6183C122.879 40.0883 123.451 39.6766 124.132 39.3829C124.812 39.0822 125.593 38.9318 126.474 38.9318C127.354 38.9318 128.139 39.0822 128.826 39.3829C129.514 39.6766 130.09 40.0883 130.556 40.6183C131.028 41.1482 131.386 41.7749 131.63 42.4982C131.873 43.2143 131.995 43.9985 131.995 44.8507V45.0763C131.995 45.9213 131.873 46.7055 131.63 47.4288C131.386 48.145 131.028 48.7716 130.556 49.3087C130.09 49.8387 129.517 50.2504 128.837 50.5441C128.157 50.8377 127.376 50.9845 126.495 50.9845C125.614 50.9845 124.83 50.8377 124.143 50.5441C123.462 50.2504 122.886 49.8387 122.413 49.3087C121.948 48.7716 121.593 48.145 121.35 47.4288C121.106 46.7055 120.984 45.9213 120.984 45.0763ZM124.078 44.8507V45.0763C124.078 45.5633 124.121 46.018 124.207 46.4406C124.293 46.8631 124.429 47.2355 124.615 47.5577C124.809 47.8728 125.059 48.1199 125.367 48.299C125.675 48.478 126.051 48.5675 126.495 48.5675C126.925 48.5675 127.294 48.478 127.602 48.299C127.91 48.1199 128.157 47.8728 128.343 47.5577C128.529 47.2355 128.665 46.8631 128.751 46.4406C128.844 46.018 128.891 45.5633 128.891 45.0763V44.8507C128.891 44.3781 128.844 43.934 128.751 43.5187C128.665 43.0962 128.525 42.7238 128.332 42.4015C128.146 42.0721 127.899 41.8142 127.591 41.6281C127.283 41.4419 126.91 41.3488 126.474 41.3488C126.037 41.3488 125.664 41.4419 125.356 41.6281C125.056 41.8142 124.809 42.0721 124.615 42.4015C124.429 42.7238 124.293 43.0962 124.207 43.5187C124.121 43.934 124.078 44.3781 124.078 44.8507ZM138.698 48.5675C139.078 48.5675 139.414 48.4959 139.708 48.3527C140.002 48.2023 140.231 47.9946 140.396 47.7296C140.567 47.4575 140.657 47.1388 140.664 46.7736H143.575C143.568 47.59 143.35 48.3169 142.92 48.9542C142.49 49.5844 141.914 50.0822 141.19 50.4474C140.467 50.8055 139.658 50.9845 138.763 50.9845C137.86 50.9845 137.073 50.8341 136.399 50.5333C135.733 50.2325 135.178 49.8172 134.734 49.2872C134.29 48.7501 133.957 48.1271 133.735 47.4181C133.513 46.7019 133.402 45.9357 133.402 45.1193V44.8077C133.402 43.9842 133.513 43.2179 133.735 42.5089C133.957 41.7928 134.29 41.1697 134.734 40.6398C135.178 40.1027 135.733 39.6837 136.399 39.3829C137.065 39.0822 137.846 38.9318 138.741 38.9318C139.694 38.9318 140.528 39.1144 141.244 39.4796C141.967 39.8448 142.533 40.3676 142.941 41.048C143.357 41.7212 143.568 42.5197 143.575 43.4435H140.664C140.657 43.0568 140.575 42.7059 140.417 42.3907C140.267 42.0756 140.045 41.825 139.751 41.6388C139.465 41.4454 139.11 41.3488 138.688 41.3488C138.236 41.3488 137.868 41.4454 137.581 41.6388C137.295 41.825 137.073 42.0828 136.915 42.4122C136.757 42.7345 136.646 43.1033 136.582 43.5187C136.525 43.9269 136.496 44.3566 136.496 44.8077V45.1193C136.496 45.5704 136.525 46.0037 136.582 46.4191C136.639 46.8344 136.747 47.2032 136.904 47.5255C137.069 47.8478 137.295 48.102 137.581 48.2882C137.868 48.4744 138.24 48.5675 138.698 48.5675ZM151.288 39.1466V50.7697H148.184V39.1466H151.288ZM155.026 39.1466V41.5421H144.499V39.1466H155.026ZM162.707 48.1486V42.9708C162.707 42.5984 162.646 42.2797 162.524 42.0148C162.403 41.7426 162.213 41.5314 161.955 41.381C161.704 41.2306 161.379 41.1554 160.978 41.1554C160.634 41.1554 160.337 41.2163 160.086 41.338C159.835 41.4526 159.642 41.6209 159.506 41.8429C159.37 42.0577 159.302 42.312 159.302 42.6056H156.208C156.208 42.1115 156.323 41.6424 156.552 41.1984C156.781 40.7544 157.114 40.3641 157.551 40.0275C157.988 39.6837 158.507 39.4152 159.108 39.2218C159.717 39.0284 160.397 38.9318 161.149 38.9318C162.052 38.9318 162.854 39.0822 163.556 39.3829C164.257 39.6837 164.809 40.1349 165.21 40.7365C165.618 41.338 165.822 42.09 165.822 42.9923V47.9659C165.822 48.6033 165.862 49.1261 165.94 49.5343C166.019 49.9353 166.134 50.2863 166.284 50.587V50.7697H163.158C163.008 50.4545 162.893 50.0607 162.814 49.588C162.743 49.1082 162.707 48.6284 162.707 48.1486ZM163.115 43.6906L163.137 45.4415H161.407C160.999 45.4415 160.645 45.4881 160.344 45.5812C160.043 45.6743 159.796 45.8068 159.603 45.9786C159.409 46.1434 159.266 46.3367 159.173 46.5587C159.087 46.7807 159.044 47.0242 159.044 47.2892C159.044 47.5542 159.105 47.7941 159.227 48.0089C159.348 48.2166 159.524 48.3813 159.753 48.5031C159.982 48.6176 160.251 48.6749 160.559 48.6749C161.024 48.6749 161.429 48.5818 161.772 48.3956C162.116 48.2094 162.381 47.9803 162.567 47.7081C162.761 47.436 162.861 47.1782 162.868 46.9347L163.685 48.2452C163.57 48.5389 163.412 48.8432 163.212 49.1583C163.019 49.4734 162.771 49.7706 162.471 50.0499C162.17 50.3221 161.808 50.5476 161.386 50.7267C160.963 50.8986 160.462 50.9845 159.882 50.9845C159.144 50.9845 158.475 50.8377 157.873 50.5441C157.279 50.2433 156.806 49.8315 156.455 49.3087C156.111 48.7788 155.939 48.1772 155.939 47.504C155.939 46.8953 156.054 46.3546 156.283 45.882C156.512 45.4093 156.849 45.0118 157.293 44.6896C157.744 44.3601 158.306 44.1131 158.979 43.9484C159.653 43.7765 160.433 43.6906 161.321 43.6906H163.115ZM173.997 45.9142H170.355L170.334 43.8839H173.342C173.743 43.8839 174.069 43.8445 174.319 43.7657C174.57 43.6798 174.753 43.5545 174.867 43.3898C174.989 43.2179 175.05 43.0102 175.05 42.7667C175.05 42.5519 175.01 42.3693 174.932 42.2189C174.86 42.0613 174.749 41.9324 174.599 41.8322C174.448 41.7319 174.258 41.6603 174.029 41.6173C173.807 41.5672 173.546 41.5421 173.245 41.5421H171.505V50.7697H168.411V39.1466H173.245C174.004 39.1466 174.685 39.2146 175.286 39.3507C175.888 39.4796 176.4 39.6766 176.822 39.9415C177.252 40.2065 177.578 40.5431 177.8 40.9513C178.029 41.3523 178.144 41.8286 178.144 42.38C178.144 42.7381 178.061 43.0747 177.896 43.3898C177.739 43.7049 177.503 43.9842 177.188 44.2277C176.872 44.4712 176.482 44.6717 176.017 44.8292C175.558 44.9796 175.028 45.0727 174.427 45.1085L173.997 45.9142ZM173.997 50.7697H169.593L170.656 48.3741H173.997C174.377 48.3741 174.688 48.3276 174.932 48.2345C175.175 48.1414 175.354 48.0053 175.469 47.8263C175.59 47.6401 175.651 47.4181 175.651 47.1603C175.651 46.9096 175.598 46.6912 175.49 46.505C175.383 46.3188 175.207 46.1756 174.964 46.0753C174.728 45.9679 174.405 45.9142 173.997 45.9142H171.107L171.129 43.8839H174.416L175.168 44.7003C175.984 44.7504 176.658 44.9044 177.188 45.1622C177.717 45.42 178.108 45.7495 178.358 46.1505C178.616 46.5444 178.745 46.9777 178.745 47.4503C178.745 48.0017 178.641 48.4851 178.434 48.9005C178.226 49.3159 177.918 49.6632 177.51 49.9425C177.109 50.2146 176.615 50.4223 176.027 50.5656C175.44 50.7016 174.763 50.7697 173.997 50.7697ZM183.944 39.1466V50.7697H180.851V39.1466H183.944ZM191.496 39.1466L186.49 46.4191H183.396L183.021 43.5616H185.072L187.575 39.1466H191.496ZM187.715 50.7697L184.857 45.8605L187.554 44.3673L191.861 50.7697H187.715ZM199.295 48.1486V42.9708C199.295 42.5984 199.234 42.2797 199.112 42.0148C198.991 41.7426 198.801 41.5314 198.543 41.381C198.292 41.2306 197.966 41.1554 197.565 41.1554C197.222 41.1554 196.924 41.2163 196.674 41.338C196.423 41.4526 196.23 41.6209 196.094 41.8429C195.958 42.0577 195.89 42.312 195.89 42.6056H192.796C192.796 42.1115 192.91 41.6424 193.14 41.1984C193.369 40.7544 193.702 40.3641 194.139 40.0275C194.576 39.6837 195.095 39.4152 195.696 39.2218C196.305 39.0284 196.985 38.9318 197.737 38.9318C198.64 38.9318 199.442 39.0822 200.144 39.3829C200.845 39.6837 201.397 40.1349 201.798 40.7365C202.206 41.338 202.41 42.09 202.41 42.9923V47.9659C202.41 48.6033 202.45 49.1261 202.528 49.5343C202.607 49.9353 202.722 50.2863 202.872 50.587V50.7697H199.746C199.596 50.4545 199.481 50.0607 199.402 49.588C199.331 49.1082 199.295 48.6284 199.295 48.1486ZM199.703 43.6906L199.725 45.4415H197.995C197.587 45.4415 197.232 45.4881 196.932 45.5812C196.631 45.6743 196.384 45.8068 196.19 45.9786C195.997 46.1434 195.854 46.3367 195.761 46.5587C195.675 46.7807 195.632 47.0242 195.632 47.2892C195.632 47.5542 195.693 47.7941 195.814 48.0089C195.936 48.2166 196.112 48.3813 196.341 48.5031C196.57 48.6176 196.839 48.6749 197.146 48.6749C197.612 48.6749 198.017 48.5818 198.36 48.3956C198.704 48.2094 198.969 47.9803 199.155 47.7081C199.349 47.436 199.449 47.1782 199.456 46.9347L200.272 48.2452C200.158 48.5389 200 48.8432 199.8 49.1583C199.606 49.4734 199.359 49.7706 199.059 50.0499C198.758 50.3221 198.396 50.5476 197.974 50.7267C197.551 50.8986 197.05 50.9845 196.47 50.9845C195.732 50.9845 195.062 50.8377 194.461 50.5441C193.867 50.2433 193.394 49.8315 193.043 49.3087C192.699 48.7788 192.527 48.1772 192.527 47.504C192.527 46.8953 192.642 46.3546 192.871 45.882C193.1 45.4093 193.437 45.0118 193.881 44.6896C194.332 44.3601 194.894 44.1131 195.567 43.9484C196.241 43.7765 197.021 43.6906 197.909 43.6906H199.703Z" fill="white"/>
</svg>
