<svg width="297" height="71" viewBox="0 0 297 71" fill="none" xmlns="http://www.w3.org/2000/svg">
<path fill-rule="evenodd" clip-rule="evenodd" d="M29.4065 4.03595C29.4071 3.37936 29.1995 2.739 28.8128 2.20451C28.4262 1.67002 27.8797 1.26813 27.25 1.05509C26.6203 0.842055 25.9387 0.828524 25.3008 1.0164C24.6629 1.20427 24.1005 1.58414 23.6923 2.10285L1.34642 30.4382C0.910501 30.9909 0.673828 31.6711 0.673828 32.3713C0.673828 33.0715 0.910501 33.7517 1.34642 34.3044L23.6923 62.6398C24.1005 63.1585 24.6629 63.5384 25.3008 63.7262C25.9387 63.9141 26.6203 63.9006 27.25 63.6875C27.8797 63.4745 28.4262 63.0726 28.8128 62.5381C29.1995 62.0036 29.4071 61.3633 29.4065 60.7067V48.1447C46.5777 48.4973 54.8266 51.7118 58.9701 55.2065C62.9094 58.528 63.6308 62.4351 64.381 66.528L64.5758 67.5827C64.719 68.3374 65.1369 69.0145 65.751 69.4865C66.365 69.9585 67.1327 70.193 67.9097 70.1458C68.6868 70.0986 69.4195 69.773 69.9702 69.2302C70.5208 68.6875 70.8514 67.965 70.8996 67.1986C71.4455 58.5469 70.6251 46.0101 64.4289 35.5228C58.4147 25.3441 47.5833 17.5173 29.4065 16.6987V4.03595Z" fill="#77BE1D"/>
<path d="M105.795 19.1394V21.6638H98.748V34.78H95.5361V19.1394H105.795ZM111.961 32.1589V26.9812C111.961 26.6088 111.9 26.2901 111.778 26.0251C111.657 25.753 111.467 25.5417 111.209 25.3914C110.958 25.241 110.632 25.1658 110.231 25.1658C109.888 25.1658 109.59 25.2266 109.34 25.3484C109.089 25.463 108.896 25.6313 108.76 25.8533C108.624 26.0681 108.556 26.3223 108.556 26.616H105.462C105.462 26.1218 105.576 25.6528 105.806 25.2087C106.035 24.7647 106.368 24.3744 106.805 24.0378C107.242 23.6941 107.761 23.4255 108.362 23.2322C108.971 23.0388 109.651 22.9421 110.403 22.9421C111.306 22.9421 112.108 23.0925 112.81 23.3933C113.511 23.6941 114.063 24.1453 114.464 24.7468C114.872 25.3484 115.076 26.1003 115.076 27.0027V31.9763C115.076 32.6137 115.116 33.1365 115.194 33.5447C115.273 33.9457 115.388 34.2966 115.538 34.5974V34.78H112.412C112.262 34.4649 112.147 34.071 112.068 33.5984C111.997 33.1186 111.961 32.6388 111.961 32.1589ZM112.369 27.7009L112.391 29.4519H110.661C110.253 29.4519 109.898 29.4985 109.598 29.5916C109.297 29.6847 109.05 29.8171 108.856 29.989C108.663 30.1537 108.52 30.3471 108.427 30.5691C108.341 30.7911 108.298 31.0346 108.298 31.2996C108.298 31.5645 108.359 31.8044 108.48 32.0193C108.602 32.227 108.778 32.3917 109.007 32.5134C109.236 32.628 109.505 32.6853 109.812 32.6853C110.278 32.6853 110.683 32.5922 111.026 32.406C111.37 32.2198 111.635 31.9906 111.821 31.7185C112.015 31.4464 112.115 31.1886 112.122 30.9451L112.938 32.2556C112.824 32.5492 112.666 32.8536 112.466 33.1687C112.272 33.4838 112.025 33.781 111.725 34.0603C111.424 34.3324 111.062 34.558 110.64 34.7371C110.217 34.9089 109.716 34.9949 109.136 34.9949C108.398 34.9949 107.729 34.8481 107.127 34.5544C106.533 34.2537 106.06 33.8419 105.709 33.3191C105.365 32.7891 105.193 32.1876 105.193 31.5144C105.193 30.9057 105.308 30.365 105.537 29.8923C105.766 29.4197 106.103 29.0222 106.547 28.7C106.998 28.3705 107.56 28.1235 108.233 27.9587C108.907 27.7869 109.687 27.7009 110.575 27.7009H112.369ZM120.555 25.3914V39.2488H117.461V23.157H120.329L120.555 25.3914ZM127.913 28.8396V29.0652C127.913 29.9102 127.813 30.6944 127.612 31.4177C127.419 32.141 127.132 32.7712 126.753 33.3083C126.373 33.8383 125.901 34.2537 125.335 34.5544C124.776 34.8481 124.132 34.9949 123.401 34.9949C122.692 34.9949 122.076 34.8516 121.554 34.5652C121.031 34.2787 120.59 33.8777 120.232 33.3621C119.882 32.8393 119.599 32.2341 119.384 31.5466C119.169 30.8591 119.004 30.1215 118.89 29.3337V28.7429C119.004 27.8979 119.169 27.1244 119.384 26.4226C119.599 25.7136 119.882 25.1013 120.232 24.5857C120.59 24.0629 121.027 23.6583 121.543 23.3718C122.066 23.0854 122.678 22.9421 123.38 22.9421C124.118 22.9421 124.766 23.0818 125.324 23.3611C125.89 23.6404 126.363 24.0414 126.742 24.5642C127.129 25.087 127.419 25.71 127.612 26.4333C127.813 27.1567 127.913 27.9587 127.913 28.8396ZM124.809 29.0652V28.8396C124.809 28.3455 124.766 27.8907 124.68 27.4753C124.601 27.0528 124.472 26.684 124.293 26.3689C124.121 26.0538 123.892 25.8103 123.605 25.6384C123.326 25.4594 122.986 25.3699 122.585 25.3699C122.162 25.3699 121.801 25.4379 121.5 25.574C121.206 25.71 120.966 25.907 120.78 26.1648C120.594 26.4226 120.454 26.7306 120.361 27.0886C120.268 27.4467 120.211 27.8513 120.189 28.3025V29.7957C120.225 30.3256 120.326 30.8018 120.49 31.2244C120.655 31.6397 120.909 31.9692 121.253 32.2126C121.597 32.4561 122.048 32.5779 122.606 32.5779C123.015 32.5779 123.358 32.4884 123.638 32.3093C123.917 32.1231 124.143 31.8689 124.314 31.5466C124.493 31.2244 124.619 30.852 124.69 30.4294C124.769 30.0069 124.809 29.5522 124.809 29.0652ZM136.109 32.1589V26.9812C136.109 26.6088 136.049 26.2901 135.927 26.0251C135.805 25.753 135.615 25.5417 135.357 25.3914C135.107 25.241 134.781 25.1658 134.38 25.1658C134.036 25.1658 133.739 25.2266 133.488 25.3484C133.238 25.463 133.044 25.6313 132.908 25.8533C132.772 26.0681 132.704 26.3223 132.704 26.616H129.61C129.61 26.1218 129.725 25.6528 129.954 25.2087C130.183 24.7647 130.516 24.3744 130.953 24.0378C131.39 23.6941 131.909 23.4255 132.511 23.2322C133.119 23.0388 133.8 22.9421 134.552 22.9421C135.454 22.9421 136.256 23.0925 136.958 23.3933C137.66 23.6941 138.211 24.1453 138.612 24.7468C139.021 25.3484 139.225 26.1003 139.225 27.0027V31.9763C139.225 32.6137 139.264 33.1365 139.343 33.5447C139.422 33.9457 139.536 34.2966 139.687 34.5974V34.78H136.561C136.41 34.4649 136.296 34.071 136.217 33.5984C136.145 33.1186 136.109 32.6388 136.109 32.1589ZM136.518 27.7009L136.539 29.4519H134.81C134.401 29.4519 134.047 29.4985 133.746 29.5916C133.445 29.6847 133.198 29.8171 133.005 29.989C132.812 30.1537 132.668 30.3471 132.575 30.5691C132.489 30.7911 132.446 31.0346 132.446 31.2996C132.446 31.5645 132.507 31.8044 132.629 32.0193C132.751 32.227 132.926 32.3917 133.155 32.5134C133.384 32.628 133.653 32.6853 133.961 32.6853C134.426 32.6853 134.831 32.5922 135.175 32.406C135.519 32.2198 135.784 31.9906 135.97 31.7185C136.163 31.4464 136.263 31.1886 136.271 30.9451L137.087 32.2556C136.972 32.5492 136.815 32.8536 136.614 33.1687C136.421 33.4838 136.174 33.781 135.873 34.0603C135.572 34.3324 135.211 34.558 134.788 34.7371C134.366 34.9089 133.864 34.9949 133.284 34.9949C132.547 34.9949 131.877 34.8481 131.275 34.5544C130.681 34.2537 130.208 33.8419 129.857 33.3191C129.514 32.7891 129.342 32.1876 129.342 31.5144C129.342 30.9057 129.456 30.365 129.686 29.8923C129.915 29.4197 130.251 29.0222 130.695 28.7C131.146 28.3705 131.709 28.1235 132.382 27.9587C133.055 27.7869 133.836 27.7009 134.724 27.7009H136.518ZM149.569 27.8513V30.2576H143.661V27.8513H149.569ZM144.692 23.157V34.78H141.599V23.157H144.692ZM151.664 23.157V34.78H148.56V23.157H151.664ZM159.989 23.157V34.78H156.885V23.157H159.989ZM163.728 23.157V25.5525H153.2V23.157H163.728ZM168.39 30.4617L172.289 23.157H175.383V34.78H172.289V27.4646L168.39 34.78H165.296V23.157H168.39V30.4617ZM180.271 28.9792H183.407L180.174 34.78H177.048L180.271 28.9792ZM182.354 23.157H187.457V34.78H184.363V25.5525H182.354C181.932 25.5525 181.581 25.6313 181.302 25.7888C181.022 25.9392 180.815 26.1361 180.679 26.3796C180.55 26.616 180.485 26.8595 180.485 27.1101C180.485 27.3536 180.55 27.5899 180.679 27.8191C180.808 28.0483 181.008 28.238 181.28 28.3884C181.552 28.5388 181.893 28.614 182.301 28.614H185.513V30.7195H182.301C181.535 30.7195 180.847 30.6264 180.238 30.4402C179.637 30.254 179.121 29.9962 178.691 29.6667C178.269 29.3302 177.943 28.9399 177.714 28.4958C177.492 28.0447 177.381 27.5505 177.381 27.0134C177.381 26.4548 177.495 25.9428 177.725 25.4773C177.954 25.0118 178.283 24.6036 178.713 24.2527C179.143 23.9018 179.662 23.6332 180.271 23.447C180.886 23.2537 181.581 23.157 182.354 23.157ZM101.122 55.9246H97.4805L97.459 53.8943H100.467C100.868 53.8943 101.194 53.8549 101.444 53.7761C101.695 53.6902 101.878 53.5649 101.992 53.4001C102.114 53.2283 102.175 53.0206 102.175 52.7771C102.175 52.5623 102.135 52.3796 102.057 52.2292C101.985 52.0717 101.874 51.9428 101.724 51.8425C101.573 51.7423 101.383 51.6707 101.154 51.6277C100.932 51.5776 100.671 51.5525 100.37 51.5525H98.6299V60.78H95.5361V49.157H100.37C101.129 49.157 101.81 49.225 102.411 49.3611C103.013 49.49 103.525 49.6869 103.947 49.9519C104.377 50.2169 104.703 50.5535 104.925 50.9617C105.154 51.3627 105.269 51.8389 105.269 52.3904C105.269 52.7485 105.186 53.085 105.021 53.4001C104.864 53.7153 104.628 53.9945 104.312 54.238C103.997 54.4815 103.607 54.682 103.142 54.8396C102.683 54.99 102.153 55.0831 101.552 55.1189L101.122 55.9246ZM101.122 60.78H96.7178L97.7812 58.3845H101.122C101.502 58.3845 101.813 58.338 102.057 58.2449C102.3 58.1518 102.479 58.0157 102.594 57.8367C102.715 57.6505 102.776 57.4285 102.776 57.1707C102.776 56.92 102.723 56.7016 102.615 56.5154C102.508 56.3292 102.332 56.186 102.089 56.0857C101.853 55.9783 101.53 55.9246 101.122 55.9246H98.2324L98.2539 53.8943H101.541L102.293 54.7107C103.109 54.7608 103.783 54.9148 104.312 55.1726C104.842 55.4304 105.233 55.7598 105.483 56.1609C105.741 56.5548 105.87 56.988 105.87 57.4607C105.87 58.0121 105.766 58.4955 105.559 58.9109C105.351 59.3263 105.043 59.6736 104.635 59.9529C104.234 60.225 103.74 60.4327 103.152 60.5759C102.565 60.712 101.888 60.78 101.122 60.78ZM107.277 55.0867V54.8611C107.277 54.0089 107.399 53.2247 107.643 52.5085C107.886 51.7852 108.241 51.1586 108.706 50.6287C109.172 50.0987 109.744 49.6869 110.425 49.3933C111.105 49.0925 111.886 48.9421 112.767 48.9421C113.647 48.9421 114.432 49.0925 115.119 49.3933C115.807 49.6869 116.383 50.0987 116.849 50.6287C117.321 51.1586 117.679 51.7852 117.923 52.5085C118.166 53.2247 118.288 54.0089 118.288 54.8611V55.0867C118.288 55.9317 118.166 56.7159 117.923 57.4392C117.679 58.1554 117.321 58.782 116.849 59.3191C116.383 59.849 115.81 60.2608 115.13 60.5544C114.45 60.8481 113.669 60.9949 112.788 60.9949C111.907 60.9949 111.123 60.8481 110.436 60.5544C109.755 60.2608 109.179 59.849 108.706 59.3191C108.241 58.782 107.886 58.1554 107.643 57.4392C107.399 56.7159 107.277 55.9317 107.277 55.0867ZM110.371 54.8611V55.0867C110.371 55.5736 110.414 56.0284 110.5 56.4509C110.586 56.8735 110.722 57.2458 110.908 57.5681C111.102 57.8832 111.352 58.1303 111.66 58.3093C111.968 58.4884 112.344 58.5779 112.788 58.5779C113.218 58.5779 113.587 58.4884 113.895 58.3093C114.202 58.1303 114.45 57.8832 114.636 57.5681C114.822 57.2458 114.958 56.8735 115.044 56.4509C115.137 56.0284 115.184 55.5736 115.184 55.0867V54.8611C115.184 54.3884 115.137 53.9444 115.044 53.5291C114.958 53.1065 114.818 52.7341 114.625 52.4119C114.439 52.0824 114.192 51.8246 113.884 51.6384C113.576 51.4522 113.203 51.3591 112.767 51.3591C112.33 51.3591 111.957 51.4522 111.649 51.6384C111.349 51.8246 111.102 52.0824 110.908 52.4119C110.722 52.7341 110.586 53.1065 110.5 53.5291C110.414 53.9444 110.371 54.3884 110.371 54.8611ZM125.367 55.2371H123.068V53.8513H124.712C125.099 53.8513 125.407 53.7976 125.636 53.6902C125.872 53.5828 126.04 53.4324 126.141 53.239C126.248 53.0385 126.302 52.8129 126.302 52.5623C126.302 52.3403 126.255 52.129 126.162 51.9285C126.076 51.7208 125.919 51.5525 125.689 51.4236C125.467 51.2875 125.152 51.2195 124.744 51.2195C124.408 51.2195 124.107 51.2696 123.842 51.3699C123.584 51.4701 123.38 51.6169 123.229 51.8103C123.086 51.9965 123.015 52.2221 123.015 52.4871H119.91C119.91 51.7494 120.121 51.1192 120.544 50.5964C120.966 50.0665 121.532 49.6619 122.241 49.3826C122.95 49.0961 123.727 48.9529 124.572 48.9529C125.31 48.9529 125.976 49.0281 126.57 49.1785C127.165 49.3217 127.673 49.5365 128.096 49.823C128.518 50.1095 128.84 50.4639 129.062 50.8865C129.292 51.3018 129.406 51.7852 129.406 52.3367C129.406 52.7306 129.313 53.1029 129.127 53.4539C128.941 53.8048 128.672 54.1163 128.321 54.3884C127.97 54.6534 127.544 54.8611 127.043 55.0115C126.549 55.1619 125.99 55.2371 125.367 55.2371ZM123.068 54.4636H125.367C126.062 54.4636 126.671 54.5317 127.193 54.6677C127.723 54.7966 128.167 54.99 128.525 55.2478C128.883 55.5056 129.152 55.8243 129.331 56.2039C129.517 56.5763 129.61 57.0059 129.61 57.4929C129.61 58.0444 129.489 58.5385 129.245 58.9753C129.002 59.405 128.654 59.7703 128.203 60.071C127.752 60.3718 127.218 60.601 126.603 60.7585C125.987 60.9161 125.31 60.9949 124.572 60.9949C123.785 60.9949 123.018 60.866 122.273 60.6082C121.529 60.3503 120.916 59.9529 120.437 59.4158C119.964 58.8787 119.728 58.1876 119.728 57.3425H122.832C122.832 57.586 122.904 57.8152 123.047 58.03C123.19 58.2449 123.405 58.4167 123.691 58.5457C123.978 58.6674 124.332 58.7283 124.755 58.7283C125.177 58.7283 125.518 58.6602 125.775 58.5242C126.033 58.3881 126.219 58.2091 126.334 57.9871C126.456 57.7579 126.517 57.5216 126.517 57.2781C126.517 56.9343 126.449 56.655 126.312 56.4402C126.184 56.2253 125.983 56.0678 125.711 55.9675C125.446 55.8673 125.113 55.8171 124.712 55.8171H123.068V54.4636ZM137.302 55.9246H133.66L133.639 53.8943H136.646C137.048 53.8943 137.373 53.8549 137.624 53.7761C137.875 53.6902 138.057 53.5649 138.172 53.4001C138.294 53.2283 138.354 53.0206 138.354 52.7771C138.354 52.5623 138.315 52.3796 138.236 52.2292C138.165 52.0717 138.054 51.9428 137.903 51.8425C137.753 51.7423 137.563 51.6707 137.334 51.6277C137.112 51.5776 136.851 51.5525 136.55 51.5525H134.81V60.78H131.716V49.157H136.55C137.309 49.157 137.989 49.225 138.591 49.3611C139.192 49.49 139.704 49.6869 140.127 49.9519C140.557 50.2169 140.882 50.5535 141.104 50.9617C141.334 51.3627 141.448 51.8389 141.448 52.3904C141.448 52.7485 141.366 53.085 141.201 53.4001C141.044 53.7153 140.807 53.9945 140.492 54.238C140.177 54.4815 139.787 54.682 139.321 54.8396C138.863 54.99 138.333 55.0831 137.731 55.1189L137.302 55.9246ZM137.302 60.78H132.897L133.961 58.3845H137.302C137.681 58.3845 137.993 58.338 138.236 58.2449C138.48 58.1518 138.659 58.0157 138.773 57.8367C138.895 57.6505 138.956 57.4285 138.956 57.1707C138.956 56.92 138.902 56.7016 138.795 56.5154C138.688 56.3292 138.512 56.186 138.269 56.0857C138.032 55.9783 137.71 55.9246 137.302 55.9246H134.412L134.434 53.8943H137.721L138.473 54.7107C139.289 54.7608 139.962 54.9148 140.492 55.1726C141.022 55.4304 141.412 55.7598 141.663 56.1609C141.921 56.5548 142.05 56.988 142.05 57.4607C142.05 58.0121 141.946 58.4955 141.738 58.9109C141.531 59.3263 141.223 59.6736 140.814 59.9529C140.413 60.225 139.919 60.4327 139.332 60.5759C138.745 60.712 138.068 60.78 137.302 60.78ZM147.045 51.3914V65.2488H143.951V49.157H146.819L147.045 51.3914ZM154.403 54.8396V55.0652C154.403 55.9102 154.303 56.6944 154.103 57.4177C153.909 58.141 153.623 58.7712 153.243 59.3083C152.864 59.8383 152.391 60.2537 151.825 60.5544C151.267 60.8481 150.622 60.9949 149.892 60.9949C149.183 60.9949 148.567 60.8516 148.044 60.5652C147.521 60.2787 147.081 59.8777 146.723 59.3621C146.372 58.8393 146.089 58.2341 145.874 57.5466C145.659 56.8591 145.494 56.1215 145.38 55.3337V54.7429C145.494 53.8979 145.659 53.1244 145.874 52.4226C146.089 51.7136 146.372 51.1013 146.723 50.5857C147.081 50.0629 147.518 49.6583 148.033 49.3718C148.556 49.0854 149.168 48.9421 149.87 48.9421C150.608 48.9421 151.256 49.0818 151.814 49.3611C152.38 49.6404 152.853 50.0414 153.232 50.5642C153.619 51.087 153.909 51.71 154.103 52.4333C154.303 53.1567 154.403 53.9587 154.403 54.8396ZM151.299 55.0652V54.8396C151.299 54.3455 151.256 53.8907 151.17 53.4753C151.091 53.0528 150.962 52.684 150.783 52.3689C150.611 52.0538 150.382 51.8103 150.096 51.6384C149.816 51.4594 149.476 51.3699 149.075 51.3699C148.653 51.3699 148.291 51.4379 147.99 51.574C147.697 51.71 147.457 51.907 147.271 52.1648C147.084 52.4226 146.945 52.7306 146.852 53.0886C146.758 53.4467 146.701 53.8513 146.68 54.3025V55.7957C146.715 56.3256 146.816 56.8018 146.98 57.2244C147.145 57.6397 147.399 57.9692 147.743 58.2126C148.087 58.4561 148.538 58.5779 149.097 58.5779C149.505 58.5779 149.849 58.4884 150.128 58.3093C150.407 58.1231 150.633 57.8689 150.805 57.5466C150.984 57.2244 151.109 56.852 151.181 56.4294C151.259 56.0069 151.299 55.5522 151.299 55.0652ZM162.6 58.1589V52.9812C162.6 52.6088 162.539 52.2901 162.417 52.0251C162.295 51.753 162.105 51.5417 161.848 51.3914C161.597 51.241 161.271 51.1658 160.87 51.1658C160.526 51.1658 160.229 51.2266 159.979 51.3484C159.728 51.463 159.535 51.6313 159.398 51.8533C159.262 52.0681 159.194 52.3223 159.194 52.616H156.101C156.101 52.1218 156.215 51.6528 156.444 51.2087C156.674 50.7647 157.007 50.3744 157.443 50.0378C157.88 49.6941 158.399 49.4255 159.001 49.2322C159.61 49.0388 160.29 48.9421 161.042 48.9421C161.944 48.9421 162.746 49.0925 163.448 49.3933C164.15 49.6941 164.701 50.1453 165.103 50.7468C165.511 51.3484 165.715 52.1003 165.715 53.0027V57.9763C165.715 58.6137 165.754 59.1365 165.833 59.5447C165.912 59.9457 166.026 60.2966 166.177 60.5974V60.78H163.051C162.9 60.4649 162.786 60.071 162.707 59.5984C162.635 59.1186 162.6 58.6388 162.6 58.1589ZM163.008 53.7009L163.029 55.4519H161.3C160.892 55.4519 160.537 55.4985 160.236 55.5916C159.936 55.6847 159.688 55.8171 159.495 55.989C159.302 56.1537 159.159 56.3471 159.065 56.5691C158.979 56.7911 158.937 57.0346 158.937 57.2996C158.937 57.5645 158.997 57.8044 159.119 58.0193C159.241 58.227 159.416 58.3917 159.646 58.5134C159.875 58.628 160.143 58.6853 160.451 58.6853C160.917 58.6853 161.321 58.5922 161.665 58.406C162.009 58.2198 162.274 57.9906 162.46 57.7185C162.653 57.4464 162.754 57.1886 162.761 56.9451L163.577 58.2556C163.463 58.5492 163.305 58.8536 163.104 59.1687C162.911 59.4838 162.664 59.781 162.363 60.0603C162.062 60.3324 161.701 60.558 161.278 60.7371C160.856 60.9089 160.354 60.9949 159.774 60.9949C159.037 60.9949 158.367 60.8481 157.766 60.5544C157.171 60.2537 156.699 59.8419 156.348 59.3191C156.004 58.7891 155.832 58.1876 155.832 57.5144C155.832 56.9057 155.947 56.365 156.176 55.8923C156.405 55.4197 156.742 55.0222 157.186 54.7C157.637 54.3705 158.199 54.1235 158.872 53.9587C159.545 53.7869 160.326 53.7009 161.214 53.7009H163.008ZM173.847 49.157V60.78H170.742V49.157H173.847ZM177.585 49.157V51.5525H167.058V49.157H177.585ZM185.266 58.1589V52.9812C185.266 52.6088 185.205 52.2901 185.083 52.0251C184.961 51.753 184.771 51.5417 184.514 51.3914C184.263 51.241 183.937 51.1658 183.536 51.1658C183.192 51.1658 182.895 51.2266 182.645 51.3484C182.394 51.463 182.201 51.6313 182.064 51.8533C181.928 52.0681 181.86 52.3223 181.86 52.616H178.767C178.767 52.1218 178.881 51.6528 179.11 51.2087C179.34 50.7647 179.673 50.3744 180.109 50.0378C180.546 49.6941 181.065 49.4255 181.667 49.2322C182.276 49.0388 182.956 48.9421 183.708 48.9421C184.61 48.9421 185.412 49.0925 186.114 49.3933C186.816 49.6941 187.368 50.1453 187.769 50.7468C188.177 51.3484 188.381 52.1003 188.381 53.0027V57.9763C188.381 58.6137 188.42 59.1365 188.499 59.5447C188.578 59.9457 188.692 60.2966 188.843 60.5974V60.78H185.717C185.566 60.4649 185.452 60.071 185.373 59.5984C185.301 59.1186 185.266 58.6388 185.266 58.1589ZM185.674 53.7009L185.695 55.4519H183.966C183.558 55.4519 183.203 55.4985 182.902 55.5916C182.602 55.6847 182.354 55.8171 182.161 55.989C181.968 56.1537 181.825 56.3471 181.731 56.5691C181.646 56.7911 181.603 57.0346 181.603 57.2996C181.603 57.5645 181.663 57.8044 181.785 58.0193C181.907 58.227 182.082 58.3917 182.312 58.5134C182.541 58.628 182.809 58.6853 183.117 58.6853C183.583 58.6853 183.987 58.5922 184.331 58.406C184.675 58.2198 184.94 57.9906 185.126 57.7185C185.319 57.4464 185.42 57.1886 185.427 56.9451L186.243 58.2556C186.129 58.5492 185.971 58.8536 185.771 59.1687C185.577 59.4838 185.33 59.781 185.029 60.0603C184.729 60.3324 184.367 60.558 183.944 60.7371C183.522 60.9089 183.021 60.9949 182.44 60.9949C181.703 60.9949 181.033 60.8481 180.432 60.5544C179.837 60.2537 179.365 59.8419 179.014 59.3191C178.67 58.7891 178.498 58.1876 178.498 57.5144C178.498 56.9057 178.613 56.365 178.842 55.8923C179.071 55.4197 179.408 55.0222 179.852 54.7C180.303 54.3705 180.865 54.1235 181.538 53.9587C182.211 53.7869 182.992 53.7009 183.88 53.7009H185.674ZM198.339 49.157H201.433L201.336 53.0457C201.307 54.2917 201.164 55.3624 200.906 56.2576C200.648 57.1528 200.305 57.9047 199.875 58.5134C199.445 59.1222 198.955 59.6091 198.403 59.9744C197.859 60.3324 197.286 60.601 196.685 60.78H196.104L196.072 58.3953L196.395 58.363C196.76 57.9835 197.061 57.6147 197.297 57.2566C197.533 56.8914 197.716 56.5082 197.845 56.1072C197.974 55.7061 198.067 55.2585 198.124 54.7644C198.188 54.2703 198.228 53.6973 198.242 53.0457L198.339 49.157ZM199.177 49.157H206.879V60.78H203.796V51.6384H199.177V49.157ZM195.396 58.363H208.544V64.2712H205.45V60.78H198.564V64.2712H195.396V58.363ZM215.473 60.9949C214.57 60.9949 213.761 60.8516 213.045 60.5652C212.329 60.2716 211.72 59.8669 211.219 59.3513C210.725 58.8357 210.345 58.2377 210.08 57.5574C209.815 56.8699 209.683 56.1394 209.683 55.366V54.9363C209.683 54.0554 209.808 53.2498 210.059 52.5193C210.309 51.7888 210.667 51.155 211.133 50.6179C211.605 50.0808 212.178 49.669 212.852 49.3826C213.525 49.0889 214.284 48.9421 215.129 48.9421C215.952 48.9421 216.683 49.0782 217.32 49.3503C217.958 49.6225 218.491 50.0092 218.921 50.5105C219.358 51.0118 219.687 51.6134 219.909 52.3152C220.131 53.0098 220.242 53.7833 220.242 54.6355V55.9246H211.004V53.8621H217.202V53.6257C217.202 53.196 217.123 52.8129 216.966 52.4763C216.815 52.1326 216.586 51.8604 216.278 51.6599C215.97 51.4594 215.576 51.3591 215.097 51.3591C214.688 51.3591 214.338 51.4486 214.044 51.6277C213.75 51.8067 213.51 52.0574 213.324 52.3796C213.145 52.7019 213.009 53.0815 212.916 53.5183C212.83 53.948 212.787 54.4207 212.787 54.9363V55.366C212.787 55.8315 212.852 56.2611 212.98 56.655C213.117 57.0489 213.306 57.3891 213.55 57.6755C213.8 57.962 214.101 58.184 214.452 58.3416C214.81 58.4991 215.215 58.5779 215.666 58.5779C216.225 58.5779 216.744 58.4705 217.224 58.2556C217.711 58.0336 218.13 57.7006 218.48 57.2566L219.984 58.8894C219.741 59.2403 219.408 59.5769 218.985 59.8992C218.57 60.2214 218.069 60.4864 217.481 60.6941C216.894 60.8946 216.225 60.9949 215.473 60.9949ZM229.964 53.8513V56.2576H224.056V53.8513H229.964ZM225.087 49.157V60.78H221.993V49.157H225.087ZM232.059 49.157V60.78H228.954V49.157H232.059ZM239.814 60.9949C238.912 60.9949 238.103 60.8516 237.387 60.5652C236.671 60.2716 236.062 59.8669 235.561 59.3513C235.066 58.8357 234.687 58.2377 234.422 57.5574C234.157 56.8699 234.024 56.1394 234.024 55.366V54.9363C234.024 54.0554 234.15 53.2498 234.4 52.5193C234.651 51.7888 235.009 51.155 235.475 50.6179C235.947 50.0808 236.52 49.669 237.193 49.3826C237.867 49.0889 238.626 48.9421 239.471 48.9421C240.294 48.9421 241.025 49.0782 241.662 49.3503C242.299 49.6225 242.833 50.0092 243.263 50.5105C243.7 51.0118 244.029 51.6134 244.251 52.3152C244.473 53.0098 244.584 53.7833 244.584 54.6355V55.9246H235.346V53.8621H241.544V53.6257C241.544 53.196 241.465 52.8129 241.308 52.4763C241.157 52.1326 240.928 51.8604 240.62 51.6599C240.312 51.4594 239.918 51.3591 239.438 51.3591C239.03 51.3591 238.679 51.4486 238.386 51.6277C238.092 51.8067 237.852 52.0574 237.666 52.3796C237.487 52.7019 237.351 53.0815 237.258 53.5183C237.172 53.948 237.129 54.4207 237.129 54.9363V55.366C237.129 55.8315 237.193 56.2611 237.322 56.655C237.458 57.0489 237.648 57.3891 237.892 57.6755C238.142 57.962 238.443 58.184 238.794 58.3416C239.152 58.4991 239.557 58.5779 240.008 58.5779C240.566 58.5779 241.086 58.4705 241.565 58.2556C242.052 58.0336 242.471 57.7006 242.822 57.2566L244.326 58.8894C244.083 59.2403 243.75 59.5769 243.327 59.8992C242.912 60.2214 242.41 60.4864 241.823 60.6941C241.236 60.8946 240.566 60.9949 239.814 60.9949ZM254.252 49.157V51.5847H249.418V60.78H246.324V49.157H254.252Z" fill="white"/>
</svg>
