<svg width="266" height="71" viewBox="0 0 266 71" fill="none" xmlns="http://www.w3.org/2000/svg">
<path d="M40.7847 0.884766V18.2015C40.7847 20.1698 41.5733 22.0575 42.977 23.4493C44.3807 24.8411 46.2845 25.623 48.2696 25.623H65.7343V62.7303C65.7343 64.6986 64.9458 66.5863 63.5421 67.9781C62.1384 69.3699 60.2346 70.1518 58.2494 70.1518H39.1031C44.4137 66.4586 48.2333 61.0197 49.8845 54.7999C51.5356 48.5801 50.9115 41.9815 48.1228 36.1745C45.3342 30.3676 40.5613 25.7277 34.6507 23.0779C28.7402 20.4282 22.0741 19.9398 15.835 21.6995V8.30623C15.835 6.33794 16.6236 4.45026 18.0273 3.05846C19.431 1.66667 21.3348 0.884766 23.3199 0.884766H40.7847ZM45.7746 2.12168V18.2015C45.7746 18.8576 46.0375 19.4868 46.5054 19.9508C46.9733 20.4147 47.6079 20.6753 48.2696 20.6753H64.4869L45.7746 2.12168ZM45.7746 47.8874C45.7746 53.7923 43.4089 59.4553 39.1978 63.6307C34.9867 67.8061 29.2753 70.1518 23.3199 70.1518C17.3646 70.1518 11.6531 67.8061 7.44206 63.6307C3.23099 59.4553 0.865234 53.7923 0.865234 47.8874C0.865234 41.9825 3.23099 36.3195 7.44206 32.1441C11.6531 27.9687 17.3646 25.623 23.3199 25.623C29.2753 25.623 34.9867 27.9687 39.1978 32.1441C43.4089 36.3195 45.7746 41.9825 45.7746 47.8874ZM25.8149 37.9921C25.8149 37.336 25.552 36.7068 25.0841 36.2428C24.6162 35.7789 23.9816 35.5183 23.3199 35.5183C22.6582 35.5183 22.0236 35.7789 21.5557 36.2428C21.0878 36.7068 20.825 37.336 20.825 37.9921V45.4136H13.3401C12.6784 45.4136 12.0438 45.6742 11.5759 46.1381C11.108 46.6021 10.8451 47.2313 10.8451 47.8874C10.8451 48.5435 11.108 49.1727 11.5759 49.6366C12.0438 50.1006 12.6784 50.3612 13.3401 50.3612H20.825V57.7827C20.825 58.4388 21.0878 59.068 21.5557 59.5319C22.0236 59.9959 22.6582 60.2565 23.3199 60.2565C23.9816 60.2565 24.6162 59.9959 25.0841 59.5319C25.552 59.068 25.8149 58.4388 25.8149 57.7827V50.3612H33.2998C33.9615 50.3612 34.5961 50.1006 35.064 49.6366C35.5319 49.1727 35.7948 48.5435 35.7948 47.8874C35.7948 47.2313 35.5319 46.6021 35.064 46.1381C34.5961 45.6742 33.9615 45.4136 33.2998 45.4136H25.8149V37.9921Z" fill="#77BE1D"/>
<path d="M94.8887 29.5916H98.1006C98.0361 30.6443 97.7461 31.5789 97.2305 32.3953C96.722 33.2117 96.0094 33.849 95.0928 34.3074C94.1833 34.7657 93.0876 34.9949 91.8057 34.9949C90.8031 34.9949 89.9043 34.823 89.1094 34.4792C88.3145 34.1283 87.6341 33.627 87.0684 32.9753C86.5098 32.3236 86.0837 31.5359 85.79 30.6121C85.4964 29.6882 85.3496 28.6534 85.3496 27.5076V26.4226C85.3496 25.2768 85.5 24.2419 85.8008 23.3181C86.1087 22.3871 86.5456 21.5958 87.1113 20.9441C87.6842 20.2924 88.3682 19.7911 89.1631 19.4402C89.958 19.0893 90.846 18.9138 91.8271 18.9138C93.1305 18.9138 94.2298 19.1501 95.125 19.6228C96.0273 20.0955 96.7256 20.7472 97.2197 21.5779C97.721 22.4086 98.0218 23.3539 98.1221 24.4138H94.8994C94.8636 23.7836 94.7383 23.2501 94.5234 22.8132C94.3086 22.3692 93.9827 22.0362 93.5459 21.8142C93.1162 21.585 92.5433 21.4705 91.8271 21.4705C91.29 21.4705 90.821 21.5707 90.4199 21.7712C90.0189 21.9718 89.6823 22.2761 89.4102 22.6843C89.138 23.0925 88.9339 23.6082 88.7979 24.2312C88.6689 24.8471 88.6045 25.5704 88.6045 26.4011V27.5076C88.6045 28.3168 88.6654 29.0294 88.7871 29.6453C88.9089 30.254 89.0951 30.7696 89.3457 31.1921C89.6035 31.6075 89.9329 31.9226 90.334 32.1375C90.7422 32.3451 91.2327 32.449 91.8057 32.449C92.4788 32.449 93.0339 32.3416 93.4707 32.1267C93.9076 31.9119 94.2406 31.5932 94.4697 31.1707C94.7061 30.7481 94.8457 30.2218 94.8887 29.5916ZM105.373 34.9949C104.471 34.9949 103.661 34.8516 102.945 34.5652C102.229 34.2716 101.62 33.8669 101.119 33.3513C100.625 32.8357 100.245 32.2377 99.9805 31.5574C99.7155 30.8699 99.583 30.1394 99.583 29.366V28.9363C99.583 28.0554 99.7083 27.2498 99.959 26.5193C100.21 25.7888 100.568 25.155 101.033 24.6179C101.506 24.0808 102.079 23.669 102.752 23.3826C103.425 23.0889 104.184 22.9421 105.029 22.9421C105.853 22.9421 106.583 23.0782 107.221 23.3503C107.858 23.6225 108.392 24.0092 108.821 24.5105C109.258 25.0118 109.588 25.6134 109.81 26.3152C110.032 27.0098 110.143 27.7833 110.143 28.6355V29.9246H100.904V27.8621H107.103V27.6257C107.103 27.196 107.024 26.8129 106.866 26.4763C106.716 26.1326 106.487 25.8604 106.179 25.6599C105.871 25.4594 105.477 25.3591 104.997 25.3591C104.589 25.3591 104.238 25.4486 103.944 25.6277C103.651 25.8067 103.411 26.0574 103.225 26.3796C103.046 26.7019 102.91 27.0815 102.816 27.5183C102.73 27.948 102.688 28.4207 102.688 28.9363V29.366C102.688 29.8315 102.752 30.2611 102.881 30.655C103.017 31.0489 103.207 31.3891 103.45 31.6755C103.701 31.962 104.002 32.184 104.353 32.3416C104.711 32.4991 105.115 32.5779 105.566 32.5779C106.125 32.5779 106.644 32.4705 107.124 32.2556C107.611 32.0336 108.03 31.7006 108.381 31.2566L109.885 32.8894C109.641 33.2403 109.308 33.5769 108.886 33.8992C108.47 34.2214 107.969 34.4864 107.382 34.6941C106.795 34.8946 106.125 34.9949 105.373 34.9949ZM114.998 25.3914V39.2488H111.904V23.157H114.772L114.998 25.3914ZM122.356 28.8396V29.0652C122.356 29.9102 122.256 30.6944 122.056 31.4177C121.862 32.141 121.576 32.7712 121.196 33.3083C120.817 33.8383 120.344 34.2537 119.778 34.5544C119.22 34.8481 118.575 34.9949 117.845 34.9949C117.136 34.9949 116.52 34.8516 115.997 34.5652C115.474 34.2787 115.034 33.8777 114.676 33.3621C114.325 32.8393 114.042 32.2341 113.827 31.5466C113.612 30.8591 113.448 30.1215 113.333 29.3337V28.7429C113.448 27.8979 113.612 27.1244 113.827 26.4226C114.042 25.7136 114.325 25.1013 114.676 24.5857C115.034 24.0629 115.471 23.6583 115.986 23.3718C116.509 23.0854 117.121 22.9421 117.823 22.9421C118.561 22.9421 119.209 23.0818 119.768 23.3611C120.333 23.6404 120.806 24.0414 121.186 24.5642C121.572 25.087 121.862 25.71 122.056 26.4333C122.256 27.1567 122.356 27.9587 122.356 28.8396ZM119.252 29.0652V28.8396C119.252 28.3455 119.209 27.8907 119.123 27.4753C119.044 27.0528 118.915 26.684 118.736 26.3689C118.564 26.0538 118.335 25.8103 118.049 25.6384C117.77 25.4594 117.429 25.3699 117.028 25.3699C116.606 25.3699 116.244 25.4379 115.943 25.574C115.65 25.71 115.41 25.907 115.224 26.1648C115.037 26.4226 114.898 26.7306 114.805 27.0886C114.712 27.4467 114.654 27.8513 114.633 28.3025V29.7957C114.669 30.3256 114.769 30.8018 114.934 31.2244C115.098 31.6397 115.353 31.9692 115.696 32.2126C116.04 32.4561 116.491 32.5779 117.05 32.5779C117.458 32.5779 117.802 32.4884 118.081 32.3093C118.36 32.1231 118.586 31.8689 118.758 31.5466C118.937 31.2244 119.062 30.852 119.134 30.4294C119.213 30.0069 119.252 29.5522 119.252 29.0652ZM129.618 23.157V34.78H126.514V23.157H129.618ZM133.356 23.157V25.5525H122.829V23.157H133.356ZM138.019 30.4617L141.918 23.157H145.012V34.78H141.918V27.4646L138.019 34.78H134.925V23.157H138.019V30.4617ZM161.544 29.0437V29.2693C161.544 30.1072 161.451 30.877 161.265 31.5789C161.086 32.2735 160.813 32.8787 160.448 33.3943C160.083 33.9028 159.635 34.2966 159.105 34.5759C158.576 34.8552 157.963 34.9949 157.269 34.9949C156.624 34.9949 156.065 34.8731 155.593 34.6296C155.127 34.379 154.733 34.0317 154.411 33.5876C154.096 33.1365 153.838 32.6137 153.638 32.0193C153.444 31.4177 153.301 30.7696 153.208 30.075V28.2166C153.301 27.4718 153.444 26.7807 153.638 26.1433C153.831 25.4988 154.085 24.9366 154.4 24.4568C154.723 23.977 155.117 23.6046 155.582 23.3396C156.048 23.0746 156.603 22.9421 157.247 22.9421C157.806 22.9421 158.311 23.0388 158.762 23.2322C159.22 23.4255 159.621 23.7013 159.965 24.0593C160.316 24.4174 160.606 24.8507 160.835 25.3591C161.071 25.8604 161.247 26.4226 161.361 27.0457C161.483 27.6687 161.544 28.3347 161.544 29.0437ZM158.439 29.2693V29.0437C158.439 28.6427 158.414 28.2595 158.364 27.8943C158.321 27.5219 158.25 27.1817 158.149 26.8738C158.056 26.5658 157.931 26.3009 157.773 26.0789C157.616 25.8497 157.426 25.6742 157.204 25.5525C156.982 25.4236 156.728 25.3591 156.441 25.3591C155.94 25.3591 155.528 25.4594 155.206 25.6599C154.891 25.8533 154.655 26.1326 154.497 26.4978C154.347 26.8559 154.261 27.2784 154.239 27.7654V30.5369C154.268 30.9522 154.357 31.3139 154.508 31.6218C154.665 31.9226 154.902 32.1589 155.217 32.3308C155.539 32.4955 155.954 32.5779 156.463 32.5779C156.828 32.5779 157.136 32.4955 157.387 32.3308C157.645 32.1661 157.849 31.9333 157.999 31.6326C158.157 31.3318 158.268 30.9845 158.332 30.5906C158.404 30.1895 158.439 29.7491 158.439 29.2693ZM146.924 29.2693V29.0437C146.924 28.3347 146.985 27.6687 147.106 27.0457C147.228 26.4226 147.404 25.8604 147.633 25.3591C147.869 24.8507 148.159 24.4174 148.503 24.0593C148.847 23.7013 149.244 23.4255 149.695 23.2322C150.154 23.0388 150.662 22.9421 151.221 22.9421C151.858 22.9421 152.41 23.0746 152.875 23.3396C153.34 23.6046 153.731 23.977 154.046 24.4568C154.361 24.9366 154.615 25.4988 154.809 26.1433C155.002 26.7807 155.149 27.4718 155.249 28.2166V29.989C155.149 30.7052 155.002 31.3676 154.809 31.9763C154.615 32.5779 154.357 33.1078 154.035 33.5662C153.72 34.0173 153.33 34.3682 152.864 34.6189C152.399 34.8695 151.844 34.9949 151.199 34.9949C150.512 34.9949 149.899 34.8552 149.362 34.5759C148.832 34.2966 148.385 33.9028 148.02 33.3943C147.661 32.8787 147.389 32.2735 147.203 31.5789C147.017 30.877 146.924 30.1072 146.924 29.2693ZM150.018 29.0437V29.2693C150.018 29.7491 150.05 30.1895 150.114 30.5906C150.186 30.9845 150.297 31.3318 150.447 31.6326C150.605 31.9262 150.809 32.1554 151.06 32.3201C151.31 32.4848 151.618 32.5671 151.983 32.5671C152.499 32.5671 152.914 32.4812 153.229 32.3093C153.552 32.1375 153.792 31.894 153.949 31.5789C154.107 31.2638 154.193 30.8878 154.207 30.4509V27.7654C154.193 27.2784 154.107 26.8559 153.949 26.4978C153.799 26.1326 153.566 25.8533 153.251 25.6599C152.936 25.4594 152.521 25.3591 152.005 25.3591C151.64 25.3591 151.328 25.4558 151.07 25.6492C150.82 25.8425 150.616 26.1075 150.458 26.4441C150.308 26.7807 150.197 27.1746 150.125 27.6257C150.053 28.0697 150.018 28.5424 150.018 29.0437ZM152.66 39.2488V18.28H155.765V39.2488H152.66ZM166.571 30.4617L170.471 23.157H173.564V34.78H170.471V27.4646L166.571 34.78H163.478V23.157H166.571V30.4617ZM179.247 23.157V34.78H176.153V23.157H179.247ZM186.799 23.157L181.793 30.4294H178.699L178.323 27.572H180.375L182.878 23.157H186.799ZM183.018 34.78L180.16 29.8708L182.856 28.3777L187.164 34.78H183.018ZM194.598 32.1589V26.9812C194.598 26.6088 194.537 26.2901 194.415 26.0251C194.293 25.753 194.104 25.5417 193.846 25.3914C193.595 25.241 193.269 25.1658 192.868 25.1658C192.524 25.1658 192.227 25.2266 191.977 25.3484C191.726 25.463 191.533 25.6313 191.396 25.8533C191.26 26.0681 191.192 26.3223 191.192 26.616H188.099C188.099 26.1218 188.213 25.6528 188.442 25.2087C188.672 24.7647 189.005 24.3744 189.441 24.0378C189.878 23.6941 190.397 23.4255 190.999 23.2322C191.608 23.0388 192.288 22.9421 193.04 22.9421C193.942 22.9421 194.744 23.0925 195.446 23.3933C196.148 23.6941 196.7 24.1453 197.101 24.7468C197.509 25.3484 197.713 26.1003 197.713 27.0027V31.9763C197.713 32.6137 197.752 33.1365 197.831 33.5447C197.91 33.9457 198.024 34.2966 198.175 34.5974V34.78H195.049C194.898 34.4649 194.784 34.071 194.705 33.5984C194.633 33.1186 194.598 32.6388 194.598 32.1589ZM195.006 27.7009L195.027 29.4519H193.298C192.89 29.4519 192.535 29.4985 192.234 29.5916C191.934 29.6847 191.687 29.8171 191.493 29.989C191.3 30.1537 191.157 30.3471 191.063 30.5691C190.978 30.7911 190.935 31.0346 190.935 31.2996C190.935 31.5645 190.995 31.8044 191.117 32.0193C191.239 32.227 191.414 32.3917 191.644 32.5134C191.873 32.628 192.141 32.6853 192.449 32.6853C192.915 32.6853 193.319 32.5922 193.663 32.406C194.007 32.2198 194.272 31.9906 194.458 31.7185C194.651 31.4464 194.752 31.1886 194.759 30.9451L195.575 32.2556C195.461 32.5492 195.303 32.8536 195.103 33.1687C194.909 33.4838 194.662 33.781 194.361 34.0603C194.061 34.3324 193.699 34.558 193.276 34.7371C192.854 34.9089 192.353 34.9949 191.772 34.9949C191.035 34.9949 190.365 34.8481 189.764 34.5544C189.169 34.2537 188.697 33.8419 188.346 33.3191C188.002 32.7891 187.83 32.1876 187.83 31.5144C187.83 30.9057 187.945 30.365 188.174 29.8923C188.403 29.4197 188.74 29.0222 189.184 28.7C189.635 28.3705 190.197 28.1235 190.87 27.9587C191.543 27.7869 192.324 27.7009 193.212 27.7009H195.006ZM205.845 23.157V34.78H202.74V23.157H205.845ZM209.583 23.157V25.5525H199.056V23.157H209.583ZM213.3 26.6052H216.673C217.733 26.6052 218.635 26.7807 219.38 27.1316C220.132 27.4753 220.705 27.9552 221.099 28.571C221.5 29.1869 221.7 29.8995 221.7 30.7087C221.7 31.296 221.586 31.8403 221.356 32.3416C221.134 32.8357 220.809 33.2654 220.379 33.6306C219.949 33.9958 219.423 34.2787 218.8 34.4792C218.177 34.6798 217.468 34.78 216.673 34.78H211.366V23.157H214.471V32.3738H216.673C217.138 32.3738 217.511 32.2986 217.79 32.1482C218.076 31.9906 218.284 31.7865 218.413 31.5359C218.549 31.2852 218.617 31.0131 218.617 30.7195C218.617 30.4115 218.549 30.1322 218.413 29.8816C218.284 29.6238 218.076 29.4161 217.79 29.2585C217.511 29.101 217.138 29.0222 216.673 29.0222H213.3V26.6052ZM226.663 23.157V34.78H223.569V23.157H226.663ZM93.5352 49.157V51.5847H88.7012V60.78H85.6074V49.157H93.5352ZM101.141 58.1589V52.9812C101.141 52.6088 101.08 52.2901 100.958 52.0251C100.836 51.753 100.646 51.5417 100.389 51.3914C100.138 51.241 99.8122 51.1658 99.4111 51.1658C99.0674 51.1658 98.7702 51.2266 98.5195 51.3484C98.2689 51.463 98.0755 51.6313 97.9395 51.8533C97.8034 52.0681 97.7354 52.3223 97.7354 52.616H94.6416C94.6416 52.1218 94.7562 51.6528 94.9854 51.2087C95.2145 50.7647 95.5475 50.3744 95.9844 50.0378C96.4212 49.6941 96.9404 49.4255 97.542 49.2322C98.1507 49.0388 98.8311 48.9421 99.583 48.9421C100.485 48.9421 101.287 49.0925 101.989 49.3933C102.691 49.6941 103.243 50.1453 103.644 50.7468C104.052 51.3484 104.256 52.1003 104.256 53.0027V57.9763C104.256 58.6137 104.295 59.1365 104.374 59.5447C104.453 59.9457 104.567 60.2966 104.718 60.5974V60.78H101.592C101.441 60.4649 101.327 60.071 101.248 59.5984C101.176 59.1186 101.141 58.6388 101.141 58.1589ZM101.549 53.7009L101.57 55.4519H99.8408C99.4326 55.4519 99.0781 55.4985 98.7773 55.5916C98.4766 55.6847 98.2295 55.8171 98.0361 55.989C97.8428 56.1537 97.6995 56.3471 97.6064 56.5691C97.5205 56.7911 97.4775 57.0346 97.4775 57.2996C97.4775 57.5645 97.5384 57.8044 97.6602 58.0193C97.7819 58.227 97.9574 58.3917 98.1865 58.5134C98.4157 58.628 98.6842 58.6853 98.9922 58.6853C99.4577 58.6853 99.8623 58.5922 100.206 58.406C100.55 58.2198 100.815 57.9906 101.001 57.7185C101.194 57.4464 101.295 57.1886 101.302 56.9451L102.118 58.2556C102.004 58.5492 101.846 58.8536 101.646 59.1687C101.452 59.4838 101.205 59.781 100.904 60.0603C100.604 60.3324 100.242 60.558 99.8193 60.7371C99.3968 60.9089 98.8955 60.9949 98.3154 60.9949C97.5778 60.9949 96.9082 60.8481 96.3066 60.5544C95.7122 60.2537 95.2396 59.8419 94.8887 59.3191C94.5449 58.7891 94.373 58.1876 94.373 57.5144C94.373 56.9057 94.4876 56.365 94.7168 55.8923C94.946 55.4197 95.2826 55.0222 95.7266 54.7C96.1777 54.3705 96.7399 54.1235 97.4131 53.9587C98.0863 53.7869 98.8669 53.7009 99.7549 53.7009H101.549ZM109.734 51.3914V65.2488H106.641V49.157H109.509L109.734 51.3914ZM117.093 54.8396V55.0652C117.093 55.9102 116.993 56.6944 116.792 57.4177C116.599 58.141 116.312 58.7712 115.933 59.3083C115.553 59.8383 115.08 60.2537 114.515 60.5544C113.956 60.8481 113.312 60.9949 112.581 60.9949C111.872 60.9949 111.256 60.8516 110.733 60.5652C110.211 60.2787 109.77 59.8777 109.412 59.3621C109.061 58.8393 108.778 58.2341 108.563 57.5466C108.349 56.8591 108.184 56.1215 108.069 55.3337V54.7429C108.184 53.8979 108.349 53.1244 108.563 52.4226C108.778 51.7136 109.061 51.1013 109.412 50.5857C109.77 50.0629 110.207 49.6583 110.723 49.3718C111.245 49.0854 111.858 48.9421 112.56 48.9421C113.297 48.9421 113.945 49.0818 114.504 49.3611C115.07 49.6404 115.542 50.0414 115.922 50.5642C116.309 51.087 116.599 51.71 116.792 52.4333C116.993 53.1567 117.093 53.9587 117.093 54.8396ZM113.988 55.0652V54.8396C113.988 54.3455 113.945 53.8907 113.859 53.4753C113.781 53.0528 113.652 52.684 113.473 52.3689C113.301 52.0538 113.072 51.8103 112.785 51.6384C112.506 51.4594 112.166 51.3699 111.765 51.3699C111.342 51.3699 110.98 51.4379 110.68 51.574C110.386 51.71 110.146 51.907 109.96 52.1648C109.774 52.4226 109.634 52.7306 109.541 53.0886C109.448 53.4467 109.391 53.8513 109.369 54.3025V55.7957C109.405 56.3256 109.505 56.8018 109.67 57.2244C109.835 57.6397 110.089 57.9692 110.433 58.2126C110.776 58.4561 111.228 58.5779 111.786 58.5779C112.194 58.5779 112.538 58.4884 112.817 58.3093C113.097 58.1231 113.322 57.8689 113.494 57.5466C113.673 57.2244 113.799 56.852 113.87 56.4294C113.949 56.0069 113.988 55.5522 113.988 55.0652ZM125.289 58.1589V52.9812C125.289 52.6088 125.228 52.2901 125.106 52.0251C124.985 51.753 124.795 51.5417 124.537 51.3914C124.286 51.241 123.961 51.1658 123.56 51.1658C123.216 51.1658 122.919 51.2266 122.668 51.3484C122.417 51.463 122.224 51.6313 122.088 51.8533C121.952 52.0681 121.884 52.3223 121.884 52.616H118.79C118.79 52.1218 118.905 51.6528 119.134 51.2087C119.363 50.7647 119.696 50.3744 120.133 50.0378C120.57 49.6941 121.089 49.4255 121.69 49.2322C122.299 49.0388 122.979 48.9421 123.731 48.9421C124.634 48.9421 125.436 49.0925 126.138 49.3933C126.84 49.6941 127.391 50.1453 127.792 50.7468C128.2 51.3484 128.404 52.1003 128.404 53.0027V57.9763C128.404 58.6137 128.444 59.1365 128.522 59.5447C128.601 59.9457 128.716 60.2966 128.866 60.5974V60.78H125.74C125.59 60.4649 125.475 60.071 125.396 59.5984C125.325 59.1186 125.289 58.6388 125.289 58.1589ZM125.697 53.7009L125.719 55.4519H123.989C123.581 55.4519 123.227 55.4985 122.926 55.5916C122.625 55.6847 122.378 55.8171 122.185 55.989C121.991 56.1537 121.848 56.3471 121.755 56.5691C121.669 56.7911 121.626 57.0346 121.626 57.2996C121.626 57.5645 121.687 57.8044 121.809 58.0193C121.93 58.227 122.106 58.3917 122.335 58.5134C122.564 58.628 122.833 58.6853 123.141 58.6853C123.606 58.6853 124.011 58.5922 124.354 58.406C124.698 58.2198 124.963 57.9906 125.149 57.7185C125.343 57.4464 125.443 57.1886 125.45 56.9451L126.267 58.2556C126.152 58.5492 125.994 58.8536 125.794 59.1687C125.601 59.4838 125.354 59.781 125.053 60.0603C124.752 60.3324 124.39 60.558 123.968 60.7371C123.545 60.9089 123.044 60.9949 122.464 60.9949C121.726 60.9949 121.057 60.8481 120.455 60.5544C119.861 60.2537 119.388 59.8419 119.037 59.3191C118.693 58.7891 118.521 58.1876 118.521 57.5144C118.521 56.9057 118.636 56.365 118.865 55.8923C119.094 55.4197 119.431 55.0222 119.875 54.7C120.326 54.3705 120.888 54.1235 121.562 53.9587C122.235 53.7869 123.015 53.7009 123.903 53.7009H125.697ZM138.749 53.8513V56.2576H132.841V53.8513H138.749ZM133.872 49.157V60.78H130.778V49.157H133.872ZM140.844 49.157V60.78H137.739V49.157H140.844ZM149.169 49.157V60.78H146.064V49.157H149.169ZM152.907 49.157V51.5525H142.38V49.157H152.907ZM157.569 56.4617L161.469 49.157H164.562V60.78H161.469V53.4646L157.569 60.78H154.476V49.157H157.569V56.4617ZM170.03 56.4617L173.93 49.157H177.023V60.78H173.93V53.4646L170.03 60.78H166.937V49.157H170.03V56.4617Z" fill="white"/>
</svg>
