<svg width="281" height="92" viewBox="0 0 281 92" fill="none" xmlns="http://www.w3.org/2000/svg">
<path d="M67.1614 11.9709L35.8513 0.485746C35.4735 0.346892 34.9668 0.277466 34.46 0.277466C33.9532 0.277466 33.4464 0.346892 33.0686 0.485746L1.75854 11.9709C0.993758 12.2486 0.367188 13.2008 0.367188 14.0736V61.9185C0.367188 62.7913 0.892401 63.9418 1.52819 64.4873L33.2898 91.1274C33.6123 91.3952 34.0269 91.534 34.4508 91.534C34.8746 91.534 35.2985 91.3952 35.6118 91.1274L67.3733 64.4873C68.0091 63.9517 68.5343 62.8012 68.5343 61.9185V14.0736C68.5528 13.2008 67.9262 12.2585 67.1614 11.9709ZM51.276 28.9111L31.6865 57.9414C31.5488 58.1443 31.3685 58.3093 31.1604 58.4231C30.9522 58.5369 30.7221 58.5962 30.4886 58.5962C30.2552 58.5962 30.025 58.5369 29.8169 58.4231C29.6087 58.3093 29.4285 58.1443 29.2908 57.9414L17.6439 40.6839C17.2938 40.1582 17.6439 39.4243 18.2429 39.4243H23.3291C23.7991 39.4243 24.2506 39.6722 24.527 40.0788L30.4886 48.906L44.393 28.2961C44.6694 27.8895 45.1117 27.6415 45.5908 27.6415H50.6771C51.276 27.6515 51.6262 28.3854 51.276 28.9111Z" fill="#77BE1D"/>
<path d="M108.744 25.129V27.6534H101.708V40.7697H98.4961V25.129H108.744ZM100.602 30.8331H104.254C105.486 30.8331 106.546 31.0372 107.434 31.4454C108.322 31.8536 109.006 32.4266 109.485 33.1642C109.965 33.9018 110.205 34.7612 110.205 35.7423C110.205 36.4871 110.069 37.1674 109.797 37.7833C109.525 38.392 109.127 38.922 108.604 39.3732C108.089 39.8172 107.466 40.1609 106.735 40.4044C106.005 40.6479 105.178 40.7697 104.254 40.7697H98.4961V25.129H101.729V38.256H104.254C104.87 38.256 105.378 38.1414 105.779 37.9122C106.18 37.6831 106.481 37.3787 106.682 36.9991C106.889 36.6124 106.993 36.1863 106.993 35.7208C106.993 35.2768 106.889 34.8758 106.682 34.5177C106.481 34.1525 106.18 33.866 105.779 33.6583C105.378 33.4506 104.87 33.3468 104.254 33.3468H100.602V30.8331ZM117.467 40.9845C116.564 40.9845 115.755 40.8413 115.039 40.5548C114.323 40.2612 113.714 39.8566 113.213 39.3409C112.719 38.8253 112.339 38.2273 112.074 37.547C111.809 36.8595 111.677 36.129 111.677 35.3556V34.9259C111.677 34.045 111.802 33.2394 112.053 32.5089C112.303 31.7784 112.661 31.1447 113.127 30.6075C113.6 30.0704 114.173 29.6587 114.846 29.3722C115.519 29.0786 116.278 28.9318 117.123 28.9318C117.947 28.9318 118.677 29.0678 119.314 29.34C119.952 29.6121 120.485 29.9988 120.915 30.5001C121.352 31.0014 121.681 31.603 121.903 32.3048C122.125 32.9995 122.236 33.7729 122.236 34.6251V35.9142H112.998V33.8517H119.196V33.6154C119.196 33.1857 119.118 32.8025 118.96 32.4659C118.81 32.1222 118.58 31.8501 118.272 31.6495C117.965 31.449 117.571 31.3488 117.091 31.3488C116.683 31.3488 116.332 31.4383 116.038 31.6173C115.744 31.7963 115.505 32.047 115.318 32.3693C115.139 32.6915 115.003 33.0711 114.91 33.5079C114.824 33.9376 114.781 34.4103 114.781 34.9259V35.3556C114.781 35.8211 114.846 36.2508 114.975 36.6447C115.111 37.0385 115.3 37.3787 115.544 37.6652C115.795 37.9516 116.095 38.1736 116.446 38.3312C116.804 38.4887 117.209 38.5675 117.66 38.5675C118.219 38.5675 118.738 38.4601 119.218 38.2452C119.705 38.0232 120.124 37.6902 120.475 37.2462L121.979 38.879C121.735 39.2299 121.402 39.5665 120.979 39.8888C120.564 40.2111 120.063 40.476 119.476 40.6837C118.888 40.8842 118.219 40.9845 117.467 40.9845ZM129.176 35.2267H126.877V33.8409H128.521C128.907 33.8409 129.215 33.7872 129.444 33.6798C129.681 33.5724 129.849 33.422 129.949 33.2286C130.057 33.0281 130.11 32.8025 130.11 32.5519C130.11 32.3299 130.064 32.1186 129.971 31.9181C129.885 31.7104 129.727 31.5421 129.498 31.4132C129.276 31.2771 128.961 31.2091 128.553 31.2091C128.216 31.2091 127.915 31.2592 127.65 31.3595C127.393 31.4598 127.188 31.6066 127.038 31.7999C126.895 31.9861 126.823 32.2117 126.823 32.4767H123.719C123.719 31.7391 123.93 31.1088 124.353 30.5861C124.775 30.0561 125.341 29.6515 126.05 29.3722C126.759 29.0857 127.536 28.9425 128.381 28.9425C129.118 28.9425 129.785 29.0177 130.379 29.1681C130.973 29.3113 131.482 29.5262 131.904 29.8126C132.327 30.0991 132.649 30.4536 132.871 30.8761C133.1 31.2915 133.215 31.7749 133.215 32.3263C133.215 32.7202 133.122 33.0926 132.936 33.4435C132.749 33.7944 132.481 34.1059 132.13 34.3781C131.779 34.643 131.353 34.8507 130.852 35.0011C130.357 35.1515 129.799 35.2267 129.176 35.2267ZM126.877 34.4532H129.176C129.87 34.4532 130.479 34.5213 131.002 34.6573C131.532 34.7863 131.976 34.9796 132.334 35.2374C132.692 35.4952 132.961 35.8139 133.14 36.1935C133.326 36.5659 133.419 36.9956 133.419 37.4825C133.419 38.034 133.297 38.5281 133.054 38.965C132.81 39.3947 132.463 39.7599 132.012 40.0607C131.561 40.3615 131.027 40.5906 130.411 40.7482C129.795 40.9057 129.118 40.9845 128.381 40.9845C127.593 40.9845 126.827 40.8556 126.082 40.5978C125.337 40.34 124.725 39.9425 124.245 39.4054C123.772 38.8683 123.536 38.1772 123.536 37.3322H126.641C126.641 37.5756 126.712 37.8048 126.855 38.0197C126.999 38.2345 127.214 38.4064 127.5 38.5353C127.786 38.657 128.141 38.7179 128.563 38.7179C128.986 38.7179 129.326 38.6499 129.584 38.5138C129.842 38.3777 130.028 38.1987 130.143 37.9767C130.264 37.7475 130.325 37.5112 130.325 37.2677C130.325 36.924 130.257 36.6447 130.121 36.4298C129.992 36.215 129.792 36.0574 129.52 35.9572C129.255 35.8569 128.922 35.8068 128.521 35.8068H126.877V34.4532ZM134.826 35.0763V34.8507C134.826 33.9985 134.948 33.2143 135.191 32.4982C135.435 31.7749 135.789 31.1482 136.255 30.6183C136.72 30.0883 137.293 29.6766 137.974 29.3829C138.654 29.0822 139.435 28.9318 140.315 28.9318C141.196 28.9318 141.98 29.0822 142.668 29.3829C143.355 29.6766 143.932 30.0883 144.397 30.6183C144.87 31.1482 145.228 31.7749 145.472 32.4982C145.715 33.2143 145.837 33.9985 145.837 34.8507V35.0763C145.837 35.9213 145.715 36.7055 145.472 37.4288C145.228 38.145 144.87 38.7716 144.397 39.3087C143.932 39.8387 143.359 40.2504 142.679 40.5441C141.998 40.8377 141.218 40.9845 140.337 40.9845C139.456 40.9845 138.672 40.8377 137.984 40.5441C137.304 40.2504 136.728 39.8387 136.255 39.3087C135.789 38.7716 135.435 38.145 135.191 37.4288C134.948 36.7055 134.826 35.9213 134.826 35.0763ZM137.92 34.8507V35.0763C137.92 35.5633 137.963 36.018 138.049 36.4406C138.135 36.8631 138.271 37.2355 138.457 37.5577C138.65 37.8728 138.901 38.1199 139.209 38.299C139.517 38.478 139.893 38.5675 140.337 38.5675C140.767 38.5675 141.135 38.478 141.443 38.299C141.751 38.1199 141.998 37.8728 142.185 37.5577C142.371 37.2355 142.507 36.8631 142.593 36.4406C142.686 36.018 142.732 35.5633 142.732 35.0763V34.8507C142.732 34.3781 142.686 33.934 142.593 33.5187C142.507 33.0962 142.367 32.7238 142.174 32.4015C141.988 32.0721 141.741 31.8142 141.433 31.6281C141.125 31.4419 140.752 31.3488 140.315 31.3488C139.879 31.3488 139.506 31.4419 139.198 31.6281C138.897 31.8142 138.65 32.0721 138.457 32.4015C138.271 32.7238 138.135 33.0962 138.049 33.5187C137.963 33.934 137.92 34.3781 137.92 34.8507ZM155.559 29.1466V31.5743H149.93V29.1466H155.559ZM150.821 29.1466V40.7697H147.728V29.1466H150.821ZM157.814 29.1466V40.7697H154.71V29.1466H157.814ZM166.473 38.1486V32.9708C166.473 32.5984 166.412 32.2797 166.29 32.0148C166.168 31.7426 165.979 31.5314 165.721 31.381C165.47 31.2306 165.144 31.1554 164.743 31.1554C164.399 31.1554 164.102 31.2163 163.852 31.338C163.601 31.4526 163.408 31.6209 163.271 31.8429C163.135 32.0577 163.067 32.312 163.067 32.6056H159.974C159.974 32.1115 160.088 31.6424 160.317 31.1984C160.547 30.7544 160.88 30.3641 161.316 30.0275C161.753 29.6837 162.272 29.4152 162.874 29.2218C163.483 29.0284 164.163 28.9318 164.915 28.9318C165.817 28.9318 166.619 29.0822 167.321 29.3829C168.023 29.6837 168.575 30.1349 168.976 30.7365C169.384 31.338 169.588 32.09 169.588 32.9923V37.9659C169.588 38.6033 169.627 39.1261 169.706 39.5343C169.785 39.9353 169.899 40.2863 170.05 40.587V40.7697H166.924C166.773 40.4545 166.659 40.0607 166.58 39.588C166.508 39.1082 166.473 38.6284 166.473 38.1486ZM166.881 33.6906L166.902 35.4415H165.173C164.765 35.4415 164.41 35.4881 164.109 35.5812C163.809 35.6743 163.562 35.8068 163.368 35.9786C163.175 36.1434 163.032 36.3367 162.938 36.5587C162.853 36.7807 162.81 37.0242 162.81 37.2892C162.81 37.5542 162.87 37.7941 162.992 38.0089C163.114 38.2166 163.289 38.3813 163.519 38.5031C163.748 38.6176 164.016 38.6749 164.324 38.6749C164.79 38.6749 165.194 38.5818 165.538 38.3956C165.882 38.2094 166.147 37.9803 166.333 37.7081C166.526 37.436 166.627 37.1782 166.634 36.9347L167.45 38.2452C167.336 38.5389 167.178 38.8432 166.978 39.1583C166.784 39.4734 166.537 39.7706 166.236 40.0499C165.936 40.3221 165.574 40.5476 165.151 40.7267C164.729 40.8986 164.228 40.9845 163.647 40.9845C162.91 40.9845 162.24 40.8377 161.639 40.5441C161.044 40.2433 160.572 39.8315 160.221 39.3087C159.877 38.7788 159.705 38.1772 159.705 37.504C159.705 36.8953 159.82 36.3546 160.049 35.882C160.278 35.4093 160.615 35.0118 161.059 34.6896C161.51 34.3601 162.072 34.1131 162.745 33.9484C163.418 33.7765 164.199 33.6906 165.087 33.6906H166.881ZM176.774 38.5675C177.154 38.5675 177.491 38.4959 177.784 38.3527C178.078 38.2023 178.307 37.9946 178.472 37.7296C178.644 37.4575 178.733 37.1388 178.74 36.7736H181.651C181.644 37.59 181.426 38.3169 180.996 38.9542C180.566 39.5844 179.99 40.0822 179.267 40.4474C178.543 40.8055 177.734 40.9845 176.839 40.9845C175.937 40.9845 175.149 40.8341 174.476 40.5333C173.81 40.2325 173.255 39.8172 172.811 39.2872C172.367 38.7501 172.034 38.1271 171.812 37.4181C171.59 36.7019 171.479 35.9357 171.479 35.1193V34.8077C171.479 33.9842 171.59 33.2179 171.812 32.5089C172.034 31.7928 172.367 31.1697 172.811 30.6398C173.255 30.1027 173.81 29.6837 174.476 29.3829C175.142 29.0822 175.922 28.9318 176.817 28.9318C177.77 28.9318 178.604 29.1144 179.32 29.4796C180.044 29.8448 180.609 30.3676 181.018 31.048C181.433 31.7212 181.644 32.5197 181.651 33.4435H178.74C178.733 33.0568 178.651 32.7059 178.493 32.3907C178.343 32.0756 178.121 31.825 177.827 31.6388C177.541 31.4454 177.186 31.3488 176.764 31.3488C176.312 31.3488 175.944 31.4454 175.657 31.6388C175.371 31.825 175.149 32.0828 174.991 32.4122C174.834 32.7345 174.723 33.1033 174.658 33.5187C174.601 33.9269 174.572 34.3566 174.572 34.8077V35.1193C174.572 35.5704 174.601 36.0037 174.658 36.4191C174.715 36.8344 174.823 37.2032 174.98 37.5255C175.145 37.8478 175.371 38.102 175.657 38.2882C175.944 38.4744 176.316 38.5675 176.774 38.5675ZM191.405 33.8409V36.2472H185.497V33.8409H191.405ZM186.528 29.1466V40.7697H183.435V29.1466H186.528ZM193.5 29.1466V40.7697H190.396V29.1466H193.5ZM195.412 35.0763V34.8507C195.412 33.9985 195.534 33.2143 195.777 32.4982C196.021 31.7749 196.375 31.1482 196.841 30.6183C197.306 30.0883 197.879 29.6766 198.56 29.3829C199.24 29.0822 200.021 28.9318 200.901 28.9318C201.782 28.9318 202.566 29.0822 203.254 29.3829C203.941 29.6766 204.518 30.0883 204.983 30.6183C205.456 31.1482 205.814 31.7749 206.058 32.4982C206.301 33.2143 206.423 33.9985 206.423 34.8507V35.0763C206.423 35.9213 206.301 36.7055 206.058 37.4288C205.814 38.145 205.456 38.7716 204.983 39.3087C204.518 39.8387 203.945 40.2504 203.265 40.5441C202.584 40.8377 201.804 40.9845 200.923 40.9845C200.042 40.9845 199.258 40.8377 198.57 40.5441C197.89 40.2504 197.313 39.8387 196.841 39.3087C196.375 38.7716 196.021 38.145 195.777 37.4288C195.534 36.7055 195.412 35.9213 195.412 35.0763ZM198.506 34.8507V35.0763C198.506 35.5633 198.549 36.018 198.635 36.4406C198.721 36.8631 198.857 37.2355 199.043 37.5577C199.236 37.8728 199.487 38.1199 199.795 38.299C200.103 38.478 200.479 38.5675 200.923 38.5675C201.353 38.5675 201.721 38.478 202.029 38.299C202.337 38.1199 202.584 37.8728 202.771 37.5577C202.957 37.2355 203.093 36.8631 203.179 36.4406C203.272 36.018 203.318 35.5633 203.318 35.0763V34.8507C203.318 34.3781 203.272 33.934 203.179 33.5187C203.093 33.0962 202.953 32.7238 202.76 32.4015C202.574 32.0721 202.326 31.8142 202.019 31.6281C201.711 31.4419 201.338 31.3488 200.901 31.3488C200.465 31.3488 200.092 31.4419 199.784 31.6281C199.483 31.8142 199.236 32.0721 199.043 32.4015C198.857 32.7238 198.721 33.0962 198.635 33.5187C198.549 33.934 198.506 34.3781 198.506 34.8507ZM213.126 38.5675C213.506 38.5675 213.842 38.4959 214.136 38.3527C214.429 38.2023 214.659 37.9946 214.823 37.7296C214.995 37.4575 215.085 37.1388 215.092 36.7736H218.003C217.996 37.59 217.777 38.3169 217.348 38.9542C216.918 39.5844 216.341 40.0822 215.618 40.4474C214.895 40.8055 214.086 40.9845 213.19 40.9845C212.288 40.9845 211.5 40.8341 210.827 40.5333C210.161 40.2325 209.606 39.8172 209.162 39.2872C208.718 38.7501 208.385 38.1271 208.163 37.4181C207.941 36.7019 207.83 35.9357 207.83 35.1193V34.8077C207.83 33.9842 207.941 33.2179 208.163 32.5089C208.385 31.7928 208.718 31.1697 209.162 30.6398C209.606 30.1027 210.161 29.6837 210.827 29.3829C211.493 29.0822 212.274 28.9318 213.169 28.9318C214.121 28.9318 214.956 29.1144 215.672 29.4796C216.395 29.8448 216.961 30.3676 217.369 31.048C217.785 31.7212 217.996 32.5197 218.003 33.4435H215.092C215.085 33.0568 215.002 32.7059 214.845 32.3907C214.694 32.0756 214.472 31.825 214.179 31.6388C213.892 31.4454 213.538 31.3488 213.115 31.3488C212.664 31.3488 212.295 31.4454 212.009 31.6388C211.722 31.825 211.5 32.0828 211.343 32.4122C211.185 32.7345 211.074 33.1033 211.01 33.5187C210.952 33.9269 210.924 34.3566 210.924 34.8077V35.1193C210.924 35.5704 210.952 36.0037 211.01 36.4191C211.067 36.8344 211.174 37.2032 211.332 37.5255C211.497 37.8478 211.722 38.102 212.009 38.2882C212.295 38.4744 212.668 38.5675 213.126 38.5675ZM225.716 29.1466V40.7697H222.611V29.1466H225.716ZM229.454 29.1466V31.5421H218.927V29.1466H229.454ZM233.171 32.5948H236.544C237.604 32.5948 238.506 32.7703 239.251 33.1212C240.003 33.465 240.576 33.9448 240.97 34.5607C241.371 35.1766 241.571 35.8891 241.571 36.6984C241.571 37.2856 241.457 37.8299 241.228 38.3312C241.006 38.8253 240.68 39.255 240.25 39.6202C239.82 39.9855 239.294 40.2684 238.671 40.4689C238.048 40.6694 237.339 40.7697 236.544 40.7697H231.237V29.1466H234.342V38.3634H236.544C237.009 38.3634 237.382 38.2882 237.661 38.1378C237.948 37.9803 238.155 37.7762 238.284 37.5255C238.42 37.2749 238.488 37.0027 238.488 36.7091C238.488 36.4012 238.42 36.1219 238.284 35.8712C238.155 35.6134 237.948 35.4057 237.661 35.2482C237.382 35.0906 237.009 35.0118 236.544 35.0118H233.171V32.5948ZM106.145 55.1466V57.5743H100.516V55.1466H106.145ZM101.407 55.1466V66.7697H98.3135V55.1466H101.407ZM108.4 55.1466V66.7697H105.296V55.1466H108.4ZM113.879 57.381V71.2384H110.785V55.1466H113.653L113.879 57.381ZM121.237 60.8292V61.0548C121.237 61.8999 121.137 62.684 120.937 63.4073C120.743 64.1307 120.457 64.7609 120.077 65.298C119.698 65.8279 119.225 66.2433 118.659 66.5441C118.101 66.8377 117.456 66.9845 116.726 66.9845C116.017 66.9845 115.401 66.8413 114.878 66.5548C114.355 66.2684 113.915 65.8673 113.557 65.3517C113.206 64.8289 112.923 64.2238 112.708 63.5363C112.493 62.8488 112.328 62.1111 112.214 61.3234V60.7325C112.328 59.8875 112.493 59.1141 112.708 58.4122C112.923 57.7032 113.206 57.0909 113.557 56.5753C113.915 56.0525 114.352 55.6479 114.867 55.3615C115.39 55.075 116.002 54.9318 116.704 54.9318C117.442 54.9318 118.09 55.0714 118.648 55.3507C119.214 55.63 119.687 56.031 120.066 56.5538C120.453 57.0766 120.743 57.6997 120.937 58.423C121.137 59.1463 121.237 59.9484 121.237 60.8292ZM118.133 61.0548V60.8292C118.133 60.3351 118.09 59.8803 118.004 59.465C117.925 59.0424 117.796 58.6736 117.617 58.3585C117.445 58.0434 117.216 57.7999 116.93 57.6281C116.65 57.449 116.31 57.3595 115.909 57.3595C115.487 57.3595 115.125 57.4275 114.824 57.5636C114.531 57.6997 114.291 57.8966 114.104 58.1544C113.918 58.4122 113.779 58.7202 113.686 59.0782C113.592 59.4363 113.535 59.8409 113.514 60.2921V61.7853C113.549 62.3152 113.65 62.7915 113.814 63.214C113.979 63.6294 114.233 63.9588 114.577 64.2023C114.921 64.4458 115.372 64.5675 115.931 64.5675C116.339 64.5675 116.683 64.478 116.962 64.299C117.241 64.1128 117.467 63.8585 117.639 63.5363C117.818 63.214 117.943 62.8416 118.015 62.4191C118.093 61.9965 118.133 61.5418 118.133 61.0548ZM122.666 61.0763V60.8507C122.666 59.9985 122.788 59.2143 123.031 58.4982C123.275 57.7749 123.629 57.1482 124.095 56.6183C124.56 56.0883 125.133 55.6766 125.813 55.3829C126.494 55.0822 127.274 54.9318 128.155 54.9318C129.036 54.9318 129.82 55.0822 130.508 55.3829C131.195 55.6766 131.772 56.0883 132.237 56.6183C132.71 57.1482 133.068 57.7749 133.312 58.4982C133.555 59.2143 133.677 59.9985 133.677 60.8507V61.0763C133.677 61.9213 133.555 62.7055 133.312 63.4288C133.068 64.145 132.71 64.7716 132.237 65.3087C131.772 65.8387 131.199 66.2504 130.519 66.5441C129.838 66.8377 129.058 66.9845 128.177 66.9845C127.296 66.9845 126.512 66.8377 125.824 66.5441C125.144 66.2504 124.567 65.8387 124.095 65.3087C123.629 64.7716 123.275 64.145 123.031 63.4288C122.788 62.7055 122.666 61.9213 122.666 61.0763ZM125.76 60.8507V61.0763C125.76 61.5633 125.803 62.018 125.889 62.4406C125.975 62.8631 126.111 63.2355 126.297 63.5577C126.49 63.8728 126.741 64.1199 127.049 64.299C127.357 64.478 127.733 64.5675 128.177 64.5675C128.606 64.5675 128.975 64.478 129.283 64.299C129.591 64.1199 129.838 63.8728 130.024 63.5577C130.211 63.2355 130.347 62.8631 130.433 62.4406C130.526 62.018 130.572 61.5633 130.572 61.0763V60.8507C130.572 60.3781 130.526 59.934 130.433 59.5187C130.347 59.0962 130.207 58.7238 130.014 58.4015C129.827 58.0721 129.58 57.8142 129.272 57.6281C128.965 57.4419 128.592 57.3488 128.155 57.3488C127.718 57.3488 127.346 57.4419 127.038 57.6281C126.737 57.8142 126.49 58.0721 126.297 58.4015C126.111 58.7238 125.975 59.0962 125.889 59.5187C125.803 59.934 125.76 60.3781 125.76 60.8507ZM136.899 55.1466H139.993L139.896 59.0353C139.868 60.2814 139.725 61.352 139.467 62.2472C139.209 63.1424 138.865 63.8943 138.436 64.5031C138.006 65.1118 137.515 65.5988 136.964 65.964C136.42 66.3221 135.847 66.5906 135.245 66.7697H134.665L134.633 64.3849L134.955 64.3527C135.32 63.9731 135.621 63.6043 135.857 63.2462C136.094 62.881 136.276 62.4978 136.405 62.0968C136.534 61.6958 136.627 61.2482 136.685 60.754C136.749 60.2599 136.788 59.687 136.803 59.0353L136.899 55.1466ZM137.737 55.1466H145.439V66.7697H142.356V57.6281H137.737V55.1466ZM133.956 64.3527H147.104V70.2609H144.011V66.7697H137.125V70.2609H133.956V64.3527ZM152.132 65.4591L155.215 55.1466H158.534L153.861 68.5206C153.761 68.8142 153.625 69.1294 153.453 69.4659C153.288 69.8025 153.063 70.1212 152.776 70.422C152.497 70.7299 152.143 70.9806 151.713 71.174C151.29 71.3673 150.771 71.464 150.155 71.464C149.862 71.464 149.622 71.4461 149.436 71.4103C149.249 71.3745 149.027 71.3243 148.77 71.2599V68.9933C148.848 68.9933 148.931 68.9933 149.017 68.9933C149.103 69.0004 149.185 69.004 149.264 69.004C149.672 69.004 150.005 68.9575 150.263 68.8644C150.521 68.7713 150.728 68.6281 150.886 68.4347C151.043 68.2485 151.169 68.005 151.262 67.7042L152.132 65.4591ZM150.843 55.1466L153.367 63.5685L153.808 66.8448L151.702 67.0704L147.523 55.1466H150.843ZM163.067 55.1466V66.7697H159.974V55.1466H163.067ZM170.619 55.1466L165.613 62.4191H162.52L162.144 59.5616H164.195L166.698 55.1466H170.619ZM166.838 66.7697L163.98 61.8605L166.677 60.3673L170.984 66.7697H166.838ZM178.063 55.1466V66.7697H174.959V55.1466H178.063ZM181.802 55.1466V57.5421H171.274V55.1466H181.802ZM189.482 64.1486V58.9708C189.482 58.5984 189.422 58.2797 189.3 58.0148C189.178 57.7426 188.988 57.5314 188.73 57.381C188.48 57.2306 188.154 57.1554 187.753 57.1554C187.409 57.1554 187.112 57.2163 186.861 57.338C186.611 57.4526 186.417 57.6209 186.281 57.8429C186.145 58.0577 186.077 58.312 186.077 58.6056H182.983C182.983 58.1115 183.098 57.6424 183.327 57.1984C183.556 56.7544 183.889 56.3641 184.326 56.0275C184.763 55.6837 185.282 55.4152 185.884 55.2218C186.493 55.0284 187.173 54.9318 187.925 54.9318C188.827 54.9318 189.629 55.0822 190.331 55.3829C191.033 55.6837 191.584 56.1349 191.985 56.7365C192.394 57.338 192.598 58.09 192.598 58.9923V63.9659C192.598 64.6033 192.637 65.1261 192.716 65.5343C192.795 65.9353 192.909 66.2863 193.06 66.587V66.7697H189.934C189.783 66.4545 189.669 66.0607 189.59 65.588C189.518 65.1082 189.482 64.6284 189.482 64.1486ZM189.891 59.6906L189.912 61.4415H188.183C187.774 61.4415 187.42 61.4881 187.119 61.5812C186.818 61.6743 186.571 61.8068 186.378 61.9786C186.185 62.1434 186.041 62.3367 185.948 62.5587C185.862 62.7807 185.819 63.0242 185.819 63.2892C185.819 63.5542 185.88 63.7941 186.002 64.0089C186.124 64.2166 186.299 64.3813 186.528 64.5031C186.757 64.6176 187.026 64.6749 187.334 64.6749C187.799 64.6749 188.204 64.5818 188.548 64.3956C188.892 64.2094 189.157 63.9803 189.343 63.7081C189.536 63.436 189.636 63.1782 189.644 62.9347L190.46 64.2452C190.345 64.5389 190.188 64.8432 189.987 65.1583C189.794 65.4734 189.547 65.7706 189.246 66.0499C188.945 66.3221 188.584 66.5476 188.161 66.7267C187.739 66.8986 187.237 66.9845 186.657 66.9845C185.92 66.9845 185.25 66.8377 184.648 66.5441C184.054 66.2433 183.581 65.8315 183.23 65.3087C182.887 64.7788 182.715 64.1772 182.715 63.504C182.715 62.8953 182.829 62.3546 183.059 61.882C183.288 61.4093 183.624 61.0118 184.068 60.6896C184.52 60.3601 185.082 60.1131 185.755 59.9484C186.428 59.7765 187.209 59.6906 188.097 59.6906H189.891Z" fill="white"/>
</svg>
