<svg width="230" height="72" viewBox="0 0 230 72" fill="none" xmlns="http://www.w3.org/2000/svg">
<path d="M63.988 0.769653H7.69485C3.8247 0.769653 0.693386 3.93615 0.693386 7.8063L0.658203 71.1361L14.7315 57.0628H63.988C67.8582 57.0628 71.0247 53.8964 71.0247 50.0262V7.8063C71.0247 3.93615 67.8582 0.769653 63.988 0.769653ZM39.3598 42.9895H32.3231V35.9529H39.3598V42.9895ZM39.3598 28.9163H32.3231V14.843H39.3598V28.9163Z" fill="#77BE1D"/>
<path d="M104.899 19.1945H100.914V16.6808H104.899C105.515 16.6808 106.017 16.5805 106.403 16.38C106.79 16.1723 107.073 15.8859 107.252 15.5206C107.431 15.1554 107.521 14.7436 107.521 14.2853C107.521 13.8198 107.431 13.3865 107.252 12.9855C107.073 12.5844 106.79 12.2622 106.403 12.0187C106.017 11.7752 105.515 11.6534 104.899 11.6534H102.031V24.7697H98.8086V9.12903H104.899C106.124 9.12903 107.173 9.35103 108.047 9.79504C108.928 10.2319 109.601 10.837 110.066 11.6105C110.532 12.3839 110.765 13.2684 110.765 14.2638C110.765 15.2736 110.532 16.1473 110.066 16.8849C109.601 17.6225 108.928 18.1919 108.047 18.5929C107.173 18.9939 106.124 19.1945 104.899 19.1945ZM117.994 24.9845C117.092 24.9845 116.283 24.8413 115.566 24.5548C114.85 24.2612 114.242 23.8566 113.74 23.3409C113.246 22.8253 112.867 22.2273 112.602 21.547C112.337 20.8595 112.204 20.129 112.204 19.3556V18.9259C112.204 18.045 112.329 17.2394 112.58 16.5089C112.831 15.7784 113.189 15.1447 113.654 14.6075C114.127 14.0704 114.7 13.6587 115.373 13.3722C116.046 13.0786 116.805 12.9318 117.65 12.9318C118.474 12.9318 119.204 13.0678 119.842 13.34C120.479 13.6121 121.013 13.9988 121.442 14.5001C121.879 15.0014 122.209 15.603 122.431 16.3048C122.653 16.9995 122.764 17.7729 122.764 18.6251V19.9142H113.525V17.8517H119.724V17.6154C119.724 17.1857 119.645 16.8025 119.487 16.4659C119.337 16.1222 119.108 15.8501 118.8 15.6495C118.492 15.449 118.098 15.3488 117.618 15.3488C117.21 15.3488 116.859 15.4383 116.565 15.6173C116.272 15.7963 116.032 16.047 115.846 16.3693C115.667 16.6915 115.531 17.0711 115.438 17.5079C115.352 17.9376 115.309 18.4103 115.309 18.9259V19.3556C115.309 19.8211 115.373 20.2508 115.502 20.6447C115.638 21.0385 115.828 21.3787 116.071 21.6652C116.322 21.9516 116.623 22.1736 116.974 22.3312C117.332 22.4887 117.736 22.5675 118.188 22.5675C118.746 22.5675 119.265 22.4601 119.745 22.2452C120.232 22.0232 120.651 21.6902 121.002 21.2462L122.506 22.879C122.262 23.2299 121.929 23.5665 121.507 23.8888C121.091 24.2111 120.59 24.476 120.003 24.6837C119.416 24.8842 118.746 24.9845 117.994 24.9845ZM130.799 22.1486V16.9708C130.799 16.5984 130.738 16.2797 130.616 16.0148C130.494 15.7426 130.305 15.5314 130.047 15.381C129.796 15.2306 129.47 15.1554 129.069 15.1554C128.726 15.1554 128.428 15.2163 128.178 15.338C127.927 15.4526 127.734 15.6209 127.598 15.8429C127.462 16.0577 127.394 16.312 127.394 16.6056H124.3C124.3 16.1115 124.414 15.6424 124.644 15.1984C124.873 14.7544 125.206 14.3641 125.643 14.0275C126.079 13.6837 126.599 13.4152 127.2 13.2218C127.809 13.0284 128.489 12.9318 129.241 12.9318C130.144 12.9318 130.946 13.0822 131.647 13.3829C132.349 13.6837 132.901 14.1349 133.302 14.7365C133.71 15.338 133.914 16.09 133.914 16.9923V21.9659C133.914 22.6033 133.953 23.1261 134.032 23.5343C134.111 23.9353 134.226 24.2863 134.376 24.587V24.7697H131.25C131.1 24.4545 130.985 24.0607 130.906 23.588C130.835 23.1082 130.799 22.6284 130.799 22.1486ZM131.207 17.6906L131.229 19.4415H129.499C129.091 19.4415 128.736 19.4881 128.436 19.5812C128.135 19.6743 127.888 19.8068 127.694 19.9786C127.501 20.1434 127.358 20.3367 127.265 20.5587C127.179 20.7807 127.136 21.0242 127.136 21.2892C127.136 21.5542 127.197 21.7941 127.318 22.0089C127.44 22.2166 127.616 22.3813 127.845 22.5031C128.074 22.6176 128.342 22.6749 128.65 22.6749C129.116 22.6749 129.521 22.5818 129.864 22.3956C130.208 22.2094 130.473 21.9803 130.659 21.7081C130.853 21.436 130.953 21.1782 130.96 20.9347L131.776 22.2452C131.662 22.5389 131.504 22.8432 131.304 23.1583C131.11 23.4734 130.863 23.7706 130.562 24.0499C130.262 24.3221 129.9 24.5476 129.478 24.7267C129.055 24.8986 128.554 24.9845 127.974 24.9845C127.236 24.9845 126.566 24.8377 125.965 24.5441C125.37 24.2433 124.898 23.8315 124.547 23.3087C124.203 22.7788 124.031 22.1772 124.031 21.504C124.031 20.8953 124.146 20.3546 124.375 19.882C124.604 19.4093 124.941 19.0118 125.385 18.6896C125.836 18.3601 126.398 18.1131 127.071 17.9484C127.744 17.7765 128.525 17.6906 129.413 17.6906H131.207ZM144.119 13.1466V15.5743H138.404V13.1466H144.119ZM146.386 13.1466V24.7697H143.292V13.1466H146.386ZM137.631 13.1466H140.671L140.359 19.0118C140.316 19.8497 140.227 20.5874 140.091 21.2247C139.955 21.8621 139.772 22.4064 139.543 22.8575C139.321 23.3087 139.052 23.6775 138.737 23.964C138.429 24.2433 138.068 24.4474 137.652 24.5763C137.244 24.7052 136.793 24.7697 136.299 24.7697H135.354L135.321 22.3312L135.719 22.2882C135.948 22.2667 136.148 22.2023 136.32 22.0948C136.499 21.9803 136.65 21.8191 136.771 21.6115C136.9 21.3966 137.008 21.1281 137.094 20.8058C137.18 20.4764 137.248 20.0896 137.298 19.6456C137.355 19.2016 137.395 18.6896 137.416 18.1095L137.631 13.1466ZM150.919 16.5948H154.292C155.352 16.5948 156.254 16.7703 156.999 17.1212C157.751 17.465 158.324 17.9448 158.718 18.5607C159.119 19.1766 159.319 19.8891 159.319 20.6984C159.319 21.2856 159.205 21.8299 158.976 22.3312C158.754 22.8253 158.428 23.255 157.998 23.6202C157.568 23.9855 157.042 24.2684 156.419 24.4689C155.796 24.6694 155.087 24.7697 154.292 24.7697H148.985V13.1466H152.09V22.3634H154.292C154.757 22.3634 155.13 22.2882 155.409 22.1378C155.696 21.9803 155.903 21.7762 156.032 21.5255C156.168 21.2749 156.236 21.0027 156.236 20.7091C156.236 20.4012 156.168 20.1219 156.032 19.8712C155.903 19.6134 155.696 19.4057 155.409 19.2482C155.13 19.0906 154.757 19.0118 154.292 19.0118H150.919V16.5948ZM169.03 17.8409V20.2472H163.122V17.8409H169.03ZM164.153 13.1466V24.7697H161.06V13.1466H164.153ZM171.125 13.1466V24.7697H168.021V13.1466H171.125ZM175.669 16.5948H179.042C180.102 16.5948 181.004 16.7703 181.749 17.1212C182.501 17.465 183.074 17.9448 183.468 18.5607C183.869 19.1766 184.069 19.8891 184.069 20.6984C184.069 21.2856 183.955 21.8299 183.726 22.3312C183.504 22.8253 183.178 23.255 182.748 23.6202C182.318 23.9855 181.792 24.2684 181.169 24.4689C180.546 24.6694 179.837 24.7697 179.042 24.7697H173.735V13.1466H176.84V22.3634H179.042C179.507 22.3634 179.88 22.2882 180.159 22.1378C180.446 21.9803 180.653 21.7762 180.782 21.5255C180.918 21.2749 180.986 21.0027 180.986 20.7091C180.986 20.4012 180.918 20.1219 180.782 19.8712C180.653 19.6134 180.446 19.4057 180.159 19.2482C179.88 19.0906 179.507 19.0118 179.042 19.0118H175.669V16.5948ZM189.032 13.1466V24.7697H185.938V13.1466H189.032ZM197.1 24.9845C196.197 24.9845 195.388 24.8413 194.672 24.5548C193.956 24.2612 193.347 23.8566 192.846 23.3409C192.352 22.8253 191.972 22.2273 191.707 21.547C191.442 20.8595 191.31 20.129 191.31 19.3556V18.9259C191.31 18.045 191.435 17.2394 191.686 16.5089C191.936 15.7784 192.294 15.1447 192.76 14.6075C193.232 14.0704 193.805 13.6587 194.479 13.3722C195.152 13.0786 195.911 12.9318 196.756 12.9318C197.579 12.9318 198.31 13.0678 198.947 13.34C199.585 13.6121 200.118 13.9988 200.548 14.5001C200.985 15.0014 201.314 15.603 201.536 16.3048C201.758 16.9995 201.869 17.7729 201.869 18.6251V19.9142H192.631V17.8517H198.829V17.6154C198.829 17.1857 198.75 16.8025 198.593 16.4659C198.442 16.1222 198.213 15.8501 197.905 15.6495C197.597 15.449 197.203 15.3488 196.724 15.3488C196.315 15.3488 195.965 15.4383 195.671 15.6173C195.377 15.7963 195.137 16.047 194.951 16.3693C194.772 16.6915 194.636 17.0711 194.543 17.5079C194.457 17.9376 194.414 18.4103 194.414 18.9259V19.3556C194.414 19.8211 194.479 20.2508 194.607 20.6447C194.743 21.0385 194.933 21.3787 195.177 21.6652C195.427 21.9516 195.728 22.1736 196.079 22.3312C196.437 22.4887 196.842 22.5675 197.293 22.5675C197.852 22.5675 198.371 22.4601 198.851 22.2452C199.338 22.0232 199.757 21.6902 200.107 21.2462L201.611 22.879C201.368 23.2299 201.035 23.5665 200.612 23.8888C200.197 24.2111 199.696 24.476 199.108 24.6837C198.521 24.8842 197.852 24.9845 197.1 24.9845ZM98.1211 45.0763V44.8507C98.1211 43.9985 98.2428 43.2143 98.4863 42.4982C98.7298 41.7749 99.0843 41.1482 99.5498 40.6183C100.015 40.0883 100.588 39.6766 101.269 39.3829C101.949 39.0822 102.729 38.9318 103.61 38.9318C104.491 38.9318 105.275 39.0822 105.963 39.3829C106.65 39.6766 107.227 40.0883 107.692 40.6183C108.165 41.1482 108.523 41.7749 108.767 42.4982C109.01 43.2143 109.132 43.9985 109.132 44.8507V45.0763C109.132 45.9213 109.01 46.7055 108.767 47.4288C108.523 48.145 108.165 48.7716 107.692 49.3087C107.227 49.8387 106.654 50.2504 105.974 50.5441C105.293 50.8377 104.513 50.9845 103.632 50.9845C102.751 50.9845 101.967 50.8377 101.279 50.5441C100.599 50.2504 100.022 49.8387 99.5498 49.3087C99.0843 48.7716 98.7298 48.145 98.4863 47.4288C98.2428 46.7055 98.1211 45.9213 98.1211 45.0763ZM101.215 44.8507V45.0763C101.215 45.5633 101.258 46.018 101.344 46.4406C101.43 46.8631 101.566 47.2355 101.752 47.5577C101.945 47.8728 102.196 48.1199 102.504 48.299C102.812 48.478 103.188 48.5675 103.632 48.5675C104.062 48.5675 104.43 48.478 104.738 48.299C105.046 48.1199 105.293 47.8728 105.479 47.5577C105.666 47.2355 105.802 46.8631 105.888 46.4406C105.981 46.018 106.027 45.5633 106.027 45.0763V44.8507C106.027 44.3781 105.981 43.934 105.888 43.5187C105.802 43.0962 105.662 42.7238 105.469 42.4015C105.283 42.0721 105.035 41.8142 104.728 41.6281C104.42 41.4419 104.047 41.3488 103.61 41.3488C103.174 41.3488 102.801 41.4419 102.493 41.6281C102.192 41.8142 101.945 42.0721 101.752 42.4015C101.566 42.7238 101.43 43.0962 101.344 43.5187C101.258 43.934 101.215 44.3781 101.215 44.8507ZM116.651 39.1466V50.7697H113.547V39.1466H116.651ZM120.39 39.1466V41.5421H109.862V39.1466H120.39ZM127.146 45.2267H124.848V43.8409H126.491C126.878 43.8409 127.186 43.7872 127.415 43.6798C127.651 43.5724 127.82 43.422 127.92 43.2286C128.027 43.0281 128.081 42.8025 128.081 42.5519C128.081 42.3299 128.035 42.1186 127.941 41.9181C127.855 41.7104 127.698 41.5421 127.469 41.4132C127.247 41.2771 126.932 41.2091 126.523 41.2091C126.187 41.2091 125.886 41.2592 125.621 41.3595C125.363 41.4598 125.159 41.6066 125.009 41.7999C124.866 41.9861 124.794 42.2117 124.794 42.4767H121.689C121.689 41.7391 121.901 41.1088 122.323 40.5861C122.746 40.0561 123.312 39.6515 124.021 39.3722C124.729 39.0857 125.507 38.9425 126.352 38.9425C127.089 38.9425 127.755 39.0177 128.35 39.1681C128.944 39.3113 129.452 39.5262 129.875 39.8126C130.298 40.0991 130.62 40.4536 130.842 40.8761C131.071 41.2915 131.186 41.7749 131.186 42.3263C131.186 42.7202 131.092 43.0926 130.906 43.4435C130.72 43.7944 130.451 44.1059 130.101 44.3781C129.75 44.643 129.324 44.8507 128.822 45.0011C128.328 45.1515 127.77 45.2267 127.146 45.2267ZM124.848 44.4532H127.146C127.841 44.4532 128.45 44.5213 128.973 44.6573C129.503 44.7863 129.947 44.9796 130.305 45.2374C130.663 45.4952 130.931 45.8139 131.11 46.1935C131.297 46.5659 131.39 46.9956 131.39 47.4825C131.39 48.034 131.268 48.5281 131.024 48.965C130.781 49.3947 130.434 49.7599 129.982 50.0607C129.531 50.3615 128.998 50.5906 128.382 50.7482C127.766 50.9057 127.089 50.9845 126.352 50.9845C125.564 50.9845 124.798 50.8556 124.053 50.5978C123.308 50.34 122.696 49.9425 122.216 49.4054C121.743 48.8683 121.507 48.1772 121.507 47.3322H124.611C124.611 47.5756 124.683 47.8048 124.826 48.0197C124.969 48.2345 125.184 48.4064 125.471 48.5353C125.757 48.657 126.112 48.7179 126.534 48.7179C126.957 48.7179 127.297 48.6499 127.555 48.5138C127.812 48.3777 127.999 48.1987 128.113 47.9767C128.235 47.7475 128.296 47.5112 128.296 47.2677C128.296 46.924 128.228 46.6447 128.092 46.4298C127.963 46.215 127.762 46.0574 127.49 45.9572C127.225 45.8569 126.892 45.8068 126.491 45.8068H124.848V44.4532ZM135.429 42.5948H138.802C139.862 42.5948 140.764 42.7703 141.509 43.1212C142.261 43.465 142.834 43.9448 143.228 44.5607C143.629 45.1766 143.829 45.8891 143.829 46.6984C143.829 47.2856 143.715 47.8299 143.485 48.3312C143.263 48.8253 142.938 49.255 142.508 49.6202C142.078 49.9855 141.552 50.2684 140.929 50.4689C140.306 50.6694 139.597 50.7697 138.802 50.7697H133.495V39.1466H136.6V48.3634H138.802C139.267 48.3634 139.64 48.2882 139.919 48.1378C140.205 47.9803 140.413 47.7762 140.542 47.5255C140.678 47.2749 140.746 47.0027 140.746 46.7091C140.746 46.4012 140.678 46.1219 140.542 45.8712C140.413 45.6134 140.205 45.4057 139.919 45.2482C139.64 45.0906 139.267 45.0118 138.802 45.0118H135.429V42.5948ZM148.792 39.1466V50.7697H145.698V39.1466H148.792ZM157.3 45.9142H153.658L153.637 43.8839H156.645C157.046 43.8839 157.371 43.8445 157.622 43.7657C157.873 43.6798 158.055 43.5545 158.17 43.3898C158.292 43.2179 158.353 43.0102 158.353 42.7667C158.353 42.5519 158.313 42.3693 158.234 42.2189C158.163 42.0613 158.052 41.9324 157.901 41.8322C157.751 41.7319 157.561 41.6603 157.332 41.6173C157.11 41.5672 156.849 41.5421 156.548 41.5421H154.808V50.7697H151.714V39.1466H156.548C157.307 39.1466 157.987 39.2146 158.589 39.3507C159.19 39.4796 159.702 39.6766 160.125 39.9415C160.555 40.2065 160.881 40.5431 161.103 40.9513C161.332 41.3523 161.446 41.8286 161.446 42.38C161.446 42.7381 161.364 43.0747 161.199 43.3898C161.042 43.7049 160.805 43.9842 160.49 44.2277C160.175 44.4712 159.785 44.6717 159.319 44.8292C158.861 44.9796 158.331 45.0727 157.729 45.1085L157.3 45.9142ZM157.3 50.7697H152.896L153.959 48.3741H157.3C157.679 48.3741 157.991 48.3276 158.234 48.2345C158.478 48.1414 158.657 48.0053 158.771 47.8263C158.893 47.6401 158.954 47.4181 158.954 47.1603C158.954 46.9096 158.9 46.6912 158.793 46.505C158.686 46.3188 158.51 46.1756 158.267 46.0753C158.03 45.9679 157.708 45.9142 157.3 45.9142H154.41L154.432 43.8839H157.719L158.471 44.7003C159.287 44.7504 159.96 44.9044 160.49 45.1622C161.02 45.42 161.41 45.7495 161.661 46.1505C161.919 46.5444 162.048 46.9777 162.048 47.4503C162.048 48.0017 161.944 48.4851 161.736 48.9005C161.529 49.3159 161.221 49.6632 160.812 49.9425C160.411 50.2146 159.917 50.4223 159.33 50.5656C158.743 50.7016 158.066 50.7697 157.3 50.7697ZM166.087 42.5948H169.46C170.52 42.5948 171.422 42.7703 172.167 43.1212C172.919 43.465 173.492 43.9448 173.886 44.5607C174.287 45.1766 174.487 45.8891 174.487 46.6984C174.487 47.2856 174.373 47.8299 174.144 48.3312C173.922 48.8253 173.596 49.255 173.166 49.6202C172.736 49.9855 172.21 50.2684 171.587 50.4689C170.964 50.6694 170.255 50.7697 169.46 50.7697H164.153V39.1466H167.258V48.3634H169.46C169.925 48.3634 170.298 48.2882 170.577 48.1378C170.864 47.9803 171.071 47.7762 171.2 47.5255C171.336 47.2749 171.404 47.0027 171.404 46.7091C171.404 46.4012 171.336 46.1219 171.2 45.8712C171.071 45.6134 170.864 45.4057 170.577 45.2482C170.298 45.0906 169.925 45.0118 169.46 45.0118H166.087V42.5948ZM179.45 39.1466V50.7697H176.356V39.1466H179.45Z" fill="white"/>
</svg>
