<svg width="172" height="61" viewBox="0 0 172 61" fill="none" xmlns="http://www.w3.org/2000/svg">
<path fill-rule="evenodd" clip-rule="evenodd" d="M23.1513 7.77648L19.2588 11.6656C18.9445 11.98 18.5184 12.1571 18.0738 12.1582H11.9491C9.11752 12.1582 6.82333 14.4524 6.82333 17.2839V23.4087C6.82246 23.8543 6.64538 24.2815 6.33074 24.5971L2.4382 28.4862C1.4773 29.4474 0.9375 30.7509 0.9375 32.11C0.9375 33.4692 1.4773 34.7727 2.4382 35.7339L6.33074 39.6264C6.64518 39.9407 6.8223 40.3668 6.82333 40.8114V46.9361C6.82333 49.7677 9.11752 52.0619 11.9491 52.0619H18.0738C18.5195 52.0628 18.9467 52.2398 19.2622 52.5545L23.1513 56.447C24.1126 57.4079 25.4161 57.9477 26.7752 57.9477C28.1343 57.9477 29.4378 57.4079 30.399 56.447L34.2916 52.5545C34.6059 52.2401 35.032 52.0629 35.4766 52.0619H41.6013C44.4329 52.0619 46.7271 49.7677 46.7271 46.9361V40.8114C46.7279 40.3658 46.905 39.9386 47.2197 39.623L51.1122 35.7339C52.0731 34.7727 52.6129 33.4692 52.6129 32.11C52.6129 30.7509 52.0731 29.4474 51.1122 28.4862L47.2197 24.5936C46.9052 24.2793 46.7281 23.8532 46.7271 23.4087V17.2839C46.7271 14.4524 44.4329 12.1582 41.6013 12.1582H35.4766C35.0308 12.158 34.6033 11.9809 34.2881 11.6656L30.399 7.77304C29.4378 6.81214 28.1343 6.27234 26.7752 6.27234C25.4161 6.27234 24.1126 6.81558 23.1513 7.77648ZM16.9439 39.5024L34.1676 22.2788L36.6064 24.7176L19.3828 41.9413L16.9439 39.5024ZM18.1634 23.4982V26.9429H21.6081V23.4982H18.1634ZM31.9423 40.7219H35.387V37.2771H31.9423V40.7219Z" fill="#77BE1D"/>
<path d="M84.2314 15.5044V18.0181H76.0674V15.5044H84.2314ZM77.0234 9.13428V24.7749H73.8008V9.13428H77.0234ZM86.5303 9.13428V24.7749H83.3184V9.13428H86.5303ZM92.2236 20.4565L96.123 13.1519H99.2168V24.7749H96.123V17.4595L92.2236 24.7749H89.1299V13.1519H92.2236V20.4565ZM106.779 19.2319H104.48V17.8462H106.124C106.511 17.8462 106.819 17.7925 107.048 17.6851C107.284 17.5776 107.452 17.4272 107.553 17.2339C107.66 17.0334 107.714 16.8078 107.714 16.5571C107.714 16.3351 107.667 16.1239 107.574 15.9233C107.488 15.7157 107.331 15.5474 107.102 15.4185C106.88 15.2824 106.564 15.2144 106.156 15.2144C105.82 15.2144 105.519 15.2645 105.254 15.3647C104.996 15.465 104.792 15.6118 104.642 15.8052C104.498 15.9914 104.427 16.217 104.427 16.4819H101.322C101.322 15.7443 101.534 15.1141 101.956 14.5913C102.379 14.0614 102.944 13.6567 103.653 13.3774C104.362 13.091 105.139 12.9478 105.984 12.9478C106.722 12.9478 107.388 13.0229 107.982 13.1733C108.577 13.3166 109.085 13.5314 109.508 13.8179C109.93 14.1043 110.253 14.4588 110.475 14.8813C110.704 15.2967 110.818 15.7801 110.818 16.3315C110.818 16.7254 110.725 17.0978 110.539 17.4487C110.353 17.7996 110.084 18.1112 109.733 18.3833C109.382 18.6483 108.956 18.856 108.455 19.0063C107.961 19.1567 107.402 19.2319 106.779 19.2319ZM104.48 18.4585H106.779C107.474 18.4585 108.083 18.5265 108.605 18.6626C109.135 18.7915 109.579 18.9849 109.938 19.2427C110.296 19.5005 110.564 19.8192 110.743 20.1987C110.929 20.5711 111.022 21.0008 111.022 21.4878C111.022 22.0392 110.901 22.5334 110.657 22.9702C110.414 23.3999 110.066 23.7651 109.615 24.0659C109.164 24.3667 108.631 24.5959 108.015 24.7534C107.399 24.911 106.722 24.9897 105.984 24.9897C105.197 24.9897 104.43 24.8608 103.686 24.603C102.941 24.3452 102.328 23.9478 101.849 23.4106C101.376 22.8735 101.14 22.1825 101.14 21.3374H104.244C104.244 21.5809 104.316 21.8101 104.459 22.0249C104.602 22.2397 104.817 22.4116 105.104 22.5405C105.39 22.6623 105.744 22.7231 106.167 22.7231C106.59 22.7231 106.93 22.6551 107.188 22.519C107.445 22.383 107.632 22.2039 107.746 21.9819C107.868 21.7528 107.929 21.5164 107.929 21.2729C107.929 20.9292 107.861 20.6499 107.725 20.4351C107.596 20.2202 107.395 20.0627 107.123 19.9624C106.858 19.8621 106.525 19.812 106.124 19.812H104.48V18.4585ZM116.222 13.1519V24.7749H113.128V13.1519H116.222ZM123.773 13.1519L118.768 20.4243H115.674L115.298 17.5669H117.35L119.853 13.1519H123.773ZM119.992 24.7749L117.135 19.8657L119.831 18.3726L124.139 24.7749H119.992ZM128.382 20.4565L132.281 13.1519H135.375V24.7749H132.281V17.4595L128.382 24.7749H125.288V13.1519H128.382V20.4565ZM143.109 24.9897C142.207 24.9897 141.398 24.8465 140.682 24.5601C139.965 24.2664 139.357 23.8618 138.855 23.3462C138.361 22.8306 137.982 22.2326 137.717 21.5522C137.452 20.8647 137.319 20.1343 137.319 19.3608V18.9312C137.319 18.0503 137.445 17.2446 137.695 16.5142C137.946 15.7837 138.304 15.1499 138.77 14.6128C139.242 14.0757 139.815 13.6639 140.488 13.3774C141.161 13.0838 141.921 12.937 142.766 12.937C143.589 12.937 144.32 13.0731 144.957 13.3452C145.594 13.6174 146.128 14.0041 146.558 14.5054C146.994 15.0067 147.324 15.6082 147.546 16.3101C147.768 17.0047 147.879 17.7782 147.879 18.6304V19.9194H138.641V17.8569H144.839V17.6206C144.839 17.1909 144.76 16.8078 144.603 16.4712C144.452 16.1274 144.223 15.8553 143.915 15.6548C143.607 15.4543 143.213 15.354 142.733 15.354C142.325 15.354 141.974 15.4435 141.681 15.6226C141.387 15.8016 141.147 16.0522 140.961 16.3745C140.782 16.6968 140.646 17.0763 140.553 17.5132C140.467 17.9429 140.424 18.4155 140.424 18.9312V19.3608C140.424 19.8263 140.488 20.256 140.617 20.6499C140.753 21.0438 140.943 21.384 141.187 21.6704C141.437 21.9569 141.738 22.1789 142.089 22.3364C142.447 22.494 142.852 22.5728 143.303 22.5728C143.861 22.5728 144.381 22.4653 144.86 22.2505C145.347 22.0285 145.766 21.6955 146.117 21.2515L147.621 22.8843C147.378 23.2352 147.045 23.5718 146.622 23.894C146.207 24.2163 145.705 24.4813 145.118 24.689C144.531 24.8895 143.861 24.9897 143.109 24.9897ZM73.5967 50.7749V39.1519H76.6904V48.3579H80.5791V39.1519H83.6836V50.7749H73.5967ZM85.4238 48.3687L85.2197 54.2231H82.3408V50.7749H81.041V48.3687H85.4238ZM92.3418 50.9897C91.4395 50.9897 90.6302 50.8465 89.9141 50.5601C89.1979 50.2664 88.5892 49.8618 88.0879 49.3462C87.5938 48.8306 87.2142 48.2326 86.9492 47.5522C86.6842 46.8647 86.5518 46.1343 86.5518 45.3608V44.9312C86.5518 44.0503 86.6771 43.2446 86.9277 42.5142C87.1784 41.7837 87.5365 41.1499 88.002 40.6128C88.4746 40.0757 89.0475 39.6639 89.7207 39.3774C90.3939 39.0838 91.153 38.937 91.998 38.937C92.8216 38.937 93.5521 39.0731 94.1895 39.3452C94.8268 39.6174 95.3604 40.0041 95.79 40.5054C96.2269 41.0067 96.5563 41.6082 96.7783 42.3101C97.0003 43.0047 97.1113 43.7782 97.1113 44.6304V45.9194H87.873V43.8569H94.0713V43.6206C94.0713 43.1909 93.9925 42.8078 93.835 42.4712C93.6846 42.1274 93.4554 41.8553 93.1475 41.6548C92.8395 41.4543 92.4456 41.354 91.9658 41.354C91.5576 41.354 91.2067 41.4435 90.9131 41.6226C90.6195 41.8016 90.3796 42.0522 90.1934 42.3745C90.0143 42.6968 89.8783 43.0763 89.7852 43.5132C89.6992 43.9429 89.6562 44.4155 89.6562 44.9312V45.3608C89.6562 45.8263 89.7207 46.256 89.8496 46.6499C89.9857 47.0438 90.1755 47.384 90.4189 47.6704C90.6696 47.9569 90.9704 48.1789 91.3213 48.3364C91.6794 48.494 92.084 48.5728 92.5352 48.5728C93.0938 48.5728 93.613 48.4653 94.0928 48.2505C94.5798 48.0285 94.9987 47.6955 95.3496 47.2515L96.8535 48.8843C96.61 49.2352 96.277 49.5718 95.8545 49.894C95.4391 50.2163 94.9378 50.4813 94.3506 50.689C93.7633 50.8895 93.0938 50.9897 92.3418 50.9897ZM106.833 43.8462V46.2524H100.925V43.8462H106.833ZM101.956 39.1519V50.7749H98.8623V39.1519H101.956ZM108.928 39.1519V50.7749H105.823V39.1519H108.928ZM113.472 42.6001H116.845C117.905 42.6001 118.807 42.7756 119.552 43.1265C120.304 43.4702 120.877 43.95 121.271 44.5659C121.672 45.1818 121.872 45.8944 121.872 46.7036C121.872 47.2909 121.757 47.8351 121.528 48.3364C121.306 48.8306 120.98 49.2603 120.551 49.6255C120.121 49.9907 119.595 50.2736 118.972 50.4741C118.349 50.6746 117.64 50.7749 116.845 50.7749H111.538V39.1519H114.643V48.3687H116.845C117.31 48.3687 117.683 48.2935 117.962 48.1431C118.248 47.9855 118.456 47.7814 118.585 47.5308C118.721 47.2801 118.789 47.008 118.789 46.7144C118.789 46.4064 118.721 46.1271 118.585 45.8765C118.456 45.6187 118.248 45.411 117.962 45.2534C117.683 45.0959 117.31 45.0171 116.845 45.0171H113.472V42.6001ZM126.835 39.1519V50.7749H123.741V39.1519H126.835Z" fill="white"/>
</svg>
