<svg width="264" height="71" viewBox="0 0 264 71" fill="none" xmlns="http://www.w3.org/2000/svg">
<path fill-rule="evenodd" clip-rule="evenodd" d="M0.0664062 28.6741C0.0664062 13.2661 12.5576 0.774902 27.9656 0.774902H41.4342C56.8423 0.774902 69.3334 13.2661 69.3334 28.6741C69.3334 44.0822 56.8423 56.5733 41.4342 56.5733H40.0873V70.0419C40.0873 70.0419 0.0664062 63.3076 0.0664062 28.6741ZM41.8017 13.2468C43.7835 14.5629 45.2785 16.6967 45.2785 19.5578C45.2785 22.594 44.0529 24.8259 42.0692 26.192C41.286 26.7222 40.4216 27.1213 39.5101 27.3734V30.3211C39.5101 30.7001 39.4355 31.0754 39.2904 31.4256C39.1454 31.7758 38.9328 32.0939 38.6648 32.3619C38.3968 32.6299 38.0786 32.8425 37.7285 32.9876C37.3783 33.1326 37.003 33.2073 36.624 33.2073C36.245 33.2073 35.8697 33.1326 35.5195 32.9876C35.1694 32.8425 34.8512 32.6299 34.5832 32.3619C34.3152 32.0939 34.1026 31.7758 33.9576 31.4256C33.8125 31.0754 33.7379 30.7001 33.7379 30.3211V24.9395C33.7377 24.2072 34.0159 23.5023 34.516 22.9675C35.0162 22.4326 35.701 22.1079 36.4316 22.0591C37.4975 21.9879 38.3056 21.7763 38.7944 21.4396C38.9917 21.3088 39.151 21.1283 39.2561 20.9162C39.3716 20.6853 39.5063 20.2736 39.5063 19.5559C39.5063 18.9536 39.2696 18.4938 38.6058 18.0513C37.8516 17.551 36.6394 17.1816 35.1829 17.1354C33.7436 17.0892 32.3448 17.3701 31.3154 17.8685C30.2841 18.3687 29.907 18.9306 29.7993 19.3442C29.712 19.7186 29.5508 20.0718 29.3251 20.383C29.0994 20.6942 28.8139 20.9572 28.4852 21.1565C28.1565 21.3559 27.7913 21.4875 27.411 21.5438C27.0307 21.6001 26.643 21.5798 26.2707 21.4842C25.8984 21.3886 25.5489 21.2195 25.2428 20.987C24.9366 20.7545 24.6801 20.4631 24.4881 20.1301C24.2961 19.797 24.1726 19.429 24.1248 19.0476C24.077 18.6661 24.1059 18.279 24.2098 17.9089C24.8717 15.3287 26.8035 13.6432 28.7987 12.6754C30.7998 11.7037 33.153 11.2939 35.3676 11.3651C37.5649 11.4343 39.9123 11.9885 41.8017 13.2468ZM36.624 45.0288C37.6446 45.0288 38.6234 44.6234 39.3451 43.9017C40.0667 43.1801 40.4722 42.2013 40.4722 41.1807C40.4722 40.1601 40.0667 39.1813 39.3451 38.4596C38.6234 37.7379 37.6446 37.3325 36.624 37.3325C35.6034 37.3325 34.6246 37.7379 33.9029 38.4596C33.1813 39.1813 32.7758 40.1601 32.7758 41.1807C32.7758 42.2013 33.1813 43.1801 33.9029 43.9017C34.6246 44.6234 35.6034 45.0288 36.624 45.0288Z" fill="#77BE1D"/>
<path d="M104.11 9.13428V24.7749H100.898V9.13428H104.11ZM108.923 9.13428V11.6587H96.1611V9.13428H108.923ZM114.906 24.9897C114.004 24.9897 113.195 24.8465 112.479 24.5601C111.762 24.2664 111.154 23.8618 110.652 23.3462C110.158 22.8306 109.779 22.2326 109.514 21.5522C109.249 20.8647 109.116 20.1343 109.116 19.3608V18.9312C109.116 18.0503 109.242 17.2446 109.492 16.5142C109.743 15.7837 110.101 15.1499 110.566 14.6128C111.039 14.0757 111.612 13.6639 112.285 13.3774C112.958 13.0838 113.717 12.937 114.562 12.937C115.386 12.937 116.117 13.0731 116.754 13.3452C117.391 13.6174 117.925 14.0041 118.354 14.5054C118.791 15.0067 119.121 15.6082 119.343 16.3101C119.565 17.0047 119.676 17.7782 119.676 18.6304V19.9194H110.438V17.8569H116.636V17.6206C116.636 17.1909 116.557 16.8078 116.399 16.4712C116.249 16.1274 116.02 15.8553 115.712 15.6548C115.404 15.4543 115.01 15.354 114.53 15.354C114.122 15.354 113.771 15.4435 113.478 15.6226C113.184 15.8016 112.944 16.0522 112.758 16.3745C112.579 16.6968 112.443 17.0763 112.35 17.5132C112.264 17.9429 112.221 18.4155 112.221 18.9312V19.3608C112.221 19.8263 112.285 20.256 112.414 20.6499C112.55 21.0438 112.74 21.384 112.983 21.6704C113.234 21.9569 113.535 22.1789 113.886 22.3364C114.244 22.494 114.648 22.5728 115.1 22.5728C115.658 22.5728 116.177 22.4653 116.657 22.2505C117.144 22.0285 117.563 21.6955 117.914 21.2515L119.418 22.8843C119.174 23.2352 118.841 23.5718 118.419 23.894C118.004 24.2163 117.502 24.4813 116.915 24.689C116.328 24.8895 115.658 24.9897 114.906 24.9897ZM123.93 13.1519L125.853 16.686L127.829 13.1519H131.127L127.84 18.8345L131.277 24.7749H127.969L125.874 21.0366L123.779 24.7749H120.471L123.908 18.8345L120.621 13.1519H123.93ZM140.591 17.8462V20.2524H134.683V17.8462H140.591ZM135.714 13.1519V24.7749H132.62V13.1519H135.714ZM142.686 13.1519V24.7749H139.581V13.1519H142.686ZM148.175 20.4565L152.074 13.1519H155.168V24.7749H152.074V17.4595L148.175 24.7749H145.081V13.1519H148.175V20.4565ZM167.35 13.1519V24.7749H164.245V13.1519H167.35ZM165.889 18.1255V20.5425C165.652 20.6642 165.348 20.7788 164.976 20.8862C164.603 20.9937 164.209 21.0796 163.794 21.144C163.386 21.2013 163.006 21.23 162.655 21.23C161.538 21.23 160.578 21.076 159.776 20.7681C158.981 20.4601 158.369 19.9767 157.939 19.3179C157.51 18.659 157.295 17.814 157.295 16.7827V13.1411H160.389V16.7827C160.389 17.3055 160.467 17.7173 160.625 18.0181C160.783 18.3117 161.026 18.5194 161.355 18.6411C161.692 18.7557 162.125 18.813 162.655 18.813C163.028 18.813 163.389 18.7843 163.74 18.7271C164.091 18.6698 164.442 18.591 164.793 18.4907C165.144 18.3905 165.509 18.2687 165.889 18.1255ZM175.084 24.9897C174.182 24.9897 173.372 24.8465 172.656 24.5601C171.94 24.2664 171.331 23.8618 170.83 23.3462C170.336 22.8306 169.956 22.2326 169.691 21.5522C169.426 20.8647 169.294 20.1343 169.294 19.3608V18.9312C169.294 18.0503 169.419 17.2446 169.67 16.5142C169.921 15.7837 170.279 15.1499 170.744 14.6128C171.217 14.0757 171.79 13.6639 172.463 13.3774C173.136 13.0838 173.895 12.937 174.74 12.937C175.564 12.937 176.294 13.0731 176.932 13.3452C177.569 13.6174 178.103 14.0041 178.532 14.5054C178.969 15.0067 179.299 15.6082 179.521 16.3101C179.743 17.0047 179.854 17.7782 179.854 18.6304V19.9194H170.615V17.8569H176.813V17.6206C176.813 17.1909 176.735 16.8078 176.577 16.4712C176.427 16.1274 176.198 15.8553 175.89 15.6548C175.582 15.4543 175.188 15.354 174.708 15.354C174.3 15.354 173.949 15.4435 173.655 15.6226C173.362 15.8016 173.122 16.0522 172.936 16.3745C172.757 16.6968 172.62 17.0763 172.527 17.5132C172.441 17.9429 172.398 18.4155 172.398 18.9312V19.3608C172.398 19.8263 172.463 20.256 172.592 20.6499C172.728 21.0438 172.918 21.384 173.161 21.6704C173.412 21.9569 173.713 22.1789 174.063 22.3364C174.422 22.494 174.826 22.5728 175.277 22.5728C175.836 22.5728 176.355 22.4653 176.835 22.2505C177.322 22.0285 177.741 21.6955 178.092 21.2515L179.596 22.8843C179.352 23.2352 179.019 23.5718 178.597 23.894C178.181 24.2163 177.68 24.4813 177.093 24.689C176.506 24.8895 175.836 24.9897 175.084 24.9897ZM186.417 22.5728C186.797 22.5728 187.133 22.5011 187.427 22.3579C187.72 22.2075 187.95 21.9998 188.114 21.7349C188.286 21.4627 188.376 21.144 188.383 20.7788H191.294C191.287 21.5952 191.068 22.3221 190.639 22.9595C190.209 23.5897 189.632 24.0874 188.909 24.4526C188.186 24.8107 187.377 24.9897 186.481 24.9897C185.579 24.9897 184.791 24.8394 184.118 24.5386C183.452 24.2378 182.897 23.8224 182.453 23.2925C182.009 22.7554 181.676 22.1323 181.454 21.4233C181.232 20.7072 181.121 19.9409 181.121 19.1245V18.813C181.121 17.9894 181.232 17.2231 181.454 16.5142C181.676 15.798 182.009 15.175 182.453 14.645C182.897 14.1079 183.452 13.689 184.118 13.3882C184.784 13.0874 185.565 12.937 186.46 12.937C187.412 12.937 188.247 13.1196 188.963 13.4849C189.686 13.8501 190.252 14.3729 190.66 15.0532C191.076 15.7264 191.287 16.5249 191.294 17.4487H188.383C188.376 17.062 188.293 16.7111 188.136 16.396C187.985 16.0809 187.763 15.8302 187.47 15.644C187.183 15.4507 186.829 15.354 186.406 15.354C185.955 15.354 185.586 15.4507 185.3 15.644C185.013 15.8302 184.791 16.0881 184.634 16.4175C184.476 16.7397 184.365 17.1086 184.301 17.5239C184.243 17.9321 184.215 18.3618 184.215 18.813V19.1245C184.215 19.5757 184.243 20.009 184.301 20.4243C184.358 20.8397 184.465 21.2085 184.623 21.5308C184.788 21.853 185.013 22.1073 185.3 22.2935C185.586 22.4797 185.959 22.5728 186.417 22.5728ZM196.386 13.1519V24.7749H193.292V13.1519H196.386ZM203.938 13.1519L198.932 20.4243H195.838L195.462 17.5669H197.514L200.017 13.1519H203.938ZM200.156 24.7749L197.299 19.8657L199.995 18.3726L204.303 24.7749H200.156ZM211.736 22.1538V16.9761C211.736 16.6037 211.675 16.285 211.554 16.02C211.432 15.7479 211.242 15.5366 210.984 15.3862C210.734 15.2358 210.408 15.1606 210.007 15.1606C209.663 15.1606 209.366 15.2215 209.115 15.3433C208.865 15.4578 208.671 15.6261 208.535 15.8481C208.399 16.063 208.331 16.3172 208.331 16.6108H205.237C205.237 16.1167 205.352 15.6476 205.581 15.2036C205.81 14.7596 206.143 14.3693 206.58 14.0327C207.017 13.689 207.536 13.4204 208.138 13.2271C208.746 13.0337 209.427 12.937 210.179 12.937C211.081 12.937 211.883 13.0874 212.585 13.3882C213.287 13.689 213.838 14.1401 214.239 14.7417C214.647 15.3433 214.852 16.0952 214.852 16.9976V21.9712C214.852 22.6086 214.891 23.1313 214.97 23.5396C215.049 23.9406 215.163 24.2915 215.313 24.5923V24.7749H212.188C212.037 24.4598 211.923 24.0659 211.844 23.5933C211.772 23.1134 211.736 22.6336 211.736 22.1538ZM212.145 17.6958L212.166 19.4468H210.437C210.028 19.4468 209.674 19.4933 209.373 19.5864C209.072 19.6795 208.825 19.812 208.632 19.9839C208.438 20.1486 208.295 20.342 208.202 20.564C208.116 20.786 208.073 21.0295 208.073 21.2944C208.073 21.5594 208.134 21.7993 208.256 22.0142C208.378 22.2218 208.553 22.3866 208.782 22.5083C209.011 22.6229 209.28 22.6802 209.588 22.6802C210.053 22.6802 210.458 22.5871 210.802 22.4009C211.146 22.2147 211.41 21.9855 211.597 21.7134C211.79 21.4412 211.89 21.1834 211.897 20.9399L212.714 22.2505C212.599 22.5441 212.442 22.8485 212.241 23.1636C212.048 23.4787 211.801 23.7759 211.5 24.0552C211.199 24.3273 210.838 24.5529 210.415 24.7319C209.993 24.9038 209.491 24.9897 208.911 24.9897C208.174 24.9897 207.504 24.8429 206.902 24.5493C206.308 24.2485 205.835 23.8368 205.484 23.314C205.141 22.784 204.969 22.1825 204.969 21.5093C204.969 20.9006 205.083 20.3599 205.312 19.8872C205.542 19.4146 205.878 19.0171 206.322 18.6948C206.773 18.3654 207.336 18.1183 208.009 17.9536C208.682 17.7817 209.463 17.6958 210.351 17.6958H212.145ZM219.739 18.9741H222.876L219.643 24.7749H216.517L219.739 18.9741ZM221.823 13.1519H226.926V24.7749H223.832V15.5474H221.823C221.401 15.5474 221.05 15.6261 220.771 15.7837C220.491 15.9341 220.284 16.131 220.147 16.3745C220.019 16.6108 219.954 16.8543 219.954 17.105C219.954 17.3485 220.019 17.5848 220.147 17.814C220.276 18.0431 220.477 18.2329 220.749 18.3833C221.021 18.5337 221.361 18.6089 221.77 18.6089H224.981V20.7144H221.77C221.003 20.7144 220.316 20.6213 219.707 20.4351C219.105 20.2489 218.59 19.991 218.16 19.6616C217.738 19.325 217.412 18.9347 217.183 18.4907C216.961 18.0396 216.85 17.5454 216.85 17.0083C216.85 16.4497 216.964 15.9377 217.193 15.4722C217.423 15.0067 217.752 14.5985 218.182 14.2476C218.611 13.8966 219.131 13.6281 219.739 13.4419C220.355 13.2485 221.05 13.1519 221.823 13.1519ZM104.744 39.1519V41.5796H99.1152V39.1519H104.744ZM100.007 39.1519V50.7749H96.9131V39.1519H100.007ZM107 39.1519V50.7749H103.896V39.1519H107ZM108.891 45.0815V44.856C108.891 44.0037 109.012 43.2196 109.256 42.5034C109.499 41.7801 109.854 41.1535 110.319 40.6235C110.785 40.0936 111.358 39.6818 112.038 39.3882C112.718 39.0874 113.499 38.937 114.38 38.937C115.261 38.937 116.045 39.0874 116.732 39.3882C117.42 39.6818 117.996 40.0936 118.462 40.6235C118.935 41.1535 119.293 41.7801 119.536 42.5034C119.78 43.2196 119.901 44.0037 119.901 44.856V45.0815C119.901 45.9266 119.78 46.7108 119.536 47.4341C119.293 48.1502 118.935 48.7769 118.462 49.314C117.996 49.8439 117.424 50.2557 116.743 50.5493C116.063 50.8429 115.282 50.9897 114.401 50.9897C113.521 50.9897 112.736 50.8429 112.049 50.5493C111.368 50.2557 110.792 49.8439 110.319 49.314C109.854 48.7769 109.499 48.1502 109.256 47.4341C109.012 46.7108 108.891 45.9266 108.891 45.0815ZM111.984 44.856V45.0815C111.984 45.5685 112.027 46.0233 112.113 46.4458C112.199 46.8683 112.335 47.2407 112.521 47.563C112.715 47.8781 112.965 48.1252 113.273 48.3042C113.581 48.4832 113.957 48.5728 114.401 48.5728C114.831 48.5728 115.2 48.4832 115.508 48.3042C115.816 48.1252 116.063 47.8781 116.249 47.563C116.435 47.2407 116.571 46.8683 116.657 46.4458C116.75 46.0233 116.797 45.5685 116.797 45.0815V44.856C116.797 44.3833 116.75 43.9393 116.657 43.5239C116.571 43.1014 116.432 42.729 116.238 42.4067C116.052 42.0773 115.805 41.8195 115.497 41.6333C115.189 41.4471 114.817 41.354 114.38 41.354C113.943 41.354 113.571 41.4471 113.263 41.6333C112.962 41.8195 112.715 42.0773 112.521 42.4067C112.335 42.729 112.199 43.1014 112.113 43.5239C112.027 43.9393 111.984 44.3833 111.984 44.856ZM123.124 39.1519H126.218L126.121 43.0405C126.092 44.2866 125.949 45.3573 125.691 46.2524C125.434 47.1476 125.09 47.8996 124.66 48.5083C124.23 49.117 123.74 49.604 123.188 49.9692C122.644 50.3273 122.071 50.5959 121.47 50.7749H120.89L120.857 48.3901L121.18 48.3579C121.545 47.9784 121.846 47.6095 122.082 47.2515C122.318 46.8862 122.501 46.5031 122.63 46.1021C122.759 45.701 122.852 45.2534 122.909 44.7593C122.974 44.2651 123.013 43.6922 123.027 43.0405L123.124 39.1519ZM123.962 39.1519H131.664V50.7749H128.581V41.6333H123.962V39.1519ZM120.181 48.3579H133.329V54.2661H130.235V50.7749H123.35V54.2661H120.181V48.3579ZM137.218 39.1519H140.312L140.215 43.0405C140.186 44.2866 140.043 45.3573 139.785 46.2524C139.527 47.1476 139.184 47.8996 138.754 48.5083C138.324 49.117 137.834 49.604 137.282 49.9692C136.738 50.3273 136.165 50.5959 135.563 50.7749H134.983L134.951 48.3901L135.273 48.3579C135.639 47.9784 135.939 47.6095 136.176 47.2515C136.412 46.8862 136.595 46.5031 136.724 46.1021C136.853 45.701 136.946 45.2534 137.003 44.7593C137.067 44.2651 137.107 43.6922 137.121 43.0405L137.218 39.1519ZM138.056 39.1519H145.758V50.7749H142.675V41.6333H138.056V39.1519ZM134.274 48.3579H147.423V54.2661H144.329V50.7749H137.443V54.2661H134.274V48.3579ZM154.352 50.9897C153.449 50.9897 152.64 50.8465 151.924 50.5601C151.208 50.2664 150.599 49.8618 150.098 49.3462C149.604 48.8306 149.224 48.2326 148.959 47.5522C148.694 46.8647 148.562 46.1343 148.562 45.3608V44.9312C148.562 44.0503 148.687 43.2446 148.938 42.5142C149.188 41.7837 149.546 41.1499 150.012 40.6128C150.484 40.0757 151.057 39.6639 151.73 39.3774C152.404 39.0838 153.163 38.937 154.008 38.937C154.831 38.937 155.562 39.0731 156.199 39.3452C156.837 39.6174 157.37 40.0041 157.8 40.5054C158.237 41.0067 158.566 41.6082 158.788 42.3101C159.01 43.0047 159.121 43.7782 159.121 44.6304V45.9194H149.883V43.8569H156.081V43.6206C156.081 43.1909 156.002 42.8078 155.845 42.4712C155.694 42.1274 155.465 41.8553 155.157 41.6548C154.849 41.4543 154.455 41.354 153.976 41.354C153.567 41.354 153.216 41.4435 152.923 41.6226C152.629 41.8016 152.389 42.0522 152.203 42.3745C152.024 42.6968 151.888 43.0763 151.795 43.5132C151.709 43.9429 151.666 44.4155 151.666 44.9312V45.3608C151.666 45.8263 151.73 46.256 151.859 46.6499C151.995 47.0438 152.185 47.384 152.429 47.6704C152.679 47.9569 152.98 48.1789 153.331 48.3364C153.689 48.494 154.094 48.5728 154.545 48.5728C155.104 48.5728 155.623 48.4653 156.103 48.2505C156.59 48.0285 157.008 47.6955 157.359 47.2515L158.863 48.8843C158.62 49.2352 158.287 49.5718 157.864 49.894C157.449 50.2163 156.948 50.4813 156.36 50.689C155.773 50.8895 155.104 50.9897 154.352 50.9897ZM163.977 41.3862V55.2437H160.883V39.1519H163.751L163.977 41.3862ZM171.335 44.8345V45.0601C171.335 45.9051 171.235 46.6893 171.034 47.4126C170.841 48.1359 170.554 48.7661 170.175 49.3032C169.795 49.8332 169.323 50.2485 168.757 50.5493C168.198 50.8429 167.554 50.9897 166.823 50.9897C166.114 50.9897 165.498 50.8465 164.976 50.5601C164.453 50.2736 164.012 49.8726 163.654 49.3569C163.303 48.8341 163.021 48.229 162.806 47.5415C162.591 46.854 162.426 46.1164 162.312 45.3286V44.7378C162.426 43.8927 162.591 43.1193 162.806 42.4175C163.021 41.7085 163.303 41.0962 163.654 40.5806C164.012 40.0578 164.449 39.6532 164.965 39.3667C165.488 39.0802 166.1 38.937 166.802 38.937C167.539 38.937 168.188 39.0767 168.746 39.356C169.312 39.6353 169.785 40.0363 170.164 40.5591C170.551 41.0819 170.841 41.7049 171.034 42.4282C171.235 43.1515 171.335 43.9536 171.335 44.8345ZM168.23 45.0601V44.8345C168.23 44.3403 168.188 43.8856 168.102 43.4702C168.023 43.0477 167.894 42.6789 167.715 42.3638C167.543 42.0487 167.314 41.8052 167.027 41.6333C166.748 41.4543 166.408 41.3647 166.007 41.3647C165.584 41.3647 165.223 41.4328 164.922 41.5688C164.628 41.7049 164.388 41.9019 164.202 42.1597C164.016 42.4175 163.876 42.7254 163.783 43.0835C163.69 43.4416 163.633 43.8462 163.611 44.2974V45.7905C163.647 46.3205 163.747 46.7967 163.912 47.2192C164.077 47.6346 164.331 47.964 164.675 48.2075C165.019 48.451 165.47 48.5728 166.028 48.5728C166.437 48.5728 166.78 48.4832 167.06 48.3042C167.339 48.118 167.564 47.8638 167.736 47.5415C167.915 47.2192 168.041 46.8468 168.112 46.4243C168.191 46.0018 168.23 45.547 168.23 45.0601ZM177.189 46.3921L172.355 39.1519H176.19L178.661 43.5347H180.885L180.509 46.3921H177.189ZM178.704 45.8657L176.051 50.7749H172.323L176.18 44.3726L178.704 45.8657ZM182.894 39.1519V50.7749H179.8V39.1519H182.894ZM190.37 39.1519L185.536 46.3921H182.217L181.841 43.5347H184.064L186.524 39.1519H190.37ZM186.664 50.7749L184.011 45.8657L186.632 44.3726L190.467 50.7749H186.664ZM195.269 39.1519V50.7749H192.175V39.1519H195.269ZM202.82 39.1519L197.814 46.4243H194.721L194.345 43.5669H196.396L198.899 39.1519H202.82ZM199.039 50.7749L196.182 45.8657L198.878 44.3726L203.186 50.7749H199.039ZM210.619 48.1538V42.9761C210.619 42.6037 210.558 42.285 210.437 42.02C210.315 41.7479 210.125 41.5366 209.867 41.3862C209.617 41.2358 209.291 41.1606 208.89 41.1606C208.546 41.1606 208.249 41.2215 207.998 41.3433C207.747 41.4578 207.554 41.6261 207.418 41.8481C207.282 42.063 207.214 42.3172 207.214 42.6108H204.12C204.12 42.1167 204.235 41.6476 204.464 41.2036C204.693 40.7596 205.026 40.3693 205.463 40.0327C205.9 39.689 206.419 39.4204 207.021 39.2271C207.629 39.0337 208.31 38.937 209.062 38.937C209.964 38.937 210.766 39.0874 211.468 39.3882C212.17 39.689 212.721 40.1401 213.122 40.7417C213.53 41.3433 213.734 42.0952 213.734 42.9976V47.9712C213.734 48.6086 213.774 49.1313 213.853 49.5396C213.931 49.9406 214.046 50.2915 214.196 50.5923V50.7749H211.07C210.92 50.4598 210.805 50.0659 210.727 49.5933C210.655 49.1134 210.619 48.6336 210.619 48.1538ZM211.027 43.6958L211.049 45.4468H209.319C208.911 45.4468 208.557 45.4933 208.256 45.5864C207.955 45.6795 207.708 45.812 207.515 45.9839C207.321 46.1486 207.178 46.342 207.085 46.564C206.999 46.786 206.956 47.0295 206.956 47.2944C206.956 47.5594 207.017 47.7993 207.139 48.0142C207.26 48.2218 207.436 48.3866 207.665 48.5083C207.894 48.6229 208.163 48.6802 208.471 48.6802C208.936 48.6802 209.341 48.5871 209.685 48.4009C210.028 48.2147 210.293 47.9855 210.479 47.7134C210.673 47.4412 210.773 47.1834 210.78 46.9399L211.597 48.2505C211.482 48.5441 211.325 48.8485 211.124 49.1636C210.931 49.4787 210.684 49.7759 210.383 50.0552C210.082 50.3273 209.72 50.5529 209.298 50.7319C208.875 50.9038 208.374 50.9897 207.794 50.9897C207.056 50.9897 206.387 50.8429 205.785 50.5493C205.191 50.2485 204.718 49.8368 204.367 49.314C204.023 48.784 203.852 48.1825 203.852 47.5093C203.852 46.9006 203.966 46.3599 204.195 45.8872C204.424 45.4146 204.761 45.0171 205.205 44.6948C205.656 44.3654 206.218 44.1183 206.892 43.9536C207.565 43.7817 208.345 43.6958 209.233 43.6958H211.027Z" fill="white"/>
</svg>
