<svg width="257" height="61" viewBox="0 0 257 61" fill="none" xmlns="http://www.w3.org/2000/svg">
<path d="M0.164062 14.5183C0.164062 11.1803 2.89076 8.47119 6.25045 8.47119H52.507C55.8667 8.47119 58.5934 11.1803 58.5934 14.5183V41.1256C58.5934 44.4637 55.8667 47.1728 52.507 47.1728H6.25045C2.89076 47.1728 0.164062 44.4637 0.164062 41.1256V14.5183ZM14.7714 15.7277V13.3089H9.90228V15.7277C9.90228 16.3693 9.64579 16.9845 9.18922 17.4381C8.73265 17.8917 8.11341 18.1466 7.46773 18.1466H5.03317V22.9843H7.46773C9.40478 22.9843 11.2625 22.2198 12.6322 20.8589C14.0019 19.498 14.7714 17.6523 14.7714 15.7277ZM39.1169 27.822C39.1169 25.2559 38.091 22.7949 36.2647 20.9804C34.4384 19.166 31.9615 18.1466 29.3787 18.1466C26.796 18.1466 24.319 19.166 22.4928 20.9804C20.6665 22.7949 19.6405 25.2559 19.6405 27.822C19.6405 30.3881 20.6665 32.849 22.4928 34.6635C24.319 36.478 26.796 37.4974 29.3787 37.4974C31.9615 37.4974 34.4384 36.478 36.2647 34.6635C38.091 32.849 39.1169 30.3881 39.1169 27.822ZM48.8552 13.3089H43.9861V15.7277C43.9861 17.6523 44.7555 19.498 46.1252 20.8589C47.4949 22.2198 49.3527 22.9843 51.2897 22.9843H53.7243V18.1466H51.2897C50.644 18.1466 50.0248 17.8917 49.5682 17.4381C49.1117 16.9845 48.8552 16.3693 48.8552 15.7277V13.3089ZM14.7714 39.9162C14.7714 37.9917 14.0019 36.1459 12.6322 34.7851C11.2625 33.4242 9.40478 32.6597 7.46773 32.6597H5.03317V37.4974H7.46773C8.11341 37.4974 8.73265 37.7522 9.18922 38.2058C9.64579 38.6595 9.90228 39.2747 9.90228 39.9162V42.3351H14.7714V39.9162ZM48.8552 42.3351V39.9162C48.8552 39.2747 49.1117 38.6595 49.5682 38.2058C50.0248 37.7522 50.644 37.4974 51.2897 37.4974H53.7243V32.6597H51.2897C49.3527 32.6597 47.4949 33.4242 46.1252 34.7851C44.7555 36.1459 43.9861 37.9917 43.9861 39.9162V42.3351H48.8552ZM17.2059 56.8482C15.6635 56.8487 14.1605 56.3641 12.9123 55.4638C11.6641 54.5635 10.7349 53.2936 10.2577 51.8363C10.9345 51.9524 11.6259 52.0105 12.3368 52.0105H52.507C55.4126 52.0105 58.1991 50.8637 60.2537 48.8224C62.3083 46.7811 63.4625 44.0125 63.4625 41.1256V18.5578C64.8871 19.0582 66.1204 19.9853 66.9925 21.2113C67.8645 22.4373 68.3324 23.9019 68.3316 25.4031V41.1256C68.3316 43.1904 67.9223 45.2348 67.127 47.1424C66.3318 49.0499 65.1661 50.7832 63.6967 52.2431C62.2272 53.7031 60.4827 54.8612 58.5628 55.6514C56.6429 56.4415 54.5851 56.8482 52.507 56.8482H17.2059Z" fill="#77BE1D"/>
<path d="M106.342 9.13428V11.6587H99.3057V24.7749H96.0938V9.13428H106.342ZM98.1992 14.8384H101.852C103.083 14.8384 104.143 15.0425 105.031 15.4507C105.919 15.8589 106.603 16.4318 107.083 17.1694C107.563 17.9071 107.803 18.7664 107.803 19.7476C107.803 20.4924 107.667 21.1727 107.395 21.7886C107.122 22.3973 106.725 22.9272 106.202 23.3784C105.687 23.8224 105.063 24.1662 104.333 24.4097C103.603 24.6532 102.775 24.7749 101.852 24.7749H96.0938V9.13428H99.3271V22.2612H101.852C102.467 22.2612 102.976 22.1466 103.377 21.9175C103.778 21.6883 104.079 21.384 104.279 21.0044C104.487 20.6177 104.591 20.1916 104.591 19.7261C104.591 19.2821 104.487 18.881 104.279 18.5229C104.079 18.1577 103.778 17.8713 103.377 17.6636C102.976 17.4559 102.467 17.3521 101.852 17.3521H98.1992V14.8384ZM115.064 24.9897C114.162 24.9897 113.353 24.8465 112.637 24.5601C111.921 24.2664 111.312 23.8618 110.811 23.3462C110.316 22.8306 109.937 22.2326 109.672 21.5522C109.407 20.8647 109.274 20.1343 109.274 19.3608V18.9312C109.274 18.0503 109.4 17.2446 109.65 16.5142C109.901 15.7837 110.259 15.1499 110.725 14.6128C111.197 14.0757 111.77 13.6639 112.443 13.3774C113.117 13.0838 113.876 12.937 114.721 12.937C115.544 12.937 116.275 13.0731 116.912 13.3452C117.549 13.6174 118.083 14.0041 118.513 14.5054C118.95 15.0067 119.279 15.6082 119.501 16.3101C119.723 17.0047 119.834 17.7782 119.834 18.6304V19.9194H110.596V17.8569H116.794V17.6206C116.794 17.1909 116.715 16.8078 116.558 16.4712C116.407 16.1274 116.178 15.8553 115.87 15.6548C115.562 15.4543 115.168 15.354 114.688 15.354C114.28 15.354 113.929 15.4435 113.636 15.6226C113.342 15.8016 113.102 16.0522 112.916 16.3745C112.737 16.6968 112.601 17.0763 112.508 17.5132C112.422 17.9429 112.379 18.4155 112.379 18.9312V19.3608C112.379 19.8263 112.443 20.256 112.572 20.6499C112.708 21.0438 112.898 21.384 113.142 21.6704C113.392 21.9569 113.693 22.1789 114.044 22.3364C114.402 22.494 114.807 22.5728 115.258 22.5728C115.816 22.5728 116.336 22.4653 116.815 22.2505C117.302 22.0285 117.721 21.6955 118.072 21.2515L119.576 22.8843C119.333 23.2352 119 23.5718 118.577 23.894C118.162 24.2163 117.66 24.4813 117.073 24.689C116.486 24.8895 115.816 24.9897 115.064 24.9897ZM126.773 19.2319H124.475V17.8462H126.118C126.505 17.8462 126.813 17.7925 127.042 17.6851C127.278 17.5776 127.447 17.4272 127.547 17.2339C127.654 17.0334 127.708 16.8078 127.708 16.5571C127.708 16.3351 127.661 16.1239 127.568 15.9233C127.482 15.7157 127.325 15.5474 127.096 15.4185C126.874 15.2824 126.559 15.2144 126.15 15.2144C125.814 15.2144 125.513 15.2645 125.248 15.3647C124.99 15.465 124.786 15.6118 124.636 15.8052C124.493 15.9914 124.421 16.217 124.421 16.4819H121.316C121.316 15.7443 121.528 15.1141 121.95 14.5913C122.373 14.0614 122.938 13.6567 123.647 13.3774C124.356 13.091 125.133 12.9478 125.979 12.9478C126.716 12.9478 127.382 13.0229 127.977 13.1733C128.571 13.3166 129.079 13.5314 129.502 13.8179C129.924 14.1043 130.247 14.4588 130.469 14.8813C130.698 15.2967 130.812 15.7801 130.812 16.3315C130.812 16.7254 130.719 17.0978 130.533 17.4487C130.347 17.7996 130.078 18.1112 129.728 18.3833C129.377 18.6483 128.951 18.856 128.449 19.0063C127.955 19.1567 127.396 19.2319 126.773 19.2319ZM124.475 18.4585H126.773C127.468 18.4585 128.077 18.5265 128.6 18.6626C129.13 18.7915 129.574 18.9849 129.932 19.2427C130.29 19.5005 130.558 19.8192 130.737 20.1987C130.924 20.5711 131.017 21.0008 131.017 21.4878C131.017 22.0392 130.895 22.5334 130.651 22.9702C130.408 23.3999 130.061 23.7651 129.609 24.0659C129.158 24.3667 128.625 24.5959 128.009 24.7534C127.393 24.911 126.716 24.9897 125.979 24.9897C125.191 24.9897 124.424 24.8608 123.68 24.603C122.935 24.3452 122.323 23.9478 121.843 23.4106C121.37 22.8735 121.134 22.1825 121.134 21.3374H124.238C124.238 21.5809 124.31 21.8101 124.453 22.0249C124.596 22.2397 124.811 22.4116 125.098 22.5405C125.384 22.6623 125.739 22.7231 126.161 22.7231C126.584 22.7231 126.924 22.6551 127.182 22.519C127.439 22.383 127.626 22.2039 127.74 21.9819C127.862 21.7528 127.923 21.5164 127.923 21.2729C127.923 20.9292 127.855 20.6499 127.719 20.4351C127.59 20.2202 127.389 20.0627 127.117 19.9624C126.852 19.8621 126.519 19.812 126.118 19.812H124.475V18.4585ZM132.424 19.0815V18.856C132.424 18.0037 132.546 17.2196 132.789 16.5034C133.033 15.7801 133.387 15.1535 133.853 14.6235C134.318 14.0936 134.891 13.6818 135.571 13.3882C136.252 13.0874 137.032 12.937 137.913 12.937C138.794 12.937 139.578 13.0874 140.266 13.3882C140.953 13.6818 141.53 14.0936 141.995 14.6235C142.468 15.1535 142.826 15.7801 143.069 16.5034C143.313 17.2196 143.435 18.0037 143.435 18.856V19.0815C143.435 19.9266 143.313 20.7108 143.069 21.4341C142.826 22.1502 142.468 22.7769 141.995 23.314C141.53 23.8439 140.957 24.2557 140.276 24.5493C139.596 24.8429 138.815 24.9897 137.935 24.9897C137.054 24.9897 136.27 24.8429 135.582 24.5493C134.902 24.2557 134.325 23.8439 133.853 23.314C133.387 22.7769 133.033 22.1502 132.789 21.4341C132.546 20.7108 132.424 19.9266 132.424 19.0815ZM135.518 18.856V19.0815C135.518 19.5685 135.561 20.0233 135.646 20.4458C135.732 20.8683 135.868 21.2407 136.055 21.563C136.248 21.8781 136.499 22.1252 136.807 22.3042C137.115 22.4832 137.491 22.5728 137.935 22.5728C138.364 22.5728 138.733 22.4832 139.041 22.3042C139.349 22.1252 139.596 21.8781 139.782 21.563C139.968 21.2407 140.104 20.8683 140.19 20.4458C140.284 20.0233 140.33 19.5685 140.33 19.0815V18.856C140.33 18.3833 140.284 17.9393 140.19 17.5239C140.104 17.1014 139.965 16.729 139.771 16.4067C139.585 16.0773 139.338 15.8195 139.03 15.6333C138.722 15.4471 138.35 15.354 137.913 15.354C137.476 15.354 137.104 15.4471 136.796 15.6333C136.495 15.8195 136.248 16.0773 136.055 16.4067C135.868 16.729 135.732 17.1014 135.646 17.5239C135.561 17.9393 135.518 18.3833 135.518 18.856ZM153.156 13.1519V15.5796H147.527V13.1519H153.156ZM148.419 13.1519V24.7749H145.325V13.1519H148.419ZM155.412 13.1519V24.7749H152.308V13.1519H155.412ZM164.07 22.1538V16.9761C164.07 16.6037 164.009 16.285 163.888 16.02C163.766 15.7479 163.576 15.5366 163.318 15.3862C163.068 15.2358 162.742 15.1606 162.341 15.1606C161.997 15.1606 161.7 15.2215 161.449 15.3433C161.199 15.4578 161.005 15.6261 160.869 15.8481C160.733 16.063 160.665 16.3172 160.665 16.6108H157.571C157.571 16.1167 157.686 15.6476 157.915 15.2036C158.144 14.7596 158.477 14.3693 158.914 14.0327C159.351 13.689 159.87 13.4204 160.472 13.2271C161.08 13.0337 161.761 12.937 162.513 12.937C163.415 12.937 164.217 13.0874 164.919 13.3882C165.621 13.689 166.172 14.1401 166.573 14.7417C166.981 15.3433 167.186 16.0952 167.186 16.9976V21.9712C167.186 22.6086 167.225 23.1313 167.304 23.5396C167.382 23.9406 167.497 24.2915 167.647 24.5923V24.7749H164.521C164.371 24.4598 164.257 24.0659 164.178 23.5933C164.106 23.1134 164.07 22.6336 164.07 22.1538ZM164.479 17.6958L164.5 19.4468H162.771C162.362 19.4468 162.008 19.4933 161.707 19.5864C161.406 19.6795 161.159 19.812 160.966 19.9839C160.772 20.1486 160.629 20.342 160.536 20.564C160.45 20.786 160.407 21.0295 160.407 21.2944C160.407 21.5594 160.468 21.7993 160.59 22.0142C160.712 22.2218 160.887 22.3866 161.116 22.5083C161.345 22.6229 161.614 22.6802 161.922 22.6802C162.387 22.6802 162.792 22.5871 163.136 22.4009C163.479 22.2147 163.744 21.9855 163.931 21.7134C164.124 21.4412 164.224 21.1834 164.231 20.9399L165.048 22.2505C164.933 22.5441 164.776 22.8485 164.575 23.1636C164.382 23.4787 164.135 23.7759 163.834 24.0552C163.533 24.3273 163.172 24.5529 162.749 24.7319C162.326 24.9038 161.825 24.9897 161.245 24.9897C160.507 24.9897 159.838 24.8429 159.236 24.5493C158.642 24.2485 158.169 23.8368 157.818 23.314C157.475 22.784 157.303 22.1825 157.303 21.5093C157.303 20.9006 157.417 20.3599 157.646 19.8872C157.876 19.4146 158.212 19.0171 158.656 18.6948C159.107 18.3654 159.67 18.1183 160.343 17.9536C161.016 17.7817 161.797 17.6958 162.685 17.6958H164.479ZM174.372 22.5728C174.752 22.5728 175.088 22.5011 175.382 22.3579C175.675 22.2075 175.905 21.9998 176.069 21.7349C176.241 21.4627 176.331 21.144 176.338 20.7788H179.249C179.242 21.5952 179.023 22.3221 178.594 22.9595C178.164 23.5897 177.588 24.0874 176.864 24.4526C176.141 24.8107 175.332 24.9897 174.437 24.9897C173.534 24.9897 172.746 24.8394 172.073 24.5386C171.407 24.2378 170.852 23.8224 170.408 23.2925C169.964 22.7554 169.631 22.1323 169.409 21.4233C169.187 20.7072 169.076 19.9409 169.076 19.1245V18.813C169.076 17.9894 169.187 17.2231 169.409 16.5142C169.631 15.798 169.964 15.175 170.408 14.645C170.852 14.1079 171.407 13.689 172.073 13.3882C172.739 13.0874 173.52 12.937 174.415 12.937C175.368 12.937 176.202 13.1196 176.918 13.4849C177.641 13.8501 178.207 14.3729 178.615 15.0532C179.031 15.7264 179.242 16.5249 179.249 17.4487H176.338C176.331 17.062 176.248 16.7111 176.091 16.396C175.94 16.0809 175.718 15.8302 175.425 15.644C175.138 15.4507 174.784 15.354 174.361 15.354C173.91 15.354 173.541 15.4507 173.255 15.644C172.968 15.8302 172.746 16.0881 172.589 16.4175C172.431 16.7397 172.32 17.1086 172.256 17.5239C172.199 17.9321 172.17 18.3618 172.17 18.813V19.1245C172.17 19.5757 172.199 20.009 172.256 20.4243C172.313 20.8397 172.421 21.2085 172.578 21.5308C172.743 21.853 172.968 22.1073 173.255 22.2935C173.541 22.4797 173.914 22.5728 174.372 22.5728ZM189.003 17.8462V20.2524H183.095V17.8462H189.003ZM184.126 13.1519V24.7749H181.032V13.1519H184.126ZM191.098 13.1519V24.7749H187.993V13.1519H191.098ZM195.642 16.6001H199.015C200.075 16.6001 200.977 16.7756 201.722 17.1265C202.474 17.4702 203.047 17.95 203.44 18.5659C203.841 19.1818 204.042 19.8944 204.042 20.7036C204.042 21.2909 203.927 21.8351 203.698 22.3364C203.476 22.8306 203.15 23.2603 202.721 23.6255C202.291 23.9907 201.765 24.2736 201.142 24.4741C200.519 24.6746 199.81 24.7749 199.015 24.7749H193.708V13.1519H196.812V22.3687H199.015C199.48 22.3687 199.853 22.2935 200.132 22.1431C200.418 21.9855 200.626 21.7814 200.755 21.5308C200.891 21.2801 200.959 21.008 200.959 20.7144C200.959 20.4064 200.891 20.1271 200.755 19.8765C200.626 19.6187 200.418 19.411 200.132 19.2534C199.853 19.0959 199.48 19.0171 199.015 19.0171H195.642V16.6001ZM209.005 13.1519V24.7749H205.911V13.1519H209.005ZM217.072 24.9897C216.17 24.9897 215.361 24.8465 214.645 24.5601C213.928 24.2664 213.32 23.8618 212.818 23.3462C212.324 22.8306 211.945 22.2326 211.68 21.5522C211.415 20.8647 211.282 20.1343 211.282 19.3608V18.9312C211.282 18.0503 211.408 17.2446 211.658 16.5142C211.909 15.7837 212.267 15.1499 212.732 14.6128C213.205 14.0757 213.778 13.6639 214.451 13.3774C215.124 13.0838 215.883 12.937 216.729 12.937C217.552 12.937 218.283 13.0731 218.92 13.3452C219.557 13.6174 220.091 14.0041 220.521 14.5054C220.957 15.0067 221.287 15.6082 221.509 16.3101C221.731 17.0047 221.842 17.7782 221.842 18.6304V19.9194H212.604V17.8569H218.802V17.6206C218.802 17.1909 218.723 16.8078 218.565 16.4712C218.415 16.1274 218.186 15.8553 217.878 15.6548C217.57 15.4543 217.176 15.354 216.696 15.354C216.288 15.354 215.937 15.4435 215.644 15.6226C215.35 15.8016 215.11 16.0522 214.924 16.3745C214.745 16.6968 214.609 17.0763 214.516 17.5132C214.43 17.9429 214.387 18.4155 214.387 18.9312V19.3608C214.387 19.8263 214.451 20.256 214.58 20.6499C214.716 21.0438 214.906 21.384 215.149 21.6704C215.4 21.9569 215.701 22.1789 216.052 22.3364C216.41 22.494 216.814 22.5728 217.266 22.5728C217.824 22.5728 218.343 22.4653 218.823 22.2505C219.31 22.0285 219.729 21.6955 220.08 21.2515L221.584 22.8843C221.34 23.2352 221.007 23.5718 220.585 23.894C220.17 24.2163 219.668 24.4813 219.081 24.689C218.494 24.8895 217.824 24.9897 217.072 24.9897ZM103.742 39.1519V41.5796H98.1133V39.1519H103.742ZM99.0049 39.1519V50.7749H95.9111V39.1519H99.0049ZM105.998 39.1519V50.7749H102.894V39.1519H105.998ZM116.203 39.1519V41.5796H110.488V39.1519H116.203ZM118.47 39.1519V50.7749H115.376V39.1519H118.47ZM109.715 39.1519H112.755L112.443 45.0171C112.4 45.855 112.311 46.5926 112.175 47.23C112.039 47.8674 111.856 48.4116 111.627 48.8628C111.405 49.314 111.136 49.6828 110.821 49.9692C110.513 50.2485 110.152 50.4526 109.736 50.5815C109.328 50.7104 108.877 50.7749 108.383 50.7749H107.438L107.405 48.3364L107.803 48.2935C108.032 48.272 108.232 48.2075 108.404 48.1001C108.583 47.9855 108.734 47.8244 108.855 47.6167C108.984 47.4019 109.092 47.1333 109.178 46.811C109.264 46.4816 109.332 46.0949 109.382 45.6509C109.439 45.2069 109.479 44.6948 109.5 44.1147L109.715 39.1519ZM127.139 48.1538V42.9761C127.139 42.6037 127.078 42.285 126.956 42.02C126.834 41.7479 126.645 41.5366 126.387 41.3862C126.136 41.2358 125.81 41.1606 125.409 41.1606C125.065 41.1606 124.768 41.2215 124.518 41.3433C124.267 41.4578 124.074 41.6261 123.938 41.8481C123.801 42.063 123.733 42.3172 123.733 42.6108H120.64C120.64 42.1167 120.754 41.6476 120.983 41.2036C121.213 40.7596 121.546 40.3693 121.982 40.0327C122.419 39.689 122.938 39.4204 123.54 39.2271C124.149 39.0337 124.829 38.937 125.581 38.937C126.483 38.937 127.285 39.0874 127.987 39.3882C128.689 39.689 129.241 40.1401 129.642 40.7417C130.05 41.3433 130.254 42.0952 130.254 42.9976V47.9712C130.254 48.6086 130.293 49.1313 130.372 49.5396C130.451 49.9406 130.565 50.2915 130.716 50.5923V50.7749H127.59C127.439 50.4598 127.325 50.0659 127.246 49.5933C127.174 49.1134 127.139 48.6336 127.139 48.1538ZM127.547 43.6958L127.568 45.4468H125.839C125.431 45.4468 125.076 45.4933 124.775 45.5864C124.475 45.6795 124.228 45.812 124.034 45.9839C123.841 46.1486 123.698 46.342 123.604 46.564C123.519 46.786 123.476 47.0295 123.476 47.2944C123.476 47.5594 123.536 47.7993 123.658 48.0142C123.78 48.2218 123.955 48.3866 124.185 48.5083C124.414 48.6229 124.682 48.6802 124.99 48.6802C125.456 48.6802 125.86 48.5871 126.204 48.4009C126.548 48.2147 126.813 47.9855 126.999 47.7134C127.192 47.4412 127.293 47.1834 127.3 46.9399L128.116 48.2505C128.002 48.5441 127.844 48.8485 127.644 49.1636C127.45 49.4787 127.203 49.7759 126.902 50.0552C126.602 50.3273 126.24 50.5529 125.817 50.7319C125.395 50.9038 124.894 50.9897 124.313 50.9897C123.576 50.9897 122.906 50.8429 122.305 50.5493C121.71 50.2485 121.238 49.8368 120.887 49.314C120.543 48.784 120.371 48.1825 120.371 47.5093C120.371 46.9006 120.486 46.3599 120.715 45.8872C120.944 45.4146 121.281 45.0171 121.725 44.6948C122.176 44.3654 122.738 44.1183 123.411 43.9536C124.084 43.7817 124.865 43.6958 125.753 43.6958H127.547ZM138.386 39.1519V50.7749H135.281V39.1519H138.386ZM142.124 39.1519V41.5474H131.597V39.1519H142.124ZM148.301 50.9897C147.398 50.9897 146.589 50.8465 145.873 50.5601C145.157 50.2664 144.548 49.8618 144.047 49.3462C143.553 48.8306 143.173 48.2326 142.908 47.5522C142.643 46.8647 142.511 46.1343 142.511 45.3608V44.9312C142.511 44.0503 142.636 43.2446 142.887 42.5142C143.137 41.7837 143.495 41.1499 143.961 40.6128C144.434 40.0757 145.007 39.6639 145.68 39.3774C146.353 39.0838 147.112 38.937 147.957 38.937C148.781 38.937 149.511 39.0731 150.148 39.3452C150.786 39.6174 151.319 40.0041 151.749 40.5054C152.186 41.0067 152.515 41.6082 152.737 42.3101C152.959 43.0047 153.07 43.7782 153.07 44.6304V45.9194H143.832V43.8569H150.03V43.6206C150.03 43.1909 149.951 42.8078 149.794 42.4712C149.644 42.1274 149.414 41.8553 149.106 41.6548C148.799 41.4543 148.405 41.354 147.925 41.354C147.517 41.354 147.166 41.4435 146.872 41.6226C146.578 41.8016 146.339 42.0522 146.152 42.3745C145.973 42.6968 145.837 43.0763 145.744 43.5132C145.658 43.9429 145.615 44.4155 145.615 44.9312V45.3608C145.615 45.8263 145.68 46.256 145.809 46.6499C145.945 47.0438 146.134 47.384 146.378 47.6704C146.629 47.9569 146.929 48.1789 147.28 48.3364C147.638 48.494 148.043 48.5728 148.494 48.5728C149.053 48.5728 149.572 48.4653 150.052 48.2505C150.539 48.0285 150.958 47.6955 151.309 47.2515L152.812 48.8843C152.569 49.2352 152.236 49.5718 151.813 49.894C151.398 50.2163 150.897 50.4813 150.31 50.689C149.722 50.8895 149.053 50.9897 148.301 50.9897ZM158.936 46.3921L154.102 39.1519H157.937L160.407 43.5347H162.631L162.255 46.3921H158.936ZM160.45 45.8657L157.797 50.7749H154.069L157.926 44.3726L160.45 45.8657ZM164.64 39.1519V50.7749H161.546V39.1519H164.64ZM172.116 39.1519L167.282 46.3921H163.963L163.587 43.5347H165.811L168.271 39.1519H172.116ZM168.41 50.7749L165.757 45.8657L168.378 44.3726L172.213 50.7749H168.41ZM176.8 46.4565L180.699 39.1519H183.793V50.7749H180.699V43.4595L176.8 50.7749H173.706V39.1519H176.8V46.4565Z" fill="white"/>
</svg>
