<svg width="700" height="60" viewBox="0 0 700 60" fill="none" xmlns="http://www.w3.org/2000/svg">
<g filter="url(#filter0_b_1437_3493)">
<path d="M30 2.94793L36.2891 20.3883L36.5193 21.0269L37.1978 21.0486L55.7281 21.6404L41.0847 33.0111L40.5485 33.4274L40.7376 34.0794L45.9008 51.8856L30.5617 41.4726L30 41.0914L29.4383 41.4726L14.0992 51.8856L19.2624 34.0794L19.4515 33.4274L18.9153 33.0111L4.27195 21.6404L22.8022 21.0486L23.4807 21.0269L23.7109 20.3883L30 2.94793Z" fill="url(#paint0_linear_1437_3493)"/>
<path d="M30 2.94793L36.2891 20.3883L36.5193 21.0269L37.1978 21.0486L55.7281 21.6404L41.0847 33.0111L40.5485 33.4274L40.7376 34.0794L45.9008 51.8856L30.5617 41.4726L30 41.0914L29.4383 41.4726L14.0992 51.8856L19.2624 34.0794L19.4515 33.4274L18.9153 33.0111L4.27195 21.6404L22.8022 21.0486L23.4807 21.0269L23.7109 20.3883L30 2.94793Z" stroke="url(#paint1_linear_1437_3493)" stroke-width="2" style="mix-blend-mode:overlay"/>
<path d="M30 2.94793L36.2891 20.3883L36.5193 21.0269L37.1978 21.0486L55.7281 21.6404L41.0847 33.0111L40.5485 33.4274L40.7376 34.0794L45.9008 51.8856L30.5617 41.4726L30 41.0914L29.4383 41.4726L14.0992 51.8856L19.2624 34.0794L19.4515 33.4274L18.9153 33.0111L4.27195 21.6404L22.8022 21.0486L23.4807 21.0269L23.7109 20.3883L30 2.94793Z" stroke="url(#paint2_linear_1437_3493)" stroke-width="2" style="mix-blend-mode:overlay"/>
<path d="M190 2.94793L196.289 20.3883L196.519 21.0269L197.198 21.0486L215.728 21.6404L201.085 33.0111L200.549 33.4274L200.738 34.0794L205.901 51.8856L190.562 41.4726L190 41.0914L189.438 41.4726L174.099 51.8856L179.262 34.0794L179.451 33.4274L178.915 33.0111L164.272 21.6404L182.802 21.0486L183.481 21.0269L183.711 20.3883L190 2.94793Z" fill="url(#paint3_linear_1437_3493)"/>
<path d="M190 2.94793L196.289 20.3883L196.519 21.0269L197.198 21.0486L215.728 21.6404L201.085 33.0111L200.549 33.4274L200.738 34.0794L205.901 51.8856L190.562 41.4726L190 41.0914L189.438 41.4726L174.099 51.8856L179.262 34.0794L179.451 33.4274L178.915 33.0111L164.272 21.6404L182.802 21.0486L183.481 21.0269L183.711 20.3883L190 2.94793Z" stroke="url(#paint4_linear_1437_3493)" stroke-width="2" style="mix-blend-mode:overlay"/>
<path d="M190 2.94793L196.289 20.3883L196.519 21.0269L197.198 21.0486L215.728 21.6404L201.085 33.0111L200.549 33.4274L200.738 34.0794L205.901 51.8856L190.562 41.4726L190 41.0914L189.438 41.4726L174.099 51.8856L179.262 34.0794L179.451 33.4274L178.915 33.0111L164.272 21.6404L182.802 21.0486L183.481 21.0269L183.711 20.3883L190 2.94793Z" stroke="url(#paint5_linear_1437_3493)" stroke-width="2" style="mix-blend-mode:overlay"/>
<path d="M350 2.94793L356.289 20.3883L356.519 21.0269L357.198 21.0486L375.728 21.6404L361.085 33.0111L360.549 33.4274L360.738 34.0794L365.901 51.8856L350.562 41.4726L350 41.0914L349.438 41.4726L334.099 51.8856L339.262 34.0794L339.451 33.4274L338.915 33.0111L324.272 21.6404L342.802 21.0486L343.481 21.0269L343.711 20.3883L350 2.94793Z" fill="url(#paint6_linear_1437_3493)"/>
<path d="M350 2.94793L356.289 20.3883L356.519 21.0269L357.198 21.0486L375.728 21.6404L361.085 33.0111L360.549 33.4274L360.738 34.0794L365.901 51.8856L350.562 41.4726L350 41.0914L349.438 41.4726L334.099 51.8856L339.262 34.0794L339.451 33.4274L338.915 33.0111L324.272 21.6404L342.802 21.0486L343.481 21.0269L343.711 20.3883L350 2.94793Z" stroke="url(#paint7_linear_1437_3493)" stroke-width="2" style="mix-blend-mode:overlay"/>
<path d="M350 2.94793L356.289 20.3883L356.519 21.0269L357.198 21.0486L375.728 21.6404L361.085 33.0111L360.549 33.4274L360.738 34.0794L365.901 51.8856L350.562 41.4726L350 41.0914L349.438 41.4726L334.099 51.8856L339.262 34.0794L339.451 33.4274L338.915 33.0111L324.272 21.6404L342.802 21.0486L343.481 21.0269L343.711 20.3883L350 2.94793Z" stroke="url(#paint8_linear_1437_3493)" stroke-width="2" style="mix-blend-mode:overlay"/>
<path d="M510 2.94793L516.289 20.3883L516.519 21.0269L517.198 21.0486L535.728 21.6404L521.085 33.0111L520.549 33.4274L520.738 34.0794L525.901 51.8856L510.562 41.4726L510 41.0914L509.438 41.4726L494.099 51.8856L499.262 34.0794L499.451 33.4274L498.915 33.0111L484.272 21.6404L502.802 21.0486L503.481 21.0269L503.711 20.3883L510 2.94793Z" fill="url(#paint9_linear_1437_3493)"/>
<path d="M510 2.94793L516.289 20.3883L516.519 21.0269L517.198 21.0486L535.728 21.6404L521.085 33.0111L520.549 33.4274L520.738 34.0794L525.901 51.8856L510.562 41.4726L510 41.0914L509.438 41.4726L494.099 51.8856L499.262 34.0794L499.451 33.4274L498.915 33.0111L484.272 21.6404L502.802 21.0486L503.481 21.0269L503.711 20.3883L510 2.94793Z" stroke="url(#paint10_linear_1437_3493)" stroke-width="2" style="mix-blend-mode:overlay"/>
<path d="M510 2.94793L516.289 20.3883L516.519 21.0269L517.198 21.0486L535.728 21.6404L521.085 33.0111L520.549 33.4274L520.738 34.0794L525.901 51.8856L510.562 41.4726L510 41.0914L509.438 41.4726L494.099 51.8856L499.262 34.0794L499.451 33.4274L498.915 33.0111L484.272 21.6404L502.802 21.0486L503.481 21.0269L503.711 20.3883L510 2.94793Z" stroke="url(#paint11_linear_1437_3493)" stroke-width="2" style="mix-blend-mode:overlay"/>
<path d="M670 2.94793L676.289 20.3883L676.519 21.0269L677.198 21.0486L695.728 21.6404L681.085 33.0111L680.549 33.4274L680.738 34.0794L685.901 51.8856L670.562 41.4726L670 41.0914L669.438 41.4726L654.099 51.8856L659.262 34.0794L659.451 33.4274L658.915 33.0111L644.272 21.6404L662.802 21.0486L663.481 21.0269L663.711 20.3883L670 2.94793Z" fill="url(#paint12_linear_1437_3493)"/>
<path d="M670 2.94793L676.289 20.3883L676.519 21.0269L677.198 21.0486L695.728 21.6404L681.085 33.0111L680.549 33.4274L680.738 34.0794L685.901 51.8856L670.562 41.4726L670 41.0914L669.438 41.4726L654.099 51.8856L659.262 34.0794L659.451 33.4274L658.915 33.0111L644.272 21.6404L662.802 21.0486L663.481 21.0269L663.711 20.3883L670 2.94793Z" stroke="url(#paint13_linear_1437_3493)" stroke-width="2" style="mix-blend-mode:overlay"/>
<path d="M670 2.94793L676.289 20.3883L676.519 21.0269L677.198 21.0486L695.728 21.6404L681.085 33.0111L680.549 33.4274L680.738 34.0794L685.901 51.8856L670.562 41.4726L670 41.0914L669.438 41.4726L654.099 51.8856L659.262 34.0794L659.451 33.4274L658.915 33.0111L644.272 21.6404L662.802 21.0486L663.481 21.0269L663.711 20.3883L670 2.94793Z" stroke="url(#paint14_linear_1437_3493)" stroke-width="2" style="mix-blend-mode:overlay"/>
</g>
<defs>
<filter id="filter0_b_1437_3493" x="-98.5312" y="-100" width="897.062" height="254.271" filterUnits="userSpaceOnUse" color-interpolation-filters="sRGB">
<feFlood flood-opacity="0" result="BackgroundImageFix"/>
<feGaussianBlur in="BackgroundImageFix" stdDeviation="50"/>
<feComposite in2="SourceAlpha" operator="in" result="effect1_backgroundBlur_1437_3493"/>
<feBlend mode="normal" in="SourceGraphic" in2="effect1_backgroundBlur_1437_3493" result="shape"/>
</filter>
<linearGradient id="paint0_linear_1437_3493" x1="-8.37209" y1="48.5172" x2="71.4827" y2="-2.1656" gradientUnits="userSpaceOnUse">
<stop stop-color="#2C1AFF"/>
<stop offset="0.979637" stop-color="#13C6FF" stop-opacity="0"/>
</linearGradient>
<linearGradient id="paint1_linear_1437_3493" x1="49.6364" y1="3.81818" x2="2.72727" y2="61.7727" gradientUnits="userSpaceOnUse">
<stop stop-color="white" stop-opacity="0.7"/>
<stop offset="1" stop-color="white" stop-opacity="0"/>
</linearGradient>
<linearGradient id="paint2_linear_1437_3493" x1="15.1364" y1="12.2727" x2="4.90909" y2="3.95455" gradientUnits="userSpaceOnUse">
<stop stop-color="white"/>
<stop offset="1" stop-color="white" stop-opacity="0"/>
</linearGradient>
<linearGradient id="paint3_linear_1437_3493" x1="151.628" y1="48.5172" x2="231.483" y2="-2.1656" gradientUnits="userSpaceOnUse">
<stop stop-color="#2C1AFF"/>
<stop offset="0.979637" stop-color="#13C6FF" stop-opacity="0"/>
</linearGradient>
<linearGradient id="paint4_linear_1437_3493" x1="209.636" y1="3.81818" x2="162.727" y2="61.7727" gradientUnits="userSpaceOnUse">
<stop stop-color="white" stop-opacity="0.7"/>
<stop offset="1" stop-color="white" stop-opacity="0"/>
</linearGradient>
<linearGradient id="paint5_linear_1437_3493" x1="175.136" y1="12.2727" x2="164.909" y2="3.95455" gradientUnits="userSpaceOnUse">
<stop stop-color="white"/>
<stop offset="1" stop-color="white" stop-opacity="0"/>
</linearGradient>
<linearGradient id="paint6_linear_1437_3493" x1="311.628" y1="48.5172" x2="391.483" y2="-2.1656" gradientUnits="userSpaceOnUse">
<stop stop-color="#2C1AFF"/>
<stop offset="0.979637" stop-color="#13C6FF" stop-opacity="0"/>
</linearGradient>
<linearGradient id="paint7_linear_1437_3493" x1="369.636" y1="3.81818" x2="322.727" y2="61.7727" gradientUnits="userSpaceOnUse">
<stop stop-color="white" stop-opacity="0.7"/>
<stop offset="1" stop-color="white" stop-opacity="0"/>
</linearGradient>
<linearGradient id="paint8_linear_1437_3493" x1="335.136" y1="12.2727" x2="324.909" y2="3.95455" gradientUnits="userSpaceOnUse">
<stop stop-color="white"/>
<stop offset="1" stop-color="white" stop-opacity="0"/>
</linearGradient>
<linearGradient id="paint9_linear_1437_3493" x1="471.628" y1="48.5172" x2="551.483" y2="-2.1656" gradientUnits="userSpaceOnUse">
<stop stop-color="#2C1AFF"/>
<stop offset="0.979637" stop-color="#13C6FF" stop-opacity="0"/>
</linearGradient>
<linearGradient id="paint10_linear_1437_3493" x1="529.636" y1="3.81818" x2="482.727" y2="61.7727" gradientUnits="userSpaceOnUse">
<stop stop-color="white" stop-opacity="0.7"/>
<stop offset="1" stop-color="white" stop-opacity="0"/>
</linearGradient>
<linearGradient id="paint11_linear_1437_3493" x1="495.136" y1="12.2727" x2="484.909" y2="3.95455" gradientUnits="userSpaceOnUse">
<stop stop-color="white"/>
<stop offset="1" stop-color="white" stop-opacity="0"/>
</linearGradient>
<linearGradient id="paint12_linear_1437_3493" x1="631.628" y1="48.5172" x2="711.483" y2="-2.1656" gradientUnits="userSpaceOnUse">
<stop stop-color="#2C1AFF"/>
<stop offset="0.979637" stop-color="#13C6FF" stop-opacity="0"/>
</linearGradient>
<linearGradient id="paint13_linear_1437_3493" x1="689.636" y1="3.81818" x2="642.727" y2="61.7727" gradientUnits="userSpaceOnUse">
<stop stop-color="white" stop-opacity="0.7"/>
<stop offset="1" stop-color="white" stop-opacity="0"/>
</linearGradient>
<linearGradient id="paint14_linear_1437_3493" x1="655.136" y1="12.2727" x2="644.909" y2="3.95455" gradientUnits="userSpaceOnUse">
<stop stop-color="white"/>
<stop offset="1" stop-color="white" stop-opacity="0"/>
</linearGradient>
</defs>
</svg>
