<svg width="364" height="69" viewBox="0 0 364 69" fill="none" xmlns="http://www.w3.org/2000/svg">
<circle cx="34.5" cy="34.5" r="34.5" fill="#C4C4C4"/>
<path d="M91.24 35V11.96H100.344C100.568 11.96 100.835 11.9707 101.144 11.992C101.453 12.0027 101.752 12.0347 102.04 12.088C103.288 12.28 104.333 12.7067 105.176 13.368C106.029 14.0293 106.669 14.8667 107.096 15.88C107.523 16.8827 107.736 17.9973 107.736 19.224C107.736 20.44 107.517 21.5547 107.08 22.568C106.653 23.5707 106.013 24.408 105.16 25.08C104.317 25.7413 103.277 26.168 102.04 26.36C101.752 26.4027 101.453 26.4347 101.144 26.456C100.835 26.4773 100.568 26.488 100.344 26.488H94.088V35H91.24ZM94.088 23.784H100.248C100.451 23.784 100.68 23.7733 100.936 23.752C101.203 23.7307 101.453 23.6933 101.688 23.64C102.424 23.4693 103.021 23.16 103.48 22.712C103.949 22.2533 104.291 21.72 104.504 21.112C104.717 20.4933 104.824 19.864 104.824 19.224C104.824 18.584 104.717 17.96 104.504 17.352C104.291 16.7333 103.949 16.1947 103.48 15.736C103.021 15.2773 102.424 14.968 101.688 14.808C101.453 14.744 101.203 14.7067 100.936 14.696C100.68 14.6747 100.451 14.664 100.248 14.664H94.088V23.784ZM118.288 35.48C116.57 35.48 115.088 35.0907 113.84 34.312C112.602 33.5333 111.648 32.456 110.976 31.08C110.304 29.704 109.968 28.1253 109.968 26.344C109.968 24.5307 110.309 22.9413 110.992 21.576C111.674 20.2107 112.64 19.1493 113.888 18.392C115.136 17.624 116.602 17.24 118.288 17.24C120.016 17.24 121.504 17.6293 122.752 18.408C124 19.176 124.954 20.248 125.616 21.624C126.288 22.9893 126.624 24.5627 126.624 26.344C126.624 28.1467 126.288 29.736 125.616 31.112C124.944 32.4773 123.984 33.5493 122.736 34.328C121.488 35.096 120.005 35.48 118.288 35.48ZM118.288 32.776C120.08 32.776 121.413 32.1787 122.288 30.984C123.162 29.7893 123.6 28.2427 123.6 26.344C123.6 24.392 123.157 22.84 122.272 21.688C121.386 20.5253 120.058 19.944 118.288 19.944C117.082 19.944 116.09 20.216 115.312 20.76C114.533 21.304 113.952 22.056 113.568 23.016C113.184 23.976 112.992 25.0853 112.992 26.344C112.992 28.2853 113.44 29.8427 114.336 31.016C115.232 32.1893 116.549 32.776 118.288 32.776ZM130.13 35V17.72H132.578L139.138 31.128L145.698 17.72H148.146V35H145.394V23.656L139.89 35H138.386L132.882 23.656V35H130.13ZM157.527 35.48C156.236 35.48 155.154 35.2453 154.279 34.776C153.415 34.296 152.759 33.6667 152.311 32.888C151.874 32.1093 151.655 31.256 151.655 30.328C151.655 29.4213 151.826 28.6373 152.167 27.976C152.519 27.304 153.01 26.7493 153.639 26.312C154.268 25.864 155.02 25.512 155.895 25.256C156.716 25.032 157.634 24.84 158.647 24.68C159.671 24.5093 160.706 24.3547 161.751 24.216C162.796 24.0773 163.772 23.944 164.679 23.816L163.655 24.408C163.687 22.872 163.378 21.736 162.727 21C162.087 20.264 160.978 19.896 159.399 19.896C158.354 19.896 157.436 20.136 156.647 20.616C155.868 21.0853 155.319 21.8533 154.999 22.92L152.295 22.104C152.711 20.5893 153.516 19.4 154.711 18.536C155.906 17.672 157.479 17.24 159.431 17.24C160.999 17.24 162.343 17.5227 163.463 18.088C164.594 18.6427 165.404 19.4853 165.895 20.616C166.14 21.1493 166.295 21.7307 166.359 22.36C166.423 22.9787 166.455 23.6293 166.455 24.312V35H163.927V30.856L164.519 31.24C163.868 32.6373 162.956 33.6933 161.783 34.408C160.62 35.1227 159.202 35.48 157.527 35.48ZM157.959 33.096C158.983 33.096 159.868 32.9147 160.615 32.552C161.372 32.1787 161.98 31.6933 162.439 31.096C162.898 30.488 163.196 29.8267 163.335 29.112C163.495 28.5787 163.58 27.9867 163.591 27.336C163.612 26.6747 163.623 26.168 163.623 25.816L164.615 26.248C163.687 26.376 162.775 26.4987 161.879 26.616C160.983 26.7333 160.135 26.8613 159.335 27C158.535 27.128 157.815 27.2827 157.175 27.464C156.706 27.6133 156.263 27.8053 155.847 28.04C155.442 28.2747 155.111 28.5787 154.855 28.952C154.61 29.3147 154.487 29.768 154.487 30.312C154.487 30.7813 154.604 31.2293 154.839 31.656C155.084 32.0827 155.458 32.4293 155.959 32.696C156.471 32.9627 157.138 33.096 157.959 33.096ZM170.599 35V17.72H173.447V25H182.535V17.72H185.383V35H182.535V27.704H173.447V35H170.599ZM196.271 35V11.96H198.863L207.567 30.312L216.223 11.96H218.847V34.984H216.143V18.216L208.319 35H206.799L198.975 18.216V35H196.271ZM237.478 17.72V35H234.726V22.264L225.67 35H223.318V17.72H226.07V30.28L235.142 17.72H237.478ZM241.943 35V17.72H244.695V32.408H250.647V17.72H253.399V32.408H259.335V17.72H262.087V35H241.943ZM268.953 42.68L272.297 33.592L272.345 36.28L264.793 17.72H267.785L273.705 32.648H272.681L278.233 17.72H281.128L271.721 42.68H268.953ZM290.426 35.48C288.677 35.48 287.189 35.0907 285.962 34.312C284.746 33.5227 283.818 32.44 283.178 31.064C282.538 29.688 282.208 28.12 282.186 26.36C282.208 24.5573 282.544 22.9733 283.194 21.608C283.856 20.232 284.8 19.16 286.026 18.392C287.253 17.624 288.73 17.24 290.458 17.24C292.282 17.24 293.85 17.688 295.162 18.584C296.485 19.48 297.37 20.7067 297.818 22.264L295.002 23.112C294.64 22.1093 294.048 21.3307 293.226 20.776C292.416 20.2213 291.482 19.944 290.426 19.944C289.242 19.944 288.266 20.2213 287.498 20.776C286.73 21.32 286.16 22.0773 285.786 23.048C285.413 24.008 285.221 25.112 285.21 26.36C285.232 28.28 285.674 29.832 286.538 31.016C287.413 32.1893 288.709 32.776 290.426 32.776C291.557 32.776 292.496 32.52 293.242 32.008C293.989 31.4853 294.554 30.7333 294.938 29.752L297.818 30.504C297.221 32.1147 296.288 33.3467 295.018 34.2C293.749 35.0533 292.218 35.48 290.426 35.48ZM305.347 35V20.312H299.331V17.72H314.211V20.312H308.195V35H305.347ZM331.384 17.72V35H328.632V22.264L319.576 35H317.224V17.72H319.976V30.28L329.048 17.72H331.384ZM335.849 35V17.72H338.697V25H347.785V17.72H350.633V35H347.785V27.704H338.697V35H335.849Z" fill="white"/>
<path d="M95.507 62.27C94.217 62.27 93.128 61.985 92.24 61.415C91.352 60.839 90.68 60.044 90.224 59.03C89.768 58.016 89.54 56.846 89.54 55.52C89.54 54.194 89.768 53.024 90.224 52.01C90.68 50.996 91.352 50.204 92.24 49.634C93.128 49.058 94.217 48.77 95.507 48.77C97.013 48.77 98.243 49.157 99.197 49.931C100.151 50.699 100.805 51.731 101.159 53.027L99.809 53.378C99.533 52.352 99.038 51.539 98.324 50.939C97.61 50.339 96.671 50.039 95.507 50.039C94.493 50.039 93.65 50.27 92.978 50.732C92.306 51.194 91.799 51.839 91.457 52.667C91.121 53.489 90.947 54.44 90.935 55.52C90.929 56.6 91.094 57.551 91.43 58.373C91.772 59.195 92.282 59.84 92.96 60.308C93.644 60.77 94.493 61.001 95.507 61.001C96.671 61.001 97.61 60.701 98.324 60.101C99.038 59.495 99.533 58.682 99.809 57.662L101.159 58.013C100.805 59.309 100.151 60.344 99.197 61.118C98.243 61.886 97.013 62.27 95.507 62.27ZM105.926 62.27C105.194 62.27 104.579 62.138 104.081 61.874C103.589 61.61 103.22 61.259 102.974 60.821C102.728 60.383 102.605 59.906 102.605 59.39C102.605 58.862 102.71 58.412 102.92 58.04C103.136 57.662 103.427 57.353 103.793 57.113C104.165 56.873 104.594 56.69 105.08 56.564C105.572 56.444 106.115 56.339 106.709 56.249C107.309 56.153 107.894 56.072 108.464 56.006C109.04 55.934 109.544 55.865 109.976 55.799L109.508 56.087C109.526 55.127 109.34 54.416 108.95 53.954C108.56 53.492 107.882 53.261 106.916 53.261C106.25 53.261 105.686 53.411 105.224 53.711C104.768 54.011 104.447 54.485 104.261 55.133L102.974 54.755C103.196 53.885 103.643 53.21 104.315 52.73C104.987 52.25 105.86 52.01 106.934 52.01C107.822 52.01 108.575 52.178 109.193 52.514C109.817 52.844 110.258 53.324 110.516 53.954C110.636 54.236 110.714 54.551 110.75 54.899C110.786 55.247 110.804 55.601 110.804 55.961V62H109.625V59.561L109.967 59.705C109.637 60.539 109.124 61.175 108.428 61.613C107.732 62.051 106.898 62.27 105.926 62.27ZM106.079 61.127C106.697 61.127 107.237 61.016 107.699 60.794C108.161 60.572 108.533 60.269 108.815 59.885C109.097 59.495 109.28 59.057 109.364 58.571C109.436 58.259 109.475 57.917 109.481 57.545C109.487 57.167 109.49 56.885 109.49 56.699L109.994 56.96C109.544 57.02 109.055 57.08 108.527 57.14C108.005 57.2 107.489 57.269 106.979 57.347C106.475 57.425 106.019 57.518 105.611 57.626C105.335 57.704 105.068 57.815 104.81 57.959C104.552 58.097 104.339 58.283 104.171 58.517C104.009 58.751 103.928 59.042 103.928 59.39C103.928 59.672 103.997 59.945 104.135 60.209C104.279 60.473 104.507 60.692 104.819 60.866C105.137 61.04 105.557 61.127 106.079 61.127ZM113.138 62V52.28H114.317L118.106 60.236L121.904 52.28H123.074V62H121.796V55.106L118.529 62H117.692L114.425 55.106V62H113.138ZM133.314 52.28V62H132.027V54.431L126.699 62H125.583V52.28H126.87V59.786L132.207 52.28H133.314ZM142.945 62.27C141.967 62.27 141.112 62.057 140.38 61.631C139.654 61.199 139.081 60.602 138.661 59.84L139.723 59.165C140.077 59.765 140.518 60.221 141.046 60.533C141.574 60.845 142.18 61.001 142.864 61.001C143.578 61.001 144.151 60.836 144.583 60.506C145.015 60.176 145.231 59.723 145.231 59.147C145.231 58.751 145.138 58.436 144.952 58.202C144.772 57.968 144.496 57.8 144.124 57.698C143.758 57.596 143.299 57.545 142.747 57.545H141.595V56.411H142.729C143.401 56.411 143.941 56.291 144.349 56.051C144.763 55.805 144.97 55.421 144.97 54.899C144.97 54.347 144.763 53.939 144.349 53.675C143.941 53.405 143.452 53.27 142.882 53.27C142.306 53.27 141.76 53.39 141.244 53.63C140.734 53.864 140.305 54.167 139.957 54.539L139.111 53.648C139.597 53.114 140.164 52.709 140.812 52.433C141.466 52.151 142.189 52.01 142.981 52.01C143.605 52.01 144.169 52.121 144.673 52.343C145.183 52.559 145.585 52.877 145.879 53.297C146.179 53.717 146.329 54.221 146.329 54.809C146.329 55.361 146.194 55.838 145.924 56.24C145.66 56.642 145.285 56.975 144.799 57.239L144.727 56.744C145.147 56.822 145.495 56.99 145.771 57.248C146.047 57.506 146.251 57.815 146.383 58.175C146.515 58.535 146.581 58.901 146.581 59.273C146.581 59.891 146.419 60.425 146.095 60.875C145.777 61.319 145.342 61.664 144.79 61.91C144.244 62.15 143.629 62.27 142.945 62.27ZM148.558 62V52.28H149.881V56.501H155.362V52.28H156.685V62H155.362V57.77H149.881V62H148.558ZM161.982 62.27C161.25 62.27 160.635 62.138 160.137 61.874C159.645 61.61 159.276 61.259 159.03 60.821C158.784 60.383 158.661 59.906 158.661 59.39C158.661 58.862 158.766 58.412 158.976 58.04C159.192 57.662 159.483 57.353 159.849 57.113C160.221 56.873 160.65 56.69 161.136 56.564C161.628 56.444 162.171 56.339 162.765 56.249C163.365 56.153 163.95 56.072 164.52 56.006C165.096 55.934 165.6 55.865 166.032 55.799L165.564 56.087C165.582 55.127 165.396 54.416 165.006 53.954C164.616 53.492 163.938 53.261 162.972 53.261C162.306 53.261 161.742 53.411 161.28 53.711C160.824 54.011 160.503 54.485 160.317 55.133L159.03 54.755C159.252 53.885 159.699 53.21 160.371 52.73C161.043 52.25 161.916 52.01 162.99 52.01C163.878 52.01 164.631 52.178 165.249 52.514C165.873 52.844 166.314 53.324 166.572 53.954C166.692 54.236 166.77 54.551 166.806 54.899C166.842 55.247 166.86 55.601 166.86 55.961V62H165.681V59.561L166.023 59.705C165.693 60.539 165.18 61.175 164.484 61.613C163.788 62.051 162.954 62.27 161.982 62.27ZM162.135 61.127C162.753 61.127 163.293 61.016 163.755 60.794C164.217 60.572 164.589 60.269 164.871 59.885C165.153 59.495 165.336 59.057 165.42 58.571C165.492 58.259 165.531 57.917 165.537 57.545C165.543 57.167 165.546 56.885 165.546 56.699L166.05 56.96C165.6 57.02 165.111 57.08 164.583 57.14C164.061 57.2 163.545 57.269 163.035 57.347C162.531 57.425 162.075 57.518 161.667 57.626C161.391 57.704 161.124 57.815 160.866 57.959C160.608 58.097 160.395 58.283 160.227 58.517C160.065 58.751 159.984 59.042 159.984 59.39C159.984 59.672 160.053 59.945 160.191 60.209C160.335 60.473 160.563 60.692 160.875 60.866C161.193 61.04 161.613 61.127 162.135 61.127ZM173.316 62.27C172.368 62.27 171.546 62.06 170.85 61.64C170.16 61.22 169.623 60.629 169.239 59.867C168.855 59.105 168.663 58.211 168.663 57.185C168.663 56.123 168.852 55.205 169.23 54.431C169.608 53.657 170.139 53.06 170.823 52.64C171.513 52.22 172.326 52.01 173.262 52.01C174.222 52.01 175.041 52.232 175.719 52.676C176.397 53.114 176.91 53.744 177.258 54.566C177.606 55.388 177.765 56.369 177.735 57.509H176.385V57.041C176.361 55.781 176.088 54.83 175.566 54.188C175.05 53.546 174.294 53.225 173.298 53.225C172.254 53.225 171.453 53.564 170.895 54.242C170.343 54.92 170.067 55.886 170.067 57.14C170.067 58.364 170.343 59.315 170.895 59.993C171.453 60.665 172.242 61.001 173.262 61.001C173.958 61.001 174.564 60.842 175.08 60.524C175.602 60.2 176.013 59.735 176.313 59.129L177.546 59.606C177.162 60.452 176.595 61.109 175.845 61.577C175.101 62.039 174.258 62.27 173.316 62.27ZM169.599 57.509V56.402H177.024V57.509H169.599ZM182.247 62V53.504H178.8V52.28H187.017V53.504H183.57V62H182.247ZM192.846 62.27C191.898 62.27 191.076 62.06 190.38 61.64C189.69 61.22 189.153 60.629 188.769 59.867C188.385 59.105 188.193 58.211 188.193 57.185C188.193 56.123 188.382 55.205 188.76 54.431C189.138 53.657 189.669 53.06 190.353 52.64C191.043 52.22 191.856 52.01 192.792 52.01C193.752 52.01 194.571 52.232 195.249 52.676C195.927 53.114 196.44 53.744 196.788 54.566C197.136 55.388 197.295 56.369 197.265 57.509H195.915V57.041C195.891 55.781 195.618 54.83 195.096 54.188C194.58 53.546 193.824 53.225 192.828 53.225C191.784 53.225 190.983 53.564 190.425 54.242C189.873 54.92 189.597 55.886 189.597 57.14C189.597 58.364 189.873 59.315 190.425 59.993C190.983 60.665 191.772 61.001 192.792 61.001C193.488 61.001 194.094 60.842 194.61 60.524C195.132 60.2 195.543 59.735 195.843 59.129L197.076 59.606C196.692 60.452 196.125 61.109 195.375 61.577C194.631 62.039 193.788 62.27 192.846 62.27ZM189.129 57.509V56.402H196.554V57.509H189.129ZM198.73 63.881L198.811 63.224C199.051 63.242 199.225 63.194 199.333 63.08C199.441 62.966 199.507 62.813 199.531 62.621C199.555 62.429 199.561 62.222 199.549 62H198.73V60.101H200.269V62.36C200.269 62.912 200.128 63.326 199.846 63.602C199.57 63.878 199.198 63.971 198.73 63.881ZM207.295 62V52.28H213.955V53.549H208.618V62H207.295ZM214.767 64.16V60.866C215.319 60.866 215.715 60.689 215.955 60.335C216.195 59.975 216.39 59.402 216.54 58.616C216.642 58.106 216.726 57.557 216.792 56.969C216.858 56.381 216.915 55.709 216.963 54.953C217.011 54.191 217.056 53.3 217.098 52.28H223.524V60.866H224.46V64.16H223.182V62H216.036V64.16H214.767ZM217.008 60.866H222.21V53.414H218.322C218.304 53.87 218.277 54.353 218.241 54.863C218.211 55.373 218.172 55.883 218.124 56.393C218.082 56.903 218.031 57.383 217.971 57.833C217.917 58.277 217.851 58.667 217.773 59.003C217.683 59.435 217.584 59.804 217.476 60.11C217.374 60.416 217.218 60.668 217.008 60.866ZM230.375 62.27C229.427 62.27 228.605 62.06 227.909 61.64C227.219 61.22 226.682 60.629 226.298 59.867C225.914 59.105 225.722 58.211 225.722 57.185C225.722 56.123 225.911 55.205 226.289 54.431C226.667 53.657 227.198 53.06 227.882 52.64C228.572 52.22 229.385 52.01 230.321 52.01C231.281 52.01 232.1 52.232 232.778 52.676C233.456 53.114 233.969 53.744 234.317 54.566C234.665 55.388 234.824 56.369 234.794 57.509H233.444V57.041C233.42 55.781 233.147 54.83 232.625 54.188C232.109 53.546 231.353 53.225 230.357 53.225C229.313 53.225 228.512 53.564 227.954 54.242C227.402 54.92 227.126 55.886 227.126 57.14C227.126 58.364 227.402 59.315 227.954 59.993C228.512 60.665 229.301 61.001 230.321 61.001C231.017 61.001 231.623 60.842 232.139 60.524C232.661 60.2 233.072 59.735 233.372 59.129L234.605 59.606C234.221 60.452 233.654 61.109 232.904 61.577C232.16 62.039 231.317 62.27 230.375 62.27ZM226.658 57.509V56.402H234.083V57.509H226.658ZM240.386 62V52.28H248.117V62H246.794V53.549H241.709V62H240.386ZM254.702 62.27C253.736 62.27 252.911 62.051 252.227 61.613C251.543 61.175 251.018 60.569 250.652 59.795C250.286 59.021 250.103 58.133 250.103 57.131C250.103 56.111 250.289 55.217 250.661 54.449C251.033 53.681 251.561 53.084 252.245 52.658C252.935 52.226 253.754 52.01 254.702 52.01C255.674 52.01 256.502 52.229 257.186 52.667C257.876 53.099 258.401 53.702 258.761 54.476C259.127 55.244 259.31 56.129 259.31 57.131C259.31 58.151 259.127 59.048 258.761 59.822C258.395 60.59 257.867 61.19 257.177 61.622C256.487 62.054 255.662 62.27 254.702 62.27ZM254.702 61.001C255.782 61.001 256.586 60.644 257.114 59.93C257.642 59.21 257.906 58.277 257.906 57.131C257.906 55.955 257.639 55.019 257.105 54.323C256.577 53.627 255.776 53.279 254.702 53.279C253.976 53.279 253.376 53.444 252.902 53.774C252.434 54.098 252.083 54.551 251.849 55.133C251.621 55.709 251.507 56.375 251.507 57.131C251.507 58.301 251.777 59.24 252.317 59.948C252.857 60.65 253.652 61.001 254.702 61.001ZM261.286 62L261.295 52.28H262.627V56.96L266.965 52.28H268.729L264.175 57.14L269.323 62H267.397L262.627 57.32V62H261.286ZM271.611 66.32L273.492 61.217L273.519 62.729L269.262 52.28H270.666L274.158 61.019H273.582L276.804 52.28H278.154L272.934 66.32H271.611ZM279.708 62V52.28H287.439V62H286.116V53.549H281.031V62H279.708ZM292.746 62.27C292.014 62.27 291.399 62.138 290.901 61.874C290.409 61.61 290.04 61.259 289.794 60.821C289.548 60.383 289.425 59.906 289.425 59.39C289.425 58.862 289.53 58.412 289.74 58.04C289.956 57.662 290.247 57.353 290.613 57.113C290.985 56.873 291.414 56.69 291.9 56.564C292.392 56.444 292.935 56.339 293.529 56.249C294.129 56.153 294.714 56.072 295.284 56.006C295.86 55.934 296.364 55.865 296.796 55.799L296.328 56.087C296.346 55.127 296.16 54.416 295.77 53.954C295.38 53.492 294.702 53.261 293.736 53.261C293.07 53.261 292.506 53.411 292.044 53.711C291.588 54.011 291.267 54.485 291.081 55.133L289.794 54.755C290.016 53.885 290.463 53.21 291.135 52.73C291.807 52.25 292.68 52.01 293.754 52.01C294.642 52.01 295.395 52.178 296.013 52.514C296.637 52.844 297.078 53.324 297.336 53.954C297.456 54.236 297.534 54.551 297.57 54.899C297.606 55.247 297.624 55.601 297.624 55.961V62H296.445V59.561L296.787 59.705C296.457 60.539 295.944 61.175 295.248 61.613C294.552 62.051 293.718 62.27 292.746 62.27ZM292.899 61.127C293.517 61.127 294.057 61.016 294.519 60.794C294.981 60.572 295.353 60.269 295.635 59.885C295.917 59.495 296.1 59.057 296.184 58.571C296.256 58.259 296.295 57.917 296.301 57.545C296.307 57.167 296.31 56.885 296.31 56.699L296.814 56.96C296.364 57.02 295.875 57.08 295.347 57.14C294.825 57.2 294.309 57.269 293.799 57.347C293.295 57.425 292.839 57.518 292.431 57.626C292.155 57.704 291.888 57.815 291.63 57.959C291.372 58.097 291.159 58.283 290.991 58.517C290.829 58.751 290.748 59.042 290.748 59.39C290.748 59.672 290.817 59.945 290.955 60.209C291.099 60.473 291.327 60.692 291.639 60.866C291.957 61.04 292.377 61.127 292.899 61.127ZM304.08 62.27C303.132 62.27 302.31 62.06 301.614 61.64C300.924 61.22 300.387 60.629 300.003 59.867C299.619 59.105 299.427 58.211 299.427 57.185C299.427 56.123 299.616 55.205 299.994 54.431C300.372 53.657 300.903 53.06 301.587 52.64C302.277 52.22 303.09 52.01 304.026 52.01C304.986 52.01 305.805 52.232 306.483 52.676C307.161 53.114 307.674 53.744 308.022 54.566C308.37 55.388 308.529 56.369 308.499 57.509H307.149V57.041C307.125 55.781 306.852 54.83 306.33 54.188C305.814 53.546 305.058 53.225 304.062 53.225C303.018 53.225 302.217 53.564 301.659 54.242C301.107 54.92 300.831 55.886 300.831 57.14C300.831 58.364 301.107 59.315 301.659 59.993C302.217 60.665 303.006 61.001 304.026 61.001C304.722 61.001 305.328 60.842 305.844 60.524C306.366 60.2 306.777 59.735 307.077 59.129L308.31 59.606C307.926 60.452 307.359 61.109 306.609 61.577C305.865 62.039 305.022 62.27 304.08 62.27ZM300.363 57.509V56.402H307.788V57.509H300.363ZM313.01 62V53.504H309.563V52.28H317.78V53.504H314.333V62H313.01ZM330.822 52.28V62H329.535V54.431L324.207 62H323.091V52.28H324.378V59.786L329.715 52.28H330.822ZM333.348 62V52.28H340.008V53.549H334.671V62H333.348ZM346.08 62.27C345.186 62.27 344.43 62.045 343.812 61.595C343.194 61.139 342.726 60.524 342.408 59.75C342.09 58.97 341.931 58.097 341.931 57.131C341.931 56.147 342.09 55.271 342.408 54.503C342.732 53.729 343.206 53.12 343.83 52.676C344.454 52.232 345.222 52.01 346.134 52.01C347.022 52.01 347.784 52.235 348.42 52.685C349.056 53.135 349.542 53.747 349.878 54.521C350.22 55.295 350.391 56.165 350.391 57.131C350.391 58.103 350.22 58.976 349.878 59.75C349.536 60.524 349.044 61.139 348.402 61.595C347.76 62.045 346.986 62.27 346.08 62.27ZM341.706 66.32V52.28H342.894V59.597H343.038V66.32H341.706ZM345.945 61.037C346.623 61.037 347.187 60.866 347.637 60.524C348.087 60.182 348.423 59.717 348.645 59.129C348.873 58.535 348.987 57.869 348.987 57.131C348.987 56.399 348.876 55.739 348.654 55.151C348.432 54.563 348.093 54.098 347.637 53.756C347.187 53.414 346.614 53.243 345.918 53.243C345.24 53.243 344.676 53.408 344.226 53.738C343.782 54.068 343.449 54.527 343.227 55.115C343.005 55.697 342.894 56.369 342.894 57.131C342.894 57.881 343.005 58.553 343.227 59.147C343.449 59.735 343.785 60.197 344.235 60.533C344.685 60.869 345.255 61.037 345.945 61.037ZM352.376 62L352.358 52.28H353.69V55.943H355.382C355.664 55.943 355.94 55.949 356.21 55.961C356.48 55.973 356.723 55.997 356.939 56.033C357.419 56.129 357.845 56.291 358.217 56.519C358.589 56.747 358.883 57.062 359.099 57.464C359.315 57.86 359.423 58.361 359.423 58.967C359.423 59.801 359.207 60.458 358.775 60.938C358.343 61.418 357.8 61.73 357.146 61.874C356.9 61.928 356.633 61.964 356.345 61.982C356.057 61.994 355.775 62 355.499 62H352.376ZM353.69 60.866H355.445C355.643 60.866 355.868 60.86 356.12 60.848C356.372 60.836 356.594 60.803 356.786 60.749C357.11 60.659 357.401 60.479 357.659 60.209C357.923 59.933 358.055 59.519 358.055 58.967C358.055 58.421 357.929 58.01 357.677 57.734C357.425 57.452 357.089 57.266 356.669 57.176C356.477 57.134 356.273 57.107 356.057 57.095C355.847 57.083 355.643 57.077 355.445 57.077H353.69V60.866ZM360.584 62V52.28H361.907V62H360.584Z" fill="white"/>
</svg>
