<svg width="182" height="34" viewBox="0 0 182 34" fill="none" xmlns="http://www.w3.org/2000/svg">
<path d="M34.2462 0.894043H0.378906V33.7351H34.2462V0.894043Z" fill="#00B67A"/>
<path d="M70.9356 0.894043H37.0684V33.7351H70.9356V0.894043Z" fill="#00B67A"/>
<path d="M107.625 0.894043H73.7578V33.7351H107.625V0.894043Z" fill="#00B67A"/>
<path d="M144.315 0.894043H110.447V33.7351H144.315V0.894043Z" fill="#00B67A"/>
<path d="M181.004 0.894043H147.137V33.7351H181.004V0.894043Z" fill="#00B67A"/>
<path d="M17.3125 23.0276L22.4632 21.7618L24.6152 28.1932L17.3125 23.0276ZM29.1661 14.7147H20.0995L17.3125 6.43604L14.5255 14.7147H5.45898L12.7969 19.8461L10.0099 28.1248L17.3478 22.9934L21.8635 19.8461L29.1661 14.7147Z" fill="white"/>
<path d="M54.002 23.0276L59.1526 21.7618L61.3046 28.1932L54.002 23.0276ZM65.8555 14.7147H56.789L54.002 6.43604L51.215 14.7147H42.1484L49.4863 19.8461L46.6994 28.1248L54.0373 22.9934L58.5529 19.8461L65.8555 14.7147Z" fill="white"/>
<path d="M90.6914 23.0276L95.8421 21.7618L97.9941 28.1932L90.6914 23.0276ZM102.545 14.7147H93.4784L90.6914 6.43604L87.9044 14.7147H78.8379L86.1758 19.8461L83.3888 28.1248L90.7267 22.9934L95.2424 19.8461L102.545 14.7147Z" fill="white"/>
<path d="M127.381 23.0276L132.532 21.7618L134.684 28.1932L127.381 23.0276ZM139.234 14.7147H130.168L127.381 6.43604L124.594 14.7147H115.527L122.865 19.8461L120.078 28.1248L127.416 22.9934L131.932 19.8461L139.234 14.7147Z" fill="white"/>
<path d="M164.071 23.0276L169.221 21.7618L171.373 28.1932L164.071 23.0276ZM175.924 14.7147H166.858L164.071 6.43604L161.284 14.7147H152.217L159.555 19.8461L156.768 28.1248L164.106 22.9934L168.622 19.8461L175.924 14.7147Z" fill="white"/>
</svg>
