<svg width="118" height="22" viewBox="0 0 118 22" fill="none" xmlns="http://www.w3.org/2000/svg">
<path d="M22.7437 0.484863H0.78125V21.2842H22.7437V0.484863Z" fill="#00B67A"/>
<path d="M46.5362 0.484863H24.5737V21.2842H46.5362V0.484863Z" fill="#00B67A"/>
<path d="M70.3286 0.484863H48.3662V21.2842H70.3286V0.484863Z" fill="#00B67A"/>
<path d="M94.1216 0.484863H72.1592V21.2842H94.1216V0.484863Z" fill="#00B67A"/>
<path d="M117.914 0.484863H95.9517V21.2842H117.914V0.484863Z" fill="#00B67A"/>
<path d="M11.762 14.5026L15.1022 13.701L16.4977 17.7742L11.762 14.5026ZM19.4489 9.23779H13.5694L11.762 3.99463L9.95472 9.23779H4.0752L8.83372 12.4877L7.0264 17.7308L11.7849 14.4809L14.7132 12.4877L19.4489 9.23779Z" fill="white"/>
<path d="M35.555 14.5026L38.8951 13.701L40.2907 17.7742L35.555 14.5026ZM43.2419 9.23779H37.3623L35.555 3.99463L33.7477 9.23779H27.8682L32.6267 12.4877L30.8194 17.7308L35.5779 14.4809L38.5062 12.4877L43.2419 9.23779Z" fill="white"/>
<path d="M59.3475 14.5026L62.6876 13.701L64.0831 17.7742L59.3475 14.5026ZM67.0343 9.23779H61.1548L59.3475 3.99463L57.5402 9.23779H51.6606L56.4192 12.4877L54.6118 17.7308L59.3704 14.4809L62.2987 12.4877L67.0343 9.23779Z" fill="white"/>
<path d="M83.14 14.5026L86.4801 13.701L87.8756 17.7742L83.14 14.5026ZM90.8268 9.23779H84.9473L83.14 3.99463L81.3326 9.23779H75.4531L80.2117 12.4877L78.4043 17.7308L83.1629 14.4809L86.0912 12.4877L90.8268 9.23779Z" fill="white"/>
<path d="M106.932 14.5026L110.273 13.701L111.668 17.7742L106.932 14.5026ZM114.619 9.23779H108.74L106.932 3.99463L105.125 9.23779H99.2456L104.004 12.4877L102.197 17.7308L106.955 14.4809L109.884 12.4877L114.619 9.23779Z" fill="white"/>
</svg>
