<svg width="27" height="28" viewBox="0 0 27 28" fill="none" xmlns="http://www.w3.org/2000/svg">
<path opacity="0.4" fill-rule="evenodd" clip-rule="evenodd" d="M13.7508 25.3658C10.7023 25.3658 7.77868 24.1548 5.62307 21.9991C3.46746 19.8435 2.25645 16.9199 2.25645 13.8714C2.25645 10.8229 3.46746 7.89929 5.62307 5.74368C7.77868 3.58807 10.7023 2.37706 13.7508 2.37706C16.7993 2.37706 19.7229 3.58807 21.8785 5.74368C24.0341 7.89929 25.2452 10.8229 25.2452 13.8714C25.2452 16.9199 24.0341 19.8435 21.8785 21.9991C19.7229 24.1548 16.7993 25.3658 13.7508 25.3658ZM13.7508 0.735008C10.2668 0.735008 6.92552 2.11902 4.46196 4.58257C1.99841 7.04612 0.6144 10.3874 0.6144 13.8714C0.614399 17.3554 1.99841 20.6967 4.46196 23.1602C6.92552 25.6238 10.2668 27.0078 13.7508 27.0078C17.2348 27.0078 20.5761 25.6238 23.0396 23.1602C25.5032 20.6967 26.8872 17.3554 26.8872 13.8714C26.8872 10.3874 25.5032 7.04612 23.0396 4.58257C20.5761 2.11902 17.2348 0.735008 13.7508 0.735008ZM19.498 13.0504C19.7157 13.0504 19.9246 13.1369 20.0785 13.2909C20.2325 13.4448 20.319 13.6537 20.319 13.8714C20.319 14.0892 20.2325 14.298 20.0785 14.452C19.9246 14.6059 19.7157 14.6924 19.498 14.6924L9.98558 14.6924L13.5111 18.2163C13.6652 18.3704 13.7518 18.5795 13.7518 18.7976C13.7518 19.0156 13.6652 19.2247 13.5111 19.3788C13.3569 19.533 13.1478 19.6196 12.9298 19.6196C12.7118 19.6196 12.5027 19.533 12.3485 19.3788L7.42234 14.4527C7.34588 14.3764 7.28522 14.2858 7.24383 14.1861C7.20244 14.0863 7.18113 13.9794 7.18113 13.8714C7.18113 13.7634 7.20244 13.6565 7.24383 13.5567C7.28522 13.457 7.34588 13.3664 7.42234 13.2901L12.3485 8.36397C12.5027 8.20981 12.7118 8.1232 12.9298 8.1232C13.1478 8.1232 13.3569 8.20981 13.5111 8.36397C13.6652 8.51814 13.7518 8.72724 13.7518 8.94526C13.7518 9.16328 13.6652 9.37238 13.5111 9.52654L9.98558 13.0504L19.498 13.0504Z" fill="white"/>
</svg>
