<svg width="39" height="39" viewBox="0 0 39 39" fill="none" xmlns="http://www.w3.org/2000/svg">
<g opacity="0.5">
<circle cx="19.8572" cy="19.0286" r="19.0286" fill="white"/>
<path fill-rule="evenodd" clip-rule="evenodd" d="M26.5173 18.5529C26.5173 18.3186 26.4296 18.094 26.2735 17.9283C26.1174 17.7626 25.9056 17.6696 25.6849 17.6696H16.0406L19.6149 13.8784C19.6923 13.7963 19.7537 13.6988 19.7956 13.5915C19.8375 13.4842 19.8591 13.3692 19.8591 13.253C19.8591 13.1369 19.8375 13.0219 19.7956 12.9146C19.7537 12.8073 19.6923 12.7098 19.6149 12.6277C19.5376 12.5455 19.4457 12.4804 19.3446 12.4359C19.2434 12.3915 19.1351 12.3686 19.0256 12.3686C18.9162 12.3686 18.8078 12.3915 18.7067 12.4359C18.6055 12.4804 18.5137 12.5455 18.4363 12.6277L13.4418 17.9275C13.3643 18.0096 13.3028 18.107 13.2608 18.2144C13.2189 18.3217 13.1973 18.4367 13.1973 18.5529C13.1973 18.6691 13.2189 18.7841 13.2608 18.8914C13.3028 18.9988 13.3643 19.0962 13.4418 19.1783L18.4363 24.4781C18.5926 24.644 18.8046 24.7372 19.0256 24.7372C19.2467 24.7372 19.4586 24.644 19.6149 24.4781C19.7713 24.3123 19.8591 24.0873 19.8591 23.8528C19.8591 23.6182 19.7713 23.3932 19.6149 23.2274L16.0406 19.4362H25.6849C25.9056 19.4362 26.1174 19.3431 26.2735 19.1775C26.4296 19.0118 26.5173 18.7872 26.5173 18.5529Z" fill="#77BE1D"/>
</g>
</svg>
