<svg width="27" height="28" viewBox="0 0 27 28" fill="none" xmlns="http://www.w3.org/2000/svg">
<path opacity="0.4" fill-rule="evenodd" clip-rule="evenodd" d="M13.8635 25.3658C16.9119 25.3658 19.8356 24.1548 21.9912 21.9991C24.1468 19.8435 25.3578 16.9199 25.3578 13.8714C25.3578 10.8229 24.1468 7.89929 21.9912 5.74368C19.8356 3.58807 16.9119 2.37706 13.8635 2.37706C10.815 2.37706 7.89133 3.58807 5.73572 5.74368C3.58011 7.89929 2.3691 10.8229 2.3691 13.8714C2.3691 16.9199 3.58011 19.8435 5.73572 21.9991C7.89133 24.1548 10.815 25.3658 13.8635 25.3658ZM13.8635 0.735008C17.3474 0.735008 20.6887 2.11902 23.1523 4.58257C25.6158 7.04612 26.9999 10.3874 26.9999 13.8714C26.9999 17.3554 25.6158 20.6967 23.1523 23.1602C20.6887 25.6238 17.3474 27.0078 13.8635 27.0078C10.3795 27.0078 7.03817 25.6238 4.57461 23.1602C2.11106 20.6967 0.72705 17.3554 0.72705 13.8714C0.72705 10.3874 2.11106 7.04612 4.57461 4.58257C7.03817 2.11902 10.3795 0.735008 13.8635 0.735008ZM8.11628 13.0504C7.89853 13.0504 7.6897 13.1369 7.53572 13.2909C7.38175 13.4448 7.29525 13.6537 7.29525 13.8714C7.29525 14.0892 7.38175 14.298 7.53573 14.452C7.6897 14.6059 7.89853 14.6924 8.11628 14.6924L17.6287 14.6924L14.1032 18.2163C13.949 18.3704 13.8624 18.5795 13.8624 18.7976C13.8624 19.0156 13.949 19.2247 14.1032 19.3788C14.2574 19.533 14.4665 19.6196 14.6845 19.6196C14.9025 19.6196 15.1116 19.533 15.2658 19.3788L20.1919 14.4527C20.2684 14.3764 20.329 14.2858 20.3704 14.1861C20.4118 14.0863 20.4331 13.9794 20.4331 13.8714C20.4331 13.7634 20.4118 13.6565 20.3704 13.5567C20.329 13.457 20.2684 13.3664 20.1919 13.2901L15.2658 8.36397C15.1116 8.20981 14.9025 8.1232 14.6845 8.1232C14.4665 8.1232 14.2574 8.20981 14.1032 8.36397C13.949 8.51814 13.8624 8.72724 13.8624 8.94526C13.8624 9.16328 13.949 9.37238 14.1032 9.52654L17.6287 13.0504L8.11628 13.0504Z" fill="white"/>
</svg>
