<svg width="14" height="16" viewBox="0 0 14 16" fill="none" xmlns="http://www.w3.org/2000/svg">
<path d="M14 13.2396C14 13.9965 13.7721 14.6458 13.3164 15.1875C12.8607 15.7292 12.312 16 11.6703 16H2.32969C1.68802 16 1.13932 15.7292 0.683594 15.1875C0.227865 14.6458 0 13.9965 0 13.2396C0 12.6493 0.0309896 12.092 0.0929687 11.5677C0.154948 11.0434 0.269792 10.5156 0.4375 9.98438C0.605208 9.45312 0.81849 8.99826 1.07734 8.61979C1.3362 8.24132 1.67891 7.93229 2.10547 7.69271C2.53203 7.45312 3.0224 7.33333 3.57656 7.33333C4.53177 8.22222 5.67292 8.66667 7 8.66667C8.32708 8.66667 9.46823 8.22222 10.4234 7.33333C10.9776 7.33333 11.468 7.45312 11.8945 7.69271C12.3211 7.93229 12.6638 8.24132 12.9227 8.61979C13.1815 8.99826 13.3948 9.45312 13.5625 9.98438C13.7302 10.5156 13.8451 11.0434 13.907 11.5677C13.969 12.092 14 12.6493 14 13.2396ZM11.2 4C11.2 5.10417 10.7898 6.04688 9.96953 6.82812C9.14922 7.60938 8.15938 8 7 8C5.84062 8 4.85078 7.60938 4.03047 6.82812C3.21016 6.04688 2.8 5.10417 2.8 4C2.8 2.89583 3.21016 1.95312 4.03047 1.17188C4.85078 0.390625 5.84062 0 7 0C8.15938 0 9.14922 0.390625 9.96953 1.17188C10.7898 1.95312 11.2 2.89583 11.2 4Z" fill="white"/>
</svg>
